<?xml version="1.0" encoding="UTF-8" standalone="no"?>
<svg
   width="718.67999"
   height="237.82109"
   version="1.1"
   id="svg196"
   sodipodi:docname="donders_logo_white.svg"
   inkscape:version="1.2.2 (b0a84865, 2022-12-01)"
   xmlns:inkscape="http://www.inkscape.org/namespaces/inkscape"
   xmlns:sodipodi="http://sodipodi.sourceforge.net/DTD/sodipodi-0.dtd"
   xmlns="http://www.w3.org/2000/svg"
   xmlns:svg="http://www.w3.org/2000/svg">
  <sodipodi:namedview
     id="namedview198"
     pagecolor="#ffffff"
     bordercolor="#000000"
     borderopacity="0.25"
     inkscape:showpageshadow="2"
     inkscape:pageopacity="0.0"
     inkscape:pagecheckerboard="0"
     inkscape:deskcolor="#d1d1d1"
     showgrid="false"
     inkscape:zoom="0.72388178"
     inkscape:cx="461.40131"
     inkscape:cy="68.381331"
     inkscape:window-width="1728"
     inkscape:window-height="1051"
     inkscape:window-x="0"
     inkscape:window-y="38"
     inkscape:window-maximized="0"
     inkscape:current-layer="g194" />
  <defs
     id="defs184">
    <clipPath
       id="a">
      <path
         d="M 0,255.118 H 612.925 V 0 H 0 Z"
         id="path181" />
    </clipPath>
  </defs>
  <g
     clip-path="url(#a)"
     transform="matrix(1.25,0,0,-1.25,-47.4775,318.8975)"
     id="g194">
    <path
       d="m 52.857,159.769 c -0.488,-0.068 -0.977,-0.143 -1.049,-0.561 -0.067,-0.348 -0.137,-11.524 -0.137,-13.196 l 0.07,-20.957 c 0,-2.793 0.28,-4.394 1.882,-4.678 1.678,-0.35 6.01,-0.35 7.825,-0.35 15.014,0 18.996,12.22 18.996,20.815 0,5.24 -1.325,10.827 -5.516,14.874 -4.19,4.053 -9.5,4.053 -18.928,4.053 z m -9.918,-14.036 c 0,2.163 -0.068,11.867 -0.348,13.127 -0.136,0.84 -1.047,1.396 -2.795,1.752 -1.539,0.344 -1.814,0.625 -1.814,1.602 v 1.398 c 0,0.904 0.207,1.116 0.98,1.116 2.021,0 6.49,-0.28 9.775,-0.28 3.004,0 7.611,0.212 9.85,0.28 2.511,0.075 4.884,0.143 6.984,0.143 5.796,0 12.15,-0.423 17.737,-6.08 5.45,-5.52 6.634,-12.71 6.634,-17.95 0,-5.376 -1.114,-12.147 -6.982,-18.296 -6.218,-6.568 -12.923,-7.406 -19.14,-7.406 -0.837,0 -3.56,0.145 -5.234,0.213 -4.052,0.139 -6.988,0.275 -8.244,0.275 -7.125,0 -10.615,-0.275 -11.453,-0.275 -0.769,0 -0.907,0.418 -0.907,1.115 v 1.399 c 0,1.117 0.348,1.26 1.814,1.6 2.518,0.562 2.863,1.195 2.931,2.796 0.144,2.938 0.212,8.244 0.212,12.088 z m 65.437,-5.239 c 0,-8.879 5.589,-21.027 18.436,-21.027 12.786,0 18.511,11.322 18.511,20.47 0,8.376 -5.027,20.742 -18.163,20.742 -12.916,0 -18.784,-10.969 -18.784,-20.185 m 46.444,-0.346 c 0,-11.175 -7.051,-25.57 -28.146,-25.57 -19.487,0 -27.798,11.805 -27.798,25.213 0,4.824 0.978,12.994 9.011,19.697 3.911,3.213 9.425,6.084 19.205,6.084 24.935,0 27.728,-19.355 27.728,-25.424 m 9.002,-22.421 c 0,0.768 0,1.256 2.373,1.74 1.816,0.418 2.306,0.774 2.306,4.123 0,4.123 0.21,10.76 0.21,14.875 v 7.268 c 0,2.377 0,10.893 -0.35,12.64 -0.276,1.396 -1.116,1.746 -2.373,2.026 -2.096,0.418 -2.166,0.974 -2.166,1.673 v 1.472 c 0,1.116 0.417,1.184 0.977,1.184 1.046,0 3.628,-0.28 5.59,-0.28 2.511,0 5.445,0.28 6.354,0.28 0.49,0 0.63,-0.068 1.465,-1.184 2.794,-3.561 3.142,-4.055 5.94,-7.336 7.542,-8.8 15.152,-17.532 22.768,-26.33 0.07,-0.075 0.418,-0.495 0.486,-0.495 0.141,0 0.141,0.289 0.141,0.563 0,1.33 -0.209,7.334 -0.209,8.588 -0.068,2.73 -0.28,18.937 -0.489,20.119 -0.277,1.184 -1.257,1.466 -3.565,2.236 -0.835,0.21 -0.905,0.698 -0.905,1.325 v 1.467 c 0,0.767 0.35,1.047 1.188,1.047 1.394,0 3.63,-0.28 6.076,-0.28 2.443,0 5.797,0.28 7.197,0.28 0.416,0 0.905,-0.212 0.905,-1.047 v -1.116 c 0,-1.048 0,-1.535 -1.539,-1.748 -2.3,-0.418 -2.999,-1.191 -2.999,-3.907 0,-1.886 0,-3.495 -0.07,-5.384 -0.142,-5.514 -0.21,-15.225 -0.21,-18.717 0,-2.166 0.136,-11.664 0.068,-13.553 0,-0.556 0.141,-3.002 0.141,-3.556 0,-0.703 -0.14,-0.84 -1.4,-1.743 l -0.975,-0.912 c -0.143,-0.068 -0.35,-0.136 -0.487,-0.136 -0.282,0 -0.282,0 -1.19,1.048 -5.238,6.42 -30.382,34.986 -34.296,40.014 -0.064,0.068 -0.416,0.56 -0.555,0.56 -0.068,0 -0.068,-0.56 -0.068,-0.765 0.207,-8.24 0.277,-9.15 0.35,-18.09 l 0.066,-7.402 c 0,-1.123 0,-6.15 0.143,-6.846 0.207,-1.4 1.607,-1.678 3.284,-1.961 1.464,-0.28 1.464,-1.107 1.464,-1.67 v -1.26 c 0,-0.98 -0.35,-1.185 -0.98,-1.185 -1.184,0 -4.12,0.275 -6.005,0.275 -3.002,0 -6.495,-0.275 -7.684,-0.275 -0.767,0 -0.977,0.348 -0.977,0.902 z m 77.165,42.042 c -0.485,-0.068 -0.973,-0.143 -1.044,-0.561 -0.072,-0.348 -0.142,-11.524 -0.142,-13.196 l 0.07,-20.957 c 0,-2.793 0.281,-4.394 1.886,-4.678 1.677,-0.35 6.007,-0.35 7.826,-0.35 15.016,0 18.997,12.22 18.997,20.815 0,5.24 -1.33,10.827 -5.522,14.874 -4.187,4.053 -9.498,4.053 -18.928,4.053 z m -9.914,-14.036 c 0,2.163 -0.07,11.867 -0.352,13.127 -0.137,0.84 -1.049,1.396 -2.793,1.752 -1.535,0.344 -1.817,0.625 -1.817,1.602 v 1.398 c 0,0.904 0.214,1.116 0.98,1.116 2.025,0 6.493,-0.28 9.78,-0.28 3,0 7.616,0.212 9.848,0.28 2.513,0.075 4.89,0.143 6.986,0.143 5.793,0 12.148,-0.423 17.736,-6.08 5.446,-5.52 6.637,-12.71 6.637,-17.95 0,-5.376 -1.116,-12.147 -6.987,-18.296 -6.217,-6.568 -12.918,-7.406 -19.133,-7.406 -0.843,0 -3.566,0.145 -5.239,0.213 -4.053,0.139 -6.985,0.275 -8.24,0.275 -7.127,0 -10.62,-0.275 -11.458,-0.275 -0.769,0 -0.91,0.418 -0.91,1.115 v 1.399 c 0,1.117 0.35,1.26 1.817,1.6 2.517,0.562 2.861,1.195 2.938,2.796 0.136,2.938 0.207,8.244 0.207,12.088 z m 60.962,-0.001 c 0,2.163 -0.07,11.867 -0.347,13.127 -0.139,0.841 -1.048,1.396 -2.796,1.752 -1.533,0.344 -1.815,0.625 -1.815,1.602 v 1.398 c 0,0.904 0.21,1.116 0.98,1.116 1.26,0 8.242,-0.349 16.342,-0.349 9.151,0 11.594,0.35 13.132,0.35 1.116,0 1.257,-0.842 1.257,-1.329 l -0.423,-7.82 c 0,-1.048 -0.62,-1.048 -1.182,-1.048 h -0.98 c -1.047,0 -1.327,0 -1.676,1.951 -0.209,1.33 -0.837,2.726 -2.304,3.006 -0.7,0.138 -4.683,0.138 -5.728,0.138 -0.699,0 -5.165,0 -5.382,-0.206 -0.275,-0.212 -0.275,-0.49 -0.275,-2.725 -0.073,-3.91 -0.073,-4.328 -0.073,-6.143 0,-6.843 0,-6.984 0.348,-7.336 0.422,-0.347 7.9,-0.347 9.227,-0.347 1.817,0 1.883,0 5.375,0.136 0.278,0 1.325,0.143 1.816,0.143 0.631,0 0.631,-0.492 0.488,-1.402 l -0.347,-2.787 c -0.14,-1.194 -0.14,-1.54 -1.19,-1.54 -0.279,0 -3.704,0.21 -4.399,0.28 -2.513,0.066 -6.427,0.066 -9.009,0.066 -1.257,0 -2.028,-0.066 -2.164,-0.767 -0.072,-0.553 -0.145,-5.936 -0.145,-6.983 0,-1.742 0,-5.447 0.145,-7.056 0.203,-2.649 1.816,-2.649 4.886,-2.649 8.175,0 10.62,0 11.593,3.91 0.563,2.162 1.12,2.242 2.024,2.242 h 1.33 c 0.98,0 1.188,-0.359 1.116,-1.058 l -1.116,-8.449 c -0.214,-1.885 -0.906,-1.959 -1.813,-1.959 -1.048,0 -6.076,0.287 -8.452,0.355 -2.029,0.068 -9.432,0.276 -11.667,0.276 -7.123,0 -9.428,-0.276 -10.824,-0.276 -0.768,0 -0.91,0.418 -0.91,1.186 v 1.328 c 0,1.117 0.347,1.322 1.815,1.601 2.518,0.631 2.868,1.26 2.935,2.795 0.138,3.006 0.208,8.244 0.208,12.157 z m 51.682,-1.117 c 0,-1.328 0.213,-1.533 1.609,-1.533 0.904,0 5.863,0 7.89,1.32 3.49,2.233 3.91,5.94 3.91,7.547 0,0.487 0,6.143 -5.59,7.608 -1.812,0.494 -4.608,0.494 -5.867,0.494 -0.973,0 -1.74,0 -1.885,-0.563 -0.067,-0.559 -0.067,-3.416 -0.142,-4.19 z m -0.075,-10.266 c 0,-2.027 0.075,-11.95 0.288,-13.136 0.273,-0.973 1.533,-1.463 2.795,-1.746 1.6,-0.28 1.876,-0.627 1.876,-1.602 v -1.398 c 0,-0.84 -0.138,-1.116 -0.973,-1.116 -1.116,0 -6.845,0.276 -8.102,0.276 -1.395,0 -7.403,-0.276 -8.66,-0.276 -0.764,0 -0.912,0.418 -0.912,1.116 v 1.398 c 0,1.117 0.426,1.262 1.892,1.602 2.515,0.56 2.862,1.193 2.932,2.794 0.073,2.938 0.139,8.245 0.139,12.088 v 11.383 c 0,2.163 0,11.867 -0.274,13.128 -0.215,0.84 -1.124,1.396 -2.797,1.752 -1.611,0.343 -1.892,0.624 -1.892,1.602 v 1.397 c 0,0.904 0.28,1.116 0.982,1.116 1.744,0 6.218,-0.28 9.149,-0.28 2.095,0 10.199,0.28 12.568,0.28 6.424,0 9.015,-2.026 10.412,-3.49 2.443,-2.445 3.49,-5.658 3.49,-8.52 0,-1.192 -0.353,-8.663 -7.407,-11.383 -0.764,-0.28 -1.246,-0.424 -1.607,-0.492 -0.271,-0.069 -0.626,-0.139 -0.626,-0.348 0,-0.07 3.78,-7.473 6.01,-11.246 5.31,-8.87 6.698,-9.432 7.96,-9.848 0.354,-0.144 1.677,-0.486 1.957,-0.63 0.419,-0.276 0.419,-0.343 0.419,-1.255 v -1.183 c 0,-0.98 -0.774,-0.98 -1.32,-0.98 -0.92,0 -4.892,0.138 -5.66,0.138 -1.546,0 -4.053,-0.139 -5.586,-0.139 -1.124,0 -1.473,0.14 -1.892,1.186 -2.793,6.984 -6.15,13.826 -9.504,20.6 -0.616,1.328 -1.11,1.89 -2.718,1.89 -2.516,0 -2.94,0 -2.94,-1.262 v -3.416 z m 64.252,21.366 c -0.137,-0.972 -0.137,-1.047 -1.324,-1.047 h -1.184 c -0.918,0 -1.26,0 -1.396,0.7 -0.358,1.745 -0.63,3.142 -2.59,4.258 -1.601,0.917 -3.423,1.116 -4.602,1.116 -4.41,0 -7.477,-2.718 -7.477,-5.999 0,-3.986 2.369,-5.663 12.642,-12.925 3.63,-2.58 8.38,-6.498 8.38,-12.922 0,-6.566 -5.45,-14.318 -17.742,-14.318 -3.213,0 -8.938,0.842 -11.525,2.03 -1.041,0.49 -1.111,0.694 -0.973,1.675 l 0.766,7.19 c 0.07,0.562 0.07,0.99 1.117,0.99 h 1.255 c 0.492,0 1.256,0 1.395,-0.846 0.495,-2.725 0.698,-4.12 3.706,-5.377 1.95,-0.84 4.047,-1.053 5.169,-1.053 5.658,0 8.52,3.918 8.52,7.195 0,4.051 -3,6.151 -11.108,11.741 -7.682,5.3 -9.71,9.142 -9.71,13.826 0,6.353 4.75,10.122 7.617,11.662 2.997,1.604 6.565,1.961 9.71,1.961 3.846,0 7.887,-0.63 9.354,-1.473 0.84,-0.488 0.917,-0.768 0.765,-1.672 z M 42.734,101.506 h 3.114 V 78.707 H 42.734 Z M 94.855,78.707 84.076,94.25 c -0.892,1.264 -1.846,3.049 -1.846,3.049 h -0.071 c 0,0 0.141,-1.408 0.141,-2.598 V 78.707 h -2.845 v 22.799 H 82.5 L 92.771,86.789 c 1.128,-1.643 2.154,-3.461 2.154,-3.461 h 0.068 c 0,0 -0.138,1.443 -0.138,3.186 v 14.992 h 2.843 V 78.707 Z m 41.038,-0.41 c -3.525,0 -5.752,1.51 -6.606,2.33 l 1.509,2.19 c 0.516,-0.48 2.19,-1.952 5.166,-1.952 2.707,0 4.45,1.71 4.45,3.633 0,2.598 -2.568,3.658 -5.203,4.957 -2.804,1.367 -5.234,2.916 -5.234,6.545 0,3.762 3.184,5.916 6.775,5.916 3.456,0 5.339,-1.23 6.128,-1.848 l -1.437,-2.255 c -0.788,0.615 -2.361,1.539 -4.655,1.539 -2.194,0 -3.8,-1.231 -3.8,-3.221 0,-2.188 1.847,-3.148 4.146,-4.213 3.007,-1.43 6.363,-2.975 6.363,-7.353 0,-3.7 -3.047,-6.268 -7.602,-6.268 m 46.409,20.609 V 78.707 h -3.11 v 20.2 h -6.434 v 2.6 h 15.983 v -2.6 h -6.439 z m 37.514,2.6 h 3.117 V 78.707 h -3.117 z m 43.776,-2.6 V 78.707 h -3.114 v 20.2 h -6.437 v 2.6 h 15.987 v -2.6 h -6.436 z m 46.135,-20.609 c -6.295,0 -8.998,3.527 -8.998,9.004 v 14.205 h 3.08 V 87.643 c 0,-4.547 1.85,-6.707 5.985,-6.707 3.973,0 5.824,2.537 5.824,6.26 v 14.31 h 2.875 V 87.508 c 0,-5.72 -2.778,-9.211 -8.766,-9.211 m 49.15,20.609 V 78.707 h -3.117 v 20.2 h -6.427 v 2.6 h 15.979 v -2.6 h -6.435 z M 395.14,78.707 v 22.799 h 12.009 v -2.6 h -8.933 v -6.879 h 7.84 v -2.572 h -7.84 v -8.144 h 9.179 v -2.604 z"
       id="path186"
       style="fill:#ffffff;fill-opacity:1" />
    <path
       d="m 585.725,255.118 -42.781,-103.27 0.369,-0.6 a 56.625,56.625 0 0 0 4.13,-8.041 l 2.588,-6.254 48.95,118.165 z M 527.571,117.186 a 32,32 0 0 0 -1.974,-7.208 l -0.104,-0.274 c -3.26,-7.872 -9.39,-14.002 -17.264,-17.26 a 31.749,31.749 0 0 0 -12.202,-2.439 h -0.002 c -12.955,0 -24.525,7.734 -29.475,19.702 -3.258,7.866 -3.258,16.534 0,24.405 3.258,7.873 9.385,14.004 17.251,17.262 a 31.768,31.768 0 0 0 12.201,2.436 c 12.956,0 24.53,-7.73 29.484,-19.692 l 28.696,-69.252 h 13.243 l -0.217,0.525 c -3.178,7.666 -31.066,74.912 -31.412,75.635 -7.297,15.206 -22.92,25.032 -39.804,25.032 a 43.86,43.86 0 0 1 -16.868,-3.371 c -22.487,-9.318 -33.203,-35.188 -23.888,-57.673 6.86,-16.56 22.876,-27.26 40.801,-27.26 a 43.897,43.897 0 0 1 16.873,3.369 44.071,44.071 0 0 1 22.886,21.66 l 0.265,0.553 -7.753,18.725 z"
       fill="#be311a"
       id="path188" />
    <path
       d="m 506.933,95.568 c -14.546,-6.04 -31.23,0.881 -37.253,15.428 -6.034,14.537 0.875,31.234 15.429,37.248 14.552,6.026 31.235,-0.877 37.253,-15.424 6.028,-14.543 -0.882,-31.234 -15.43,-37.252 m 19.82,39.074 c -7.024,16.961 -26.486,25.03 -43.474,17.998 -16.967,-7.027 -25.021,-26.496 -17.994,-43.459 7.025,-16.984 26.489,-25.037 43.47,-18.006 8.488,3.514 14.748,10.135 18.006,18.002 0.042,0.102 0.078,0.205 0.117,0.307 a 33.37,33.37 0 0 1 2.05,7.496 l 12.337,-29.779 9.253,-22.336 h 5.149 l -28.913,69.777 z m 55.321,120.476 -40.805,-98.494 a 56.113,56.113 0 0 0 3.21,-4.653 l 42.731,103.147 z"
       fill="#ff0000"
       id="path190" />
    <path
       d="m 612.925,255.118 h -15.43 l -47.463,-114.578 -1.322,3.192 a 57.677,57.677 0 0 1 -7.44,12.892 c -15.327,19.999 -42.695,28.072 -67.071,17.965 -29.091,-12.052 -42.918,-45.412 -30.86,-74.5 12.055,-29.101 45.406,-42.928 74.5,-30.871 a 56.721,56.721 0 0 1 23.426,17.984 l -6.704,16.176 c -4.4,-9.156 -12.05,-16.793 -22.175,-20.986 -21.825,-9.04 -46.843,1.328 -55.882,23.148 -9.04,21.817 1.329,46.84 23.147,55.88 21.088,8.735 45.153,-0.655 54.91,-20.987 0.34,-0.71 31.382,-75.566 31.382,-75.566 h 15.433 l -23.627,57.043 55.177,133.208 z"
       fill="#8e0000"
       id="path192" />
  </g>
</svg>
