<?xml version="1.0" encoding="UTF-8" standalone="no"?>
<svg
   width="205"
   height="37"
   viewBox="0 0 205 37"
   version="1.1"
   id="svg316"
   sodipodi:docname="maastricht_umc_logo.svg"
   inkscape:version="1.2.2 (b0a84865, 2022-12-01)"
   xmlns:inkscape="http://www.inkscape.org/namespaces/inkscape"
   xmlns:sodipodi="http://sodipodi.sourceforge.net/DTD/sodipodi-0.dtd"
   xmlns="http://www.w3.org/2000/svg"
   xmlns:svg="http://www.w3.org/2000/svg">
  <sodipodi:namedview
     id="namedview318"
     pagecolor="#ffffff"
     bordercolor="#000000"
     borderopacity="0.25"
     inkscape:showpageshadow="2"
     inkscape:pageopacity="0.0"
     inkscape:pagecheckerboard="0"
     inkscape:deskcolor="#d1d1d1"
     showgrid="false"
     inkscape:zoom="1.1512195"
     inkscape:cx="102.93432"
     inkscape:cy="18.675847"
     inkscape:window-width="1728"
     inkscape:window-height="1051"
     inkscape:window-x="0"
     inkscape:window-y="38"
     inkscape:window-maximized="0"
     inkscape:current-layer="svg316" />
  <defs
     id="defs300">
    <linearGradient
       id="a"
       x1="61.227%"
       x2="44.56%"
       y1="71.961%"
       y2="24.356%">
      <stop
         offset="0%"
         stop-color="#F9BD5B"
         id="stop275" />
      <stop
         offset="100%"
         stop-color="#E85D10"
         id="stop277" />
    </linearGradient>
    <linearGradient
       id="b"
       x1="57.897%"
       x2="35.993%"
       y1="5.998%"
       y2="93.885%">
      <stop
         offset="0%"
         stop-color="#F9BD5B"
         id="stop280" />
      <stop
         offset="100%"
         stop-color="#E85D10"
         id="stop282" />
    </linearGradient>
    <linearGradient
       id="c"
       x1="129.141%"
       x2="8.563%"
       y1="6.978%"
       y2="67.603%">
      <stop
         offset="0%"
         stop-color="#F9BD5B"
         id="stop285" />
      <stop
         offset="100%"
         stop-color="#E85D10"
         id="stop287" />
    </linearGradient>
    <linearGradient
       id="d"
       x1="59.451%"
       x2="45.542%"
       y1="11.682%"
       y2="80.645%">
      <stop
         offset="0%"
         stop-color="#F9BD5B"
         id="stop290" />
      <stop
         offset="100%"
         stop-color="#E85D10"
         id="stop292" />
    </linearGradient>
    <linearGradient
       id="e"
       x1="71.628%"
       x2="30.663%"
       y1="34.383%"
       y2="57.458%">
      <stop
         offset="0%"
         stop-color="#F9BA00"
         id="stop295" />
      <stop
         offset="100%"
         stop-color="#E85D10"
         id="stop297" />
    </linearGradient>
  </defs>
  <g
     fill="none"
     fill-rule="evenodd"
     id="g314">
    <path
       fill="#004489"
       d="M203.154 18.55v-2.214h-3.267v-3.318h-2.506v3.318h-3.268v2.213h3.268v3.354h2.506v-3.354h3.267zm-10.359 6.125l-.335-2.59c-.78.357-2.009.625-2.924.625-3.036 0-4.399-1.831-4.399-5.113 0-2.925 1.384-5.046 4.198-5.046 1.027 0 2.054.156 3.037.446l.312-2.634c-.982-.268-2.12-.402-3.193-.402-5.046 0-7.547 3.349-7.547 8.127 0 3.751 1.697 7.257 6.967 7.257 1.406 0 2.768-.269 3.884-.67zm-11.945.469l-2.344-15.072h-3.372l-2.59 7.793c-.38 1.116-.625 1.964-.848 3.126h-.044a23.694 23.694 0 0 0-.827-3.17l-2.523-7.749h-3.394l-2.322 15.072h2.947l.849-6.944c.178-1.317.334-2.5.424-3.84h.045c.179 1.205.558 2.567.96 3.795l2.3 6.989h2.88l2.39-7.57c.378-1.183.624-2.255.825-3.215h.045c.111 1.05.245 2.166.468 3.595l1.072 7.19h3.06zm-19.648-5.85v-9.222h-2.88v9.4c0 2.568-.939 3.506-3.17 3.506-2.502 0-3.127-1.34-3.127-3.238v-9.668h-2.903v9.847c0 2.88 1.072 5.47 5.827 5.47 3.975 0 6.253-1.965 6.253-6.095zm-18.376 5.782v-2.299a5.48 5.48 0 0 1-1.384.178c-.983 0-1.318-.401-1.318-1.83v-4.868h2.702v-2.21h-2.702V9.872l-2.857.759v3.416h-1.898v2.21h1.92v5.627c0 2.59.76 3.483 3.215 3.483.782 0 1.608-.112 2.322-.29zm-8.93.068V17.35c0-1.942-.805-3.55-3.305-3.55-1.72 0-2.992.826-3.64 2.077l-.045-.023c.157-.647.201-1.585.201-2.255V8.844h-2.858v16.3h2.858v-5.359c0-1.942 1.14-3.595 2.59-3.595 1.05 0 1.363.693 1.363 1.854v7.1h2.835zm-11.879-.313l-.224-2.434c-.602.313-1.429.47-2.188.47-1.898 0-2.634-1.296-2.634-3.194 0-2.098.915-3.438 2.724-3.438.715 0 1.406.178 2.01.402l.29-2.479a8.63 8.63 0 0 0-2.278-.312c-3.93 0-5.738 2.657-5.738 6.118 0 3.773 1.92 5.38 5.001 5.38 1.184 0 2.278-.222 3.037-.513zm-12.973.313h2.858V14.047h-2.858v11.097zm3.216-14.268c0-.96-.804-1.719-1.786-1.719s-1.764.781-1.764 1.72c0 .96.782 1.74 1.764 1.74s1.786-.78 1.786-1.74zm-5.068 2.925c-1.92-.156-2.992 1.072-3.528 2.478h-.045c.134-.78.2-1.674.2-2.232h-2.7v11.097h2.857V20.61c0-3.081 1.028-4.42 3.082-3.996l.134-2.814zm-8.396 11.275v-2.299a5.474 5.474 0 0 1-1.384.178c-.982 0-1.317-.401-1.317-1.83v-4.868h2.701v-2.21h-2.701V9.872l-2.858.759v3.416h-1.898v2.21h1.92v5.627c0 2.59.76 3.483 3.215 3.483.782 0 1.608-.112 2.322-.29zm-8.484-3.37c0-3.596-4.555-2.792-4.555-4.6 0-.693.536-1.139 1.652-1.139.693 0 1.43.111 2.055.29l.089-2.255c-.67-.111-1.384-.2-2.032-.2-3.126 0-4.711 1.607-4.711 3.55 0 3.773 4.488 2.656 4.488 4.621 0 .737-.715 1.183-1.809 1.183-.848 0-1.697-.156-2.389-.334l-.067 2.344a15.24 15.24 0 0 0 2.322.201c3.037 0 4.957-1.474 4.957-3.662zM77.898 20.5c0 1.339-.96 2.679-2.367 2.679-.826 0-1.317-.47-1.317-1.183 0-.894.67-1.764 3.684-1.764v.268zm2.925 4.644a62.029 62.029 0 0 1-.067-2.858v-4.622c0-2.412-1.005-3.863-4.577-3.863-1.43 0-2.858.29-3.974.692l.245 2.39c.938-.536 2.277-.871 3.282-.871 1.608 0 2.166.603 2.166 1.764v.602c-3.774 0-6.408 1.407-6.408 4.064 0 1.786 1.16 2.925 3.17 2.925 1.653 0 3.015-.87 3.55-2.121l.023.022c-.09.58-.112 1.228-.112 1.876h2.702zM66.645 20.5c0 1.339-.96 2.679-2.367 2.679-.826 0-1.317-.47-1.317-1.183 0-.894.67-1.764 3.684-1.764v.268zm2.925 4.644a61.69 61.69 0 0 1-.067-2.858v-4.622c0-2.412-1.005-3.863-4.577-3.863-1.43 0-2.858.29-3.975.692l.246 2.39c.938-.536 2.278-.871 3.282-.871 1.608 0 2.166.603 2.166 1.764v.602c-3.773 0-6.408 1.407-6.408 4.064 0 1.786 1.16 2.925 3.17 2.925 1.653 0 3.015-.87 3.55-2.121l.023.022c-.09.58-.112 1.228-.112 1.876h2.702zm-10.874 0l-2.344-15.072H52.98l-2.59 7.793c-.38 1.116-.626 1.964-.85 3.126h-.044a23.616 23.616 0 0 0-.826-3.17l-2.523-7.749h-3.394l-2.322 15.072h2.947l.849-6.944c.178-1.317.335-2.5.424-3.84h.045c.178 1.205.558 2.567.96 3.795l2.3 6.989h2.88l2.389-7.57c.38-1.183.625-2.255.826-3.215h.045c.111 1.05.245 2.166.469 3.595l1.072 7.19h3.058z"
       id="path302" />
    <path
       fill="url(#a)"
       d="M.563 14.962c.799 4.111 1.965 7.469 6.657 9.77 0 0-7.22-21.392-.67-24.578 0 0-8.826.21-5.987 14.808"
       transform="translate(.25 .535)"
       id="path304" />
    <path
       fill="url(#b)"
       d="M8.12 0c-.838.003-2.055.117-2.935.431.727-.21 8.37-1.88 5.231 16.777l4.516-1.28c.274-2.035 2.507-8.614-.009-12.996C13.661.735 10.541.008 8.198 0H8.12z"
       transform="translate(.25 .535)"
       id="path306" />
    <path
       fill="url(#c)"
       d="M10.416 17.208l4.516-1.28C20.384.91 28.217 2.585 28.217 2.585l-1.759-1.132a7.773 7.773 0 0 0-1.738-.2c-8.153.002-13.596 13.207-14.304 15.955"
       transform="translate(.25 .535)"
       id="path308" />
    <path
       fill="url(#d)"
       d="M24.686 1.254c1.031.035 4.003.66 2.633 6.88-.766 3.48-2.486 7.077-4.74 11.086-3.444 6.124-4.524 9.613-5.066 16.112l4.838.518c.21-5.704 1.79-9.956 4.366-15.156 2.667-5.384 3.79-8.402 4.247-10.996.446-2.534-.415-8.444-6.194-8.444h-.084"
       transform="translate(.25 .535)"
       id="path310" />
    <path
       fill="url(#e)"
       d="M2.913 21.253s6.202 11.992 17.331 7.95c6.545-2.377 10.616-5.805 10.616-5.805l.547-4.603S13.222 33.521 2.913 21.253"
       transform="translate(.25 .535)"
       id="path312" />
  </g>
</svg>
