<?xml version="1.0" encoding="UTF-8" standalone="no"?>
<!-- Generator: Adobe Illustrator 19.2.1, SVG Export Plug-In . SVG Version: 6.00 Build 0)  -->

<svg
   version="1.1"
   id="layer"
   x="0px"
   y="0px"
   viewBox="0 0 623.66809 250.63124"
   xml:space="preserve"
   sodipodi:docname="universitatsklinikum-freiburg-logo-vector.svg"
   inkscape:version="1.2.2 (b0a84865, 2022-12-01)"
   width="623.66809"
   height="250.63124"
   xmlns:inkscape="http://www.inkscape.org/namespaces/inkscape"
   xmlns:sodipodi="http://sodipodi.sourceforge.net/DTD/sodipodi-0.dtd"
   xmlns="http://www.w3.org/2000/svg"
   xmlns:svg="http://www.w3.org/2000/svg"><defs
   id="defs9989" /><sodipodi:namedview
   id="namedview9987"
   pagecolor="#ffffff"
   bordercolor="#000000"
   borderopacity="0.25"
   inkscape:showpageshadow="2"
   inkscape:pageopacity="0.0"
   inkscape:pagecheckerboard="0"
   inkscape:deskcolor="#d1d1d1"
   showgrid="false"
   inkscape:zoom="1.5291411"
   inkscape:cx="293.30191"
   inkscape:cy="206.32498"
   inkscape:window-width="1728"
   inkscape:window-height="1051"
   inkscape:window-x="0"
   inkscape:window-y="38"
   inkscape:window-maximized="0"
   inkscape:current-layer="layer" />
<style
   type="text/css"
   id="style9960">
	.st0{fill-rule:evenodd;clip-rule:evenodd;fill:#7F7F7F;}
	.st1{fill-rule:evenodd;clip-rule:evenodd;fill:#BE0028;}
	.st2{fill-rule:evenodd;clip-rule:evenodd;fill:#004B96;}
</style>
<g
   id="g9964"
   transform="translate(-15.431897,-201.48572)">
	<path
   class="st0"
   d="m 135.3,420 v 0 c 0,-1.2 -1,-1.2 -0.8,-2.5 -1.4,-0.2 -2.1,-0.6 -2.7,-1.4 0.8,-1.8 3.3,-1.9 3.3,-4.7 -0.6,-1 -1.4,-1.6 -1.2,-3.3 -1.4,-0.2 -2.9,-1.2 -1.7,-2.5 -0.6,0.2 -1.2,0.2 -1.6,0.2 -0.6,-0.2 -1.2,-0.2 -1.7,0.2 0.4,0.2 1.4,0.2 1.2,1 -1.2,1 -2.7,1.6 -2.7,3.5 0.8,-0.2 1.2,-0.8 2.3,-0.6 0.4,-1.2 0.2,-2.7 1.7,-2.5 0.8,0.6 1,1.8 0.8,3.1 1.4,0 2.1,0.2 2.3,1.4 -0.6,0.6 -1,1.2 -2.3,1.2 -0.6,0.6 0,2.1 -1.4,2.1 -1.4,-0.8 -1.2,-3.1 -3.5,-3.1 0,1 0.4,1.6 0.4,2.5 1,0.6 2.1,0.6 2.5,1.6 -0.4,0.6 -1,1.2 -2.1,1 -0.2,1.2 -0.4,2.3 -1.2,2.9 -0.4,-0.2 -0.6,-0.4 -1.2,-0.4 0,-1 -0.6,-1.6 -0.8,-2.5 -1.6,0.2 -2.5,-0.2 -2.7,-1.4 0.2,-1.2 1.6,-1.2 2.7,-1.4 0.4,-1.2 0.4,-2.7 1.9,-2.5 -0.2,-0.8 0.4,-0.8 0.4,-1.4 -2.1,0.2 -1.9,-1.8 -2.5,-2.9 -1.2,0.2 -1.7,-0.4 -2.1,-1 -0.4,-0.6 -1,-1.2 -2.1,-1 1.2,1.8 -1,1.8 -1.2,2.9 0.4,0.4 0.4,1 1,1 0.2,-1 0.6,-1.9 1.6,-2.1 0.8,0.6 1.4,1.2 1.4,2.5 1.4,-0.2 2.1,0.4 2.5,1.2 -0.4,1.2 -1.7,1.4 -3.1,1.6 -0.2,1.4 -1,2.1 -1.4,3.5 0.8,0.8 1.7,1.2 1.7,2.7 1.6,0 2.3,0.8 3.3,1.4 3.1,0.2 3.1,-2.7 5,-3.7 0.8,0.4 1.2,1.4 1.2,2.5 1.4,-0.3 2.2,0.3 2.8,0.9 m 21.5,-12.5 v 0 c -0.4,0.8 -1.6,0.6 -2.1,1.2 v 1.8 c 0.8,-0.2 1.2,-0.8 2.1,-0.6 -0.2,-1 0.4,-2.2 0,-2.4 m 1.4,-1.5 v 0 h -1.4 c -0.2,0.6 0.6,0.6 0.2,1.4 1,-0.1 1.4,-0.5 1.2,-1.4 m -27,38.4 v 0 c 1.9,0.2 1.6,2.7 3.9,2.5 -0.4,-1.6 -2.1,-1.8 -2.9,-3.1 0.6,-1.6 2.7,-1.8 2.9,-3.7 -0.2,-0.4 -0.6,-0.2 -1,0 -0.2,0.2 -0.6,0.2 -1,0 -0.6,1.2 -0.4,2.9 -1.9,2.9 -0.6,-0.6 -1,-1.2 -1,-2.3 -1,-0.8 -2.9,-0.6 -2.9,-2.1 0.6,-0.6 1.4,-1.4 2.7,-1.2 0.6,-0.6 0.4,-2.1 1.2,-2.5 1,0 1.4,0.8 1.6,1.6 0.4,0.8 0.8,1.6 1.9,1.6 0.4,-1.4 -1.2,-2.7 -2.5,-3.3 0,-1 0.6,-1 1.2,-0.8 0.4,0 0.8,0.2 0.8,-0.2 v -0.6 c -0.2,0 -0.2,0.2 -0.2,0.4 -0.4,-0.6 0.6,-1.9 0.8,-2.9 -1.9,0.2 -2.1,1.9 -2.9,2.9 -1.9,-1 -2.5,-2.9 -4.5,-3.7 -2.1,0.4 -3.1,2 -4.1,3.7 1.7,0.8 2.9,-1.6 3.5,-2.9 h 1 c 0,2.1 1.7,2.5 2.9,3.5 -1.4,1.6 -2.5,3.1 -4.3,4.5 -1,-0.4 -0.6,-2.3 -1.6,-2.5 -0.8,-0.4 -1,0 -1.2,0.4 0,0.2 -0.2,0.4 -0.6,0.4 -0.2,-2.5 -1.9,-5.7 -0.6,-7.8 h 5.2 c 2.9,-0.2 5.8,-0.2 8.2,0.2 -0.2,6.8 0.8,12.3 0,18.5 -2.1,0.2 -3.9,-0.4 -5.2,-1 0,-1.2 0,-2.1 0.6,-2.5 m 8.5,-18.6 v 0 c -3.1,-0.6 -5.8,-0.4 -8.7,-0.4 -2.7,0 -5.6,0 -9.3,-0.4 2.5,-0.4 6,-0.4 9.3,-0.4 3.1,0 6.4,0.2 8.5,-0.2 0.6,-5.8 0,-13.8 0.2,-19.1 1.6,6.2 0,12.3 1,19.1 2.1,0.4 5.4,0.4 8.5,0.2 3.5,-0.2 6.8,-0.2 8.3,0.6 -7,0 -12.4,0 -16.9,0.2 -1,7 0.2,15.8 -0.6,22.6 -0.5,-6.9 -0.3,-15.5 -0.3,-22.2 m 4.5,3.4 v 0 c 2.3,-0.4 4.5,-0.4 6.6,-0.4 2.1,0.2 4.1,0.2 6.2,-0.2 1,1.8 0.2,4.9 -0.2,7 -0.8,0.2 -0.6,-0.4 -1.2,-0.4 -0.8,0.2 -0.2,1.8 -1.4,1.9 -1.2,-0.2 -1.9,-0.6 -1.7,-1.9 -1.2,-0.2 -2.3,-0.4 -2.5,-1.6 1.4,-1 2.9,-2.1 3.7,-3.5 1.7,-0.2 1,2.1 1.9,2.7 1.2,0.2 1.2,-0.6 1.2,-1.8 -1.2,-0.4 -1.9,-1.2 -2.7,-1.9 -1.9,0.8 -3.1,2.1 -4.3,3.7 -1.9,-0.4 -2.1,-2.5 -4.3,-2.7 0.2,2.1 2.9,1.9 3.5,3.9 -1.6,0.8 -3.7,1.2 -3.9,3.3 1.2,-0.2 3.3,-1.6 4.1,-3.1 1.4,1.2 2.3,2.5 3.9,3.3 -1,1.6 -3.3,1.9 -3.9,4.1 -1.7,-0.8 -2.3,-2.9 -4.1,-3.7 0.2,2.1 1.6,3.1 2.9,4.3 -0.8,1.4 -2.5,2 -2.9,3.9 1.6,-0.6 2.7,-1.4 3.3,-2.9 1.2,0 1.7,0.6 1.6,1.8 1,0 1.4,-0.6 1.7,-0.8 0,-1.4 -2.1,-0.6 -2.5,-1.6 0.4,-1.4 1.7,-1.6 3.1,-1.9 0.4,-0.6 0.4,-1.9 1.2,-2.1 5.2,3.1 -5.4,9.7 -9.3,9.2 -0.4,-5.8 0.2,-11.8 0,-18.6 m 10.9,8 v 0 h 1 c 0.6,0.4 0,1.2 0,1.9 -0.8,-0.4 -1.6,-1.2 -1,-1.9 m -3.9,-16.4 v 0 c -2.1,0 -4.3,0 -6.4,0.2 -1.2,-4.1 -0.2,-10.5 -0.6,-15.6 2.1,-0.4 2.9,0.4 3.9,1.2 -0.8,1.6 -2.3,2.7 -2.9,4.7 1,0 1,-1.2 2.5,-0.8 -0.2,-1.6 0,-2.7 1.4,-2.9 0.6,0.8 1.4,1.4 1,2.9 0.4,0.2 0.8,0.2 1.4,0.2 0.6,0 1.2,0 1.2,0.6 -0.8,1.9 -2.7,2.5 -3.5,4.5 -1.9,-0.6 -1.6,-3.5 -3.9,-3.7 0.4,2.1 2.1,2.9 2.9,4.5 -1.4,0.6 -2.3,1.6 -2.7,3.1 1.7,0.8 2.1,-1.9 3.3,-2.7 1.6,0.8 1.9,2.7 3.9,3.1 0.6,-0.4 -0.6,-1.8 -0.8,-2.5 -1,0 -1.6,-0.4 -2.1,-0.6 -0.2,-1.6 1,-2 2.1,-2 0.8,-0.8 0.4,-2.7 1.9,-2.5 0.8,0.2 1.2,0.8 1.2,2 0.8,0.6 2.7,0.2 2.7,1.4 -1.4,1.2 -2.9,2.1 -3.3,4.3 2.1,-0.8 2.7,-3.1 4.3,-4.3 -1.4,-2.3 -3.3,-3.7 -6,-4.7 0,-2.1 -1.7,-2.7 -2.9,-3.7 -0.2,-1 0.4,-1 1,-1.2 -0.2,-0.8 -0.8,-0.6 -1.4,-0.4 -0.6,0.4 -1,0.6 -1.4,-0.2 3.9,-0.4 9.7,-0.4 13.6,0 -0.2,1.2 -1,2 -1.4,3.1 -0.2,-0.6 0,-1.2 -1,-1.4 0.8,3.3 0,8 -0.6,13.3 -2.6,0.1 -5.1,0.1 -7.4,0.1 m -15,0 v 0 h -5.6 c -2.9,0.2 -5.8,0.2 -9.3,0 -0.2,-6 -2.1,-10.3 -3.3,-15.4 6,-0.6 13.2,-0.2 17.9,0 -0.2,6 0.3,9.5 0.3,15.4 m -12.6,16.6 v 0 c 1.4,0.8 2.9,1.8 1.4,3.3 -0.8,-0.8 -1.8,-2.4 -1.4,-3.3 m 1.6,5.2 v 0 c 1.9,5.8 12.2,7.8 19.6,6.6 8.3,-1.6 12,-7.4 13.4,-15.2 1.7,-9.8 1.2,-21.3 5,-29.6 -16.9,-1 -29.9,-0.8 -47.2,-0.4 5.8,9.7 2.7,28.5 8.7,38.2 1,-0.6 0.6,-2.5 2.5,-2.3 0.8,0.2 0.8,1.2 0.8,2.3 1.2,0.2 2.7,0.2 2.7,1.6 -0.4,0.8 -1.6,1 -1.9,1.8 -1.3,-0.6 -2.6,-3.8 -3.6,-3 m 42.5,-3.5 v 0 c -0.2,-1.9 1,-2.3 1.2,-3.9 -2.9,-1.6 -4.7,-10.5 -1.2,-12.5 2.5,2 3.1,5.7 3.1,10.1 1.2,1.6 2.9,2.3 4.3,3.7 0.6,-1 0.8,-2.5 1,-3.9 -3.5,-1.2 -3.1,-6.6 -3.5,-10.7 -1.7,-0.8 -2.5,-2.5 -4.9,-2.9 -0.4,1.9 -1.2,3.1 -2.1,4.3 -1.6,-0.6 -1.9,-2.1 -3.7,-2.5 -0.2,2.1 -1.6,3.1 -1.9,4.7 0.8,0.2 1,-0.4 1.9,-0.2 1.6,3.1 2.1,7 2.1,11.5 1.6,0.6 2.3,1.7 3.7,2.3 m 19,-17.5 v 0 c -2.7,-0.2 -2.9,-2.7 -3.7,-5.1 1.4,-1 3.5,-1.4 3.7,-3.5 1.8,1.7 0.6,6.6 0,8.6 m 0.8,0 v 0 h 3.1 c 0.8,1.4 2.1,3.7 1.7,5.5 -2.5,-0.6 -3.9,1.2 -5,1 -0.2,-2.4 0.4,-4 0.2,-6.5 m -0.8,3.5 v 0 c 0.4,2.1 -0.8,5.3 0.2,6.4 0.8,-2.1 3.7,-2.1 6.2,-2.5 0.6,-4.9 1,-7.8 -1.9,-10.5 -1.2,-0.2 -1.7,0.4 -2.7,0.4 -1.4,-2.1 0.4,-5.7 -1.2,-7.8 -1.4,1.6 -2.5,2.9 -5.6,2.7 -0.6,4.9 0.2,6.4 1.2,10.3 1.7,0 2.8,0.2 3.8,1 m -4.6,-88.6 v 0 1.2 h 0.8 c -0.1,-0.8 -0.3,-1.4 -0.8,-1.2 m 2.3,-6.8 v 0 h -1.6 c 2.5,0.8 3.3,5.3 -0.8,4.9 2.8,3.1 5.5,-3.3 2.4,-4.9 m 3.1,1.8 v 0 c 0,-1 -1,-2.1 -1.6,-1.4 0.8,0 0.6,1.4 1.6,1.4 m 22.9,12.3 v 0 c 1.7,-1.2 3.9,-0.8 5.4,-0.6 -1.3,-1.6 -4.8,-1.8 -5.4,0.6 m -8.9,0 v 0 c 0.8,-1.9 2.9,-0.8 3.9,0 0,-2.4 -5.5,-1.6 -3.9,0 m -3.1,-2.2 v 0 c -2.1,0.2 -3.9,-3.9 -0.8,-4.9 3.5,-0.9 3.3,4.7 0.8,4.9 m 2.5,-3.7 v 0 c -0.4,-1.6 -3.5,-2.5 -5.2,-0.8 -2.4,6.1 6.9,6.3 5.2,0.8 m -2.1,-4.5 v 0 c 1,1.6 2.3,4.5 4.1,4.5 -1.4,-1.4 -2.4,-3.3 -4.1,-4.5 m -1.4,9.8 v 0 c -1.2,-1 -2.3,-3.5 -3.7,-3.3 1.2,0.9 2.1,3.7 3.7,3.3 m -6.4,0.4 v 0 c 1.4,-1.8 3.9,0.2 4.5,-0.4 -1,-1.2 -3.9,-1.6 -4.5,0.4 m -8.9,-1.4 v 0 c 1.7,-0.4 2.1,0.6 3.3,1 0.2,-1.6 -2.8,-2.4 -3.3,-1 m 5.8,0.8 v 0 c -1.4,-1.2 -2.1,-2.7 -3.7,-3.7 0.6,1.5 2.1,3.9 3.7,3.7 m 0.8,-2.4 v 0 c -1.7,0.4 -3.9,-2.7 -1.2,-3.9 3.7,-1.3 3.5,3.5 1.2,3.9 m 1.3,-4.4 v 0 c -2.9,-1.4 -5.2,1.4 -3.9,4.3 0.8,0.6 1.9,1 3.7,0.8 1.2,-0.9 1.6,-4 0.2,-5.1 m 2.5,1.7 v 0 c -1.2,-1.8 -2.3,-3.5 -3.9,-4.9 0.3,1.8 2.6,3.5 3.9,4.9 m 0,-2.5 v 0 c -0.8,-1 -1.9,-1.4 -1.6,-3.3 0.8,-1.2 2.7,-1.9 4.1,-1 0.8,2.3 -0.3,4.1 -2.5,4.3 m 3.5,-3.9 v 0 c -0.6,-1.4 -2.3,-1.8 -3.7,-1.2 -4.1,1.6 -1,6.2 1.9,5.3 1.1,-0.2 2.4,-2.4 1.8,-4.1 m 2,0.2 v 0 c -0.6,-0.2 -1,-2.1 -1.7,-1.2 0.3,0.4 0.9,1.9 1.7,1.2 m 2.1,-0.8 v 0 c -3.9,2.7 -7.6,8.2 -10.9,12.3 4.1,-3.5 7.4,-8.2 10.9,-12.3 m 3.9,0 v 0 c 4.7,2.5 -2.5,7 -3.1,2.5 -0.2,-1.9 1.9,-2.1 1.2,-3.1 -1,1 -2.1,1.8 -1.6,3.7 1.4,5.5 9.7,-2.1 3.5,-3.1 m 3.9,0.8 v 0 c 0.2,-0.6 -0.6,-1.6 -1,-0.8 0.4,0 0.2,1.2 1,0.8 m 1.5,4.8 v 0 c 2.1,1.8 0.8,4.9 -1.6,4.7 -2.8,0 -3.2,-5.6 1.6,-4.7 m -3.1,-0.5 v 0 c 1,-2.1 2.9,-3.3 3.9,-5.7 -3.1,3.1 -5.8,6.4 -8.3,10.1 -1.2,0.6 -3.3,2.5 -2.3,3.3 1.4,-1.4 2.1,-3.3 3.9,-4.1 1,1.4 2.1,2.9 3.7,3.9 -0.8,-1.9 -2.5,-2.9 -3.7,-4.5 0.8,-0.4 1.4,-2.3 1.9,-1.8 -1.2,2.7 1.2,4.7 2.9,4.5 4.6,-0.1 2.5,-8.1 -2,-5.7 m 2.5,-2.6 v 0 c 0.8,1.6 2.3,3.9 3.9,3.9 -1.7,-0.8 -1.7,-3.5 -3.9,-3.9 m 5.1,1.4 v 0 c -2.1,0.6 -4.3,-2.7 -1.7,-3.9 3.1,-1.6 3.8,3.3 1.7,3.9 m 1.6,-3.7 v 0 c -3.9,-4.1 -7.6,3.5 -3.1,4.3 2.3,0.4 4,-1.2 3.1,-4.3 m -0.2,-0.8 v 0 c 0.4,0.8 1.2,1.2 1.9,1.8 0,-1.2 -1.6,-3 -1.9,-1.8 m 5.2,0 v 0 c 0,-0.4 0,-0.8 -0.2,-0.8 -3.9,4.7 -8,9.2 -11.5,14.2 4.3,-3.8 7.4,-9.3 11.7,-13.4 m -34.4,28.9 v 0 c -1.4,0.2 -1.7,1 -1.9,2.3 1.2,-0.2 1.4,-1.4 1.9,-2.3 m 2.9,5.6 v 0 c -3.9,1.2 -4.1,-6 0.8,-3.9 1.2,1.6 0.4,3.5 -0.8,3.9 m -1.5,-4.7 v 0 c -3.1,1 -2.1,5.7 1,5.7 3.3,-0.2 3.7,-7 -1,-5.7 m 5.4,1.2 v 0 c -0.8,-0.6 -1,-1.6 -1.9,-1.8 0,0.8 1.2,2.4 1.9,1.8 m -4.2,8.4 v 0 c 0.8,1.4 2.3,3.9 3.9,3.5 -1.4,-1 -2.2,-2.9 -3.9,-3.5 m 6.9,-0.6 v 0 c -1.4,2.3 -4.7,1.4 -4.5,-0.8 0.3,-2.7 4.5,-2.7 4.5,0.8 m -1.1,2 v 0 c 1,-0.8 1.6,-1.9 1.9,-3.1 -2.9,-6.5 -10.3,3.2 -1.9,3.1 m -0.6,-8.2 v 0 c 1,1.9 2.3,3.5 4.1,4.5 -1,-1.8 -2.4,-3.4 -4.1,-4.5 m 7,-0.6 v 0 c -0.6,2.9 -4.3,2.3 -4.5,0 -0.2,-2.7 3.9,-2.9 4.5,0 m -2.7,-2.7 v 0 c -4.3,0.8 -2.1,6.4 1.4,5.3 2.6,-0.9 1.7,-5.9 -1.4,-5.3 m 4.6,1.7 v 0 c 0,-0.8 -1,-2.1 -1.6,-1.6 0.9,0.4 1,1.2 1.6,1.6 m -0.2,11.9 v 0 c -0.8,-1.4 -2.3,-3.7 -3.7,-3.5 1.6,1 2.2,2.7 3.7,3.5 m 2.8,-4.1 v 0 c -0.6,0.8 -2.7,1.2 -3.5,0.2 -1.8,-3.5 4.4,-4.7 3.5,-0.2 m -2,-3.7 v 0 c -3.5,0.4 -2.7,5.5 -0.2,5.7 3.3,0.3 4.1,-6.1 0.2,-5.7 m 4.5,1.4 v 0 c -1.4,-1.2 -2.1,-2.9 -3.9,-3.9 1,1.5 2.5,3.9 3.9,3.9 m 2.5,-5.1 v 0 c 0.6,5.7 -7.8,-0.2 -2.5,-1.6 0.9,-0.2 2.3,-0.2 2.5,1.6 m -5,0.4 v 0 c 0.2,1.6 1.4,2.3 4.1,2.7 6,-3.1 -4.3,-8.8 -4.1,-2.7 m 7.3,-1.2 v 0 c -0.2,-0.8 -1.4,-2.1 -1.9,-1.8 0.6,0.6 0.8,1.8 1.9,1.8 m 2.8,5.7 v 0 c -0.2,-0.4 -0.6,-0.6 -1.2,-0.8 0.6,0.2 0.8,0.4 1.2,0.8 m -1.2,-0.8 v 0 c -4.3,-2.1 -4.3,5.5 -0.4,5.1 1.9,-0.4 2.5,-2.7 1.6,-4.3 0.8,2 -3.1,5.7 -4.1,2 -0.6,-1.8 1.1,-3.6 2.9,-2.8 m 3.5,0.8 v 0 c -1.4,-1.2 -2.1,-2.7 -3.7,-3.7 0.8,1.5 2.3,3.7 3.7,3.7 m 4.1,-5.3 v 0 c -0.2,-1.2 -1.4,-2.9 -2.5,-2.3 1.1,0.4 1.5,1.7 2.5,2.3 m -5.5,-0.6 v 0 c 1.4,0 0.8,-0.8 1.9,-0.6 5.5,0.6 -3.8,8.6 -1.9,0.6 m 3.9,3.3 v 0 c 0.4,-1 0.2,-2.5 0,-3.7 -6,-4.3 -5.8,7.8 0,3.7 m 1.4,0.2 v 0 c -0.8,1.4 -1,4.3 -2.9,3.7 0.6,1 0,2 -0.4,2.5 -2.9,-0.6 -2.3,4.3 -5.4,4.3 2.6,-3.6 5.2,-7.5 8.7,-10.5 m -25.9,10.6 v 0 c -0.2,-3.1 5.8,-3.1 4.3,1 -1.5,1.5 -4.1,0.5 -4.3,-1 m 28,-17.6 v 0 c -1.2,7.8 -6.6,10.5 -10.9,15.8 -0.8,-2.1 -2.7,-3.1 -4.1,-4.5 1.9,-3.7 5.2,-6.2 7.2,-9.8 -4.7,4.1 -8.3,9.9 -12.6,15 -1.2,1.6 -2.3,4.3 -4.7,3.7 6.6,-2.7 -2.9,-9 -3.3,-3.1 -0.2,1.2 1.2,1.8 1,2.5 -1.7,-0.2 -1.7,-1.9 -3.3,-1.6 3.9,-5.7 8.9,-10.3 12.6,-16.2 -5,4.7 -8.5,10.7 -13.4,15.6 -2.1,-1.2 -4.1,-2.5 -4.9,-4.9 2.9,-3.3 6,-6.6 8.3,-10.3 -3.1,2.1 -4.9,5.7 -7.4,8.4 -1.2,-0.2 -1.4,-1.2 -2.3,-1.4 -1,1 2.5,1.4 1.4,2.5 -1.9,0 -2.5,-2.9 -3.3,-4.9 -0.8,-1.9 -2.1,-4.3 -1.4,-6.4 13.3,1.2 28.5,1 41.1,-0.4 m 3.1,-0.6 v 0 c -14.6,-5.7 -4.5,-24.2 4.9,-28.3 0.3,10.4 -2.4,19.9 -4.9,28.3 m -2.5,-24.5 v 0 c -0.2,1.2 -1.4,1.4 -1.6,2.5 -5.2,-0.4 -0.7,-6.4 1.6,-2.5 m -4.7,5.2 v 0 c 0,1.2 0,2.1 -0.4,2.7 -5.2,3 -4,-6.4 0.4,-2.7 m 9.7,-8.9 v 0 c -1.6,0.6 -2.3,1.9 -3.9,2.5 -0.2,-0.8 -0.2,-1.4 -1.2,-1.4 -0.6,0.6 1.4,0.8 1,2.1 -2.9,-4.7 -8.3,2.9 -3.1,3.1 0,0.8 -1,0.6 -1,1.4 -1.4,-0.2 -1.4,-1.9 -2.7,-2.5 0,1.9 2.5,2.3 1.9,4.1 -3.3,-5.8 -8.5,4.5 -1.9,3.3 0.8,0.4 -0.6,1.6 -0.8,1.9 -1.6,-1 -2.3,-2.5 -3.7,-3.7 0,1.6 2.7,2.9 3.3,4.9 -4.3,0.4 -9.1,0.8 -14,0.8 -7.6,0 -15.5,-0.6 -21.9,-1.8 -0.2,-3.1 2.7,-5.1 4.5,-7.2 1.6,-1.9 2.9,-3.7 4.1,-5.7 -2.9,1.9 -5.4,6.8 -8.5,9.6 0.4,-3.7 -0.2,-8.8 1.4,-11.5 14.2,1.9 31.8,2.3 46,-0.6 0.5,0.1 0.5,0.3 0.5,0.7 m -47.7,16.7 v 0 c 11.3,0.6 24.5,0.8 36.1,0.4 -0.6,5.7 3.5,8.2 5,10.9 -12.8,1.6 -27.8,1.6 -40.6,0.6 -0.8,-3.3 -1.4,-6.8 -1.2,-10.9 0.1,-0.6 0.3,-0.8 0.7,-1 m 24.2,29.3 v 0 c 0.4,-1.4 1.2,-2.5 3.5,-2.1 0.4,0.6 1,1.4 0.8,2.7 -1.4,1.5 -3.5,1.1 -4.3,-0.6 m -4.6,3.5 v 0 c 1.9,-3.5 4.7,-6 7,-9.2 2.1,1 2.9,3.3 4.7,4.5 -0.6,1.8 -1.4,2.9 -3.1,3.5 2.1,-2 0.8,-6 -2.5,-5.5 -2.7,0.8 -2.7,6 1.7,5.5 -0.6,0.6 -1.4,1 -2.7,0.8 -0.6,-1 -1.2,-1.9 -2.3,-2.5 -0.6,0.8 1.9,1.8 1.2,2.9 -1.5,-0.6 -2.7,-0.2 -4,0 m -40,39.2 v 0 c 19.2,-3.5 34.6,-13.6 46.6,-26.7 11.8,-12.7 21.4,-29.6 24.1,-50.3 3.3,-23.4 -2.1,-43.5 -11.5,-59.5 -9.1,-15.8 -21.5,-28.3 -38.1,-36.3 0,-0.2 0,-0.4 -0.2,-0.2 -0.4,0 -0.4,0.2 -0.6,0.6 0.4,0 0.4,0.2 0.6,0.2 21.4,11.1 37.1,29.2 45,54 2.5,8 5.2,17.4 4.5,26.9 -3.9,0.6 -7.6,1.6 -11.5,1.9 -2.5,0.2 -5,-0.4 -7.4,-0.2 -1,0 -1.7,0.8 -2.7,0.8 -9.3,0.4 -19.2,-1.2 -28.7,-2 -3.9,22.8 -1.9,52.8 20.4,53.4 8.3,0.2 14.9,-4.9 19.4,-10.1 -5.6,12.3 -14.8,20.9 -23.9,29.8 -10.2,7.7 -22.6,13.2 -36,17.7 m 34.9,-7.8 v 0 c 1.7,-1.4 4.1,-1.9 4.5,-4.5 1.9,1.6 1.2,5.8 1.7,9 -4,1.5 -4.4,-3 -6.2,-4.5 m 8.8,3.7 v 0 c 1,1.2 2.1,2.1 2.1,4.1 -2.1,-0.2 -2.1,1.8 -3.7,2.3 0.2,-1.9 -2.1,-6.8 1.6,-6.4 m -10.5,-2 v 0 c 1.4,1.8 2.5,3.7 3.5,5.8 1.6,0 3.7,-0.8 4.7,0.2 0.6,2 0.2,4.7 1.2,6 0.4,-2.5 2.3,-3.5 5,-3.7 -0.6,-2.1 -0.2,-4.1 0.2,-5.8 -1.4,-1.2 -2.3,-2.7 -3.3,-4.3 -1.2,0 -1.7,0.4 -3.1,0.2 -0.8,-2.3 -0.4,-6 -1.7,-8 -0.8,2.3 -2.5,3.9 -5.4,4.1 -0.1,2.4 -0.7,3.8 -1.1,5.5 m 2.3,9 v 0 c -1.7,3.1 2.9,4.1 3.1,1 -0.8,-1 -1.5,-1.4 -3.1,-1 m 23.5,-14 v 0 c -0.4,0.8 -1.4,0.8 -1.6,1.9 0.2,0.8 0.4,1.6 0.6,2.1 1.7,-0.2 1.4,-2.3 3.1,-2.1 1.6,0.4 1.9,2 3.3,2.5 0.4,-1.6 -0.8,-3.3 -0.2,-5.1 -4.5,-2.1 -6.6,-6.8 -11.3,-8.8 0.2,-3.7 -2.9,-2.5 -5.4,-1.9 -0.2,1.4 0.2,1.9 0.2,3.1 1.7,0 2.3,-0.4 3.9,0 2.2,3 5.7,4.7 7.4,8.3 m 14,-17.2 v 0 c -1.2,1 -1.2,2.9 0.2,3.5 0.8,-0.8 0.8,-2.3 2.3,-2.7 1.4,0.4 2.1,1.6 3.5,2 -0.8,-2.3 -2.7,-3.3 -3.1,-6.2 -2.7,-0.8 -5.6,-2.5 -8.3,-4.5 -1.2,-1 -1.9,-2.5 -3.5,-2.7 -1.4,-0.2 -2.9,0.8 -4.5,1.2 0.4,1.2 0.8,2.1 1.4,3.3 5.6,-1.7 8.9,3.2 12,6.1 m 11.8,-13.3 v 0 c 0.6,2.7 -2.1,4.1 -0.4,6.2 1.6,-0.8 1.7,-3.1 2.5,-4.9 -1,-1.4 -1.9,-2.7 -2.5,-4.5 -6.4,-0.8 -10.9,-3.7 -15.1,-6.6 -0.8,0.6 -1.9,0.8 -2.7,1.4 0.2,1.4 1.2,1.9 1.6,3.1 6.4,0.4 10.1,3.9 14.6,6.4 0.5,-0.5 1.2,-0.9 2,-1.1 m 3.5,-30 v 0 c -2.9,1.9 -8.9,0.4 -12.4,0 0.8,-4.5 12.2,-3.9 12.4,0 m 0.6,-1.7 v 0 c 0.8,-1.2 2.3,-1.6 2.9,-2.7 -0.6,-1 -1.2,-2 -2.7,-2 -2.5,2.1 -8,0.4 -11.6,0.6 -1.4,1.2 -2.7,2.5 -3.9,4.1 1.6,1.6 3.3,2.9 4.5,5.1 3.7,-0.4 7,0.2 10.3,1.2 1,-1.2 2.5,-1.8 3.3,-3.1 -0.9,-1.3 -2.4,-1.7 -2.8,-3.2 m 0.8,-21.3 v 0 c 0.8,-1.8 2.7,-2.3 3.7,-3.9 -1,-0.8 -2.1,-1.4 -3.7,-1.6 -2.1,5.5 -13.4,-0.8 -15.1,4.5 2.5,3.7 12.4,-2.1 15.3,2.9 -1.9,2.7 -8.5,1.6 -12.4,1.4 -1,0.8 -2.1,1.6 -2.5,2.7 1.2,0.6 2.1,1.4 3.3,1.8 1.6,-2.9 8.9,-1.6 11.6,-0.8 1.2,-1.4 2.9,-2.1 3.7,-3.7 -1.4,-1 -3.1,-1.7 -3.9,-3.3 m -13.8,-12.7 v 0 c 2.3,-5.5 14.2,-0.2 15.1,-6.2 -1.4,-1.4 -3.3,-1.6 -4.5,0 -3.9,0.4 -7.2,1.4 -11.5,1.4 -0.2,1.9 -1.7,2.3 -1.9,4.1 1,1.4 3.3,1.4 3.7,3.3 -0.8,1.2 -2.1,1.9 -2.9,3.1 1.2,0.4 1.9,1 2.9,1.6 1.4,-0.4 1.4,-2 2.5,-2.5 2.9,-0.2 7,-1 10.1,-0.2 0.8,-1.4 1.9,-2.1 2.9,-3.3 -1,-0.6 -1.7,-1.2 -2.9,-1.6 -3.4,1.9 -11,3.4 -13.5,0.3 m 7.4,-22.4 v 0 c 0.4,-1.8 1.7,-2.5 2.1,-4.3 -1.6,-0.6 -4.1,-0.6 -4.7,-2.3 0.2,-1.6 1.4,-2.1 1.9,-3.5 -1.2,-0.6 -2.3,-1 -3.9,-1 -1.9,3.7 -7.6,5.1 -11.5,5.7 -0.6,1.2 -1,2.5 -1.4,3.9 1,0.2 1.4,0.8 2.7,0.6 1.2,-2.3 3.7,-1.9 6.8,-3.1 2.9,-1 4.7,-2.5 6,0 -2.3,5.1 -12.4,2.1 -13.4,8.6 1,0.2 1.7,0.8 3.1,0.8 2.3,-2.3 8.7,-5.8 12.6,-3.1 -2.3,4.9 -11.8,2.5 -12.8,8.8 1.4,0.2 2.5,0.6 3.5,1.2 1.6,-3.7 6.2,-4.1 10.7,-4.9 0.8,-1.6 2.5,-3.1 2.1,-4.7 -0.9,-1.1 -3.1,-1.3 -3.8,-2.7 M 225,274.1 v 0 c -0.8,-3.5 8.2,-5.1 9.5,-7 -0.2,-2.1 0.8,-2.9 0.8,-4.9 -1.9,0 -2.3,-0.2 -4.1,0 -0.2,5.7 -6.2,5.5 -9.3,8.2 0.2,2 -0.6,2.9 -0.6,4.9 1.2,0.6 3.7,0 4.3,1.4 0,1.6 -1,2.1 -0.8,3.9 1,0.2 1.7,0.4 3.1,0.2 1.6,-4.3 6.8,-5.1 11.1,-7 0.2,-1.6 1.2,-2.3 1.4,-3.9 -1.4,0 -2.3,-0.4 -3.9,-0.2 -0.9,2.7 -10.8,8 -11.5,4.4 m -29.5,-44.6 v 0 c 1.4,4.9 -2.9,9 -6.2,10.9 0.2,1.4 1.2,2.1 0.8,4.3 1.6,0.2 2.1,-0.4 3.5,-0.4 -1.4,-7.2 8.5,-8.2 5.2,-16 -1.4,0 -3,0.2 -3.3,1.2 m 1.9,-5.1 v 0 c -0.2,0.8 0.2,1 0.2,1.6 1.4,0.2 2.5,0 3.3,-0.4 v -1.8 c -1.4,0 -2.3,0.4 -3.5,0.6 m 8.9,11.7 v 0 c 2.7,4.3 -0.6,10.1 -5.4,10.1 -1.9,-5 3.5,-7 5.4,-10.1 m -3.7,11.5 v 0 c 2.1,6.6 -6.8,6.2 -5.8,0 1,-0.7 4.9,-0.7 5.8,0 m -0.5,-12.8 v 0 c -0.8,3.3 -3.5,4.9 -5.2,7.4 -0.2,1.8 0.4,2.9 0.2,4.7 -1.4,0.2 -3.7,-0.4 -4.7,0.4 1.9,0.6 1.9,3.5 3.9,4.9 2.3,1.8 6.8,2.3 9.1,0 0.4,-1.2 0.4,-2.9 0.6,-4.1 1,-0.4 1.7,-1.4 2.5,-0.4 -0.2,-2.3 1,-3.1 1.9,-4.1 1,-0.4 1.2,1.4 1.7,0.6 -1.4,-2.5 -1.6,-6.2 -2.3,-9.4 -2.5,0 -5.4,0.7 -7.7,0 m 4.8,18.3 v 0 4.1 c 1.2,0.2 2.1,0.6 3.3,0 1.2,-4.7 4.9,-6.8 8.3,-9.2 0,-2 -0.2,-3.9 0.2,-5.5 -1.6,0 -2.3,0.6 -4.1,0.4 0.1,5.1 -3.8,8.2 -7.7,10.2 m 5.3,5.6 v 0 c -0.6,1 0.6,3.3 0,4.5 1.6,-0.2 2.9,-0.4 4.3,-1 0.2,-1 -0.6,-1.2 -0.4,-2.1 3.7,-4.9 9.1,-8 13.4,-12.5 -1.9,0.2 -3.5,0 -5,-0.4 -3.6,4.3 -8.1,7.8 -12.3,11.5 m 18,-4.8 v 0 c -3.5,4.3 -8.9,6.8 -13.4,10.3 0.4,1.8 -0.6,2.9 0,4.3 1.6,0 2.7,0 3.7,0.2 v -2.3 c 3.9,-5.1 10.7,-6.8 14.6,-11.7 -1.8,-0.1 -3.5,-0.2 -4.9,-0.8 m 8,47.5 v 0 c 0.8,0.8 1.9,0.8 3.1,0.2 0,-0.4 -0.2,-0.8 0.2,-0.8 0.2,-2.3 -4.3,-2.3 -3.3,0.6 m 7.5,-4.4 v 0 c -0.6,1.2 -0.6,2.1 0.2,2.9 h 1.9 c 0.8,-1.6 0.3,-3.5 -2.1,-2.9 m 8.6,36.6 v 0 c -1.6,-0.2 -1.7,-2.3 -3.3,-2.1 -0.6,0 -1.4,1.2 -2.3,1.4 -3.1,0.6 -7,0 -9.9,-0.6 -0.8,1 -2.3,1 -2.5,2.3 0.8,1 1.7,1.8 3.1,2.5 3.6,-3.7 12.7,1.4 14.9,-3.5 m -9.7,27.1 v 0 c 2.3,-0.8 4.7,-1.6 6.2,-3.1 -1.7,-1.4 -3.1,-2.9 -3.7,-5.1 -4.7,0 -7.6,-1.6 -11.3,-2.5 -0.8,1.4 -2.7,1.4 -3.3,3.1 0.8,0.8 1.2,1.8 2.3,2.1 2.9,-3.7 9.3,0.4 13,1 -0.4,1.6 -2.1,1.6 -3.3,2.1 -1.6,-1.6 -3.9,-4.7 -6.8,-2.5 0,1 -0.2,1.9 1,1.8 0.8,-0.4 -0.8,-1.6 0.6,-1.8 3.3,0 4.5,2.2 5.3,4.9 m -0.6,5.9 v 0 c -0.4,1.2 -2.1,1 -2.5,2.1 0.6,0.6 1.2,1.2 1.4,2.1 1.2,-0.4 1.9,-1 3.5,-1 -0.4,-1.4 -1.6,-2 -1.7,-3.3 1,-0.6 2.1,-0.8 3.3,-1.2 -0.2,-1.4 -0.8,-2.5 -1.9,-3.1 -0.8,0.2 -0.8,1 -1.9,1 -3.3,-1.8 -7.4,-2.9 -10.3,-5.1 -1,0.8 -1.9,1.6 -3.5,1.9 0.2,1.4 1.4,1.8 1.7,3.1 4.3,-2.2 9,1.5 11.9,3.5 m -1.8,20.4 v 0 c 0.8,0 1.2,-0.4 1.7,-0.6 -1,-1.2 -1,-4.7 -3.1,-3.1 0.3,1.8 1.2,2.4 1.4,3.7 m -4.4,-5.2 v 0 c 1.2,-0.6 2.3,-1 3.5,-1.4 -0.2,-1.6 -1.6,-1.9 -1.6,-3.5 -0.8,0 -1,0.8 -2.1,0.6 -3.7,-1.4 -6.8,-3.5 -9.5,-5.8 -1.4,0.2 -2.1,1 -3.3,1.2 -0.2,1.4 1,1.6 0.8,2.9 5.4,-0.3 8.3,3.8 12.2,6 m -7.6,13.6 v 0 c -1.2,1 -3.9,0.6 -5.2,0.6 -2.6,-6.2 6.2,-6.2 5.2,-0.6 m -6.4,-0.9 v 0 c -2.1,-1.8 -7.2,-3.9 -5,-7.4 4.2,0.1 5.8,4 5,7.4 m 6.2,4.6 v 0 c 1.9,-4.5 0.2,-12.1 -5.2,-9.7 v -2.9 c -2.9,-0.4 -3.7,-3.5 -7.4,-2.1 0.4,1.8 0.2,2.3 0.4,4.1 -1,1 -2.7,1.2 -4.3,0.6 -0.4,0.6 0.4,2.1 0.6,3.1 4.7,0 6.8,4.5 10.1,6.8 2.1,-0.3 4.1,-0.1 5.8,0.1 M 218,418 v 0 c 0,-1.4 0.2,-2.5 -0.2,-3.5 -1.2,-0.2 -1.2,0.6 -2.3,0.4 0.2,1 0.2,2.1 0.6,3.1 z m -5.3,-5.6 v 0 c 1.2,-0.4 2.9,-0.4 4.5,-0.4 -0.2,-1.2 -0.4,-2.5 -0.8,-3.3 -4.9,-1 -6.4,-5.3 -8.5,-9 h -5 c 0.2,1.6 1,2.5 1,4.3 4.9,-0.6 6.5,5.1 8.8,8.4 M 75.3,236.5 v 0 c 1.4,3.7 5.8,5.7 4.7,10.9 -0.6,0.6 -1.4,-0.4 -2.5,-0.2 -1.7,-3.5 -4.9,-5.5 -6,-9.4 -1.7,0 -2.5,-0.8 -4.3,-0.8 -0.4,1.2 -0.2,3.1 -0.2,4.7 1,0.2 1,-0.4 1.9,-0.2 2.3,2.9 5.4,4.9 6.6,9 2.1,-0.2 3.5,0.4 5.6,0.2 0.2,-1.4 -0.4,-3.5 0.2,-4.5 1.7,0.2 2.7,1 4.7,1 0.4,-1 -0.4,-2.5 0,-4.1 -0.8,-0.6 -1,0.6 -2.1,0.4 -2.5,-3.1 -4.7,-6.6 -6.4,-10.7 -3.1,-1.9 -3.9,0.4 -3.9,3.9 0.9,0.2 0.7,-0.4 1.7,-0.2 m 4.1,107.6 v 0 c 1.6,-1 1.4,0.2 3.5,-0.6 -0.4,-1 -0.2,-1.2 0.2,-1.8 -1,0.8 -2.5,0.2 -3.3,0.6 0.9,0.7 -1.4,1.3 -0.4,1.8 m -0.2,-13.6 v 0 c -1,2.3 -1,7.8 0.6,9.4 0.2,-2.3 -0.4,-5.7 0.2,-7.6 1,1.8 0.4,4.9 1.4,6.4 0.4,-1.8 -0.6,-4.7 0.6,-5.7 1,1 0.2,3.7 1.2,4.7 0.6,-1 0.2,-2.9 0.8,-3.7 1.2,0.2 0.2,2.5 1.2,3.1 0.4,-0.8 0,-2.5 1,-2.9 0.2,2.1 2.1,1.4 1.9,4.3 -1.6,0.4 -3.5,0.6 -4.1,1.9 0.4,0 0.4,0.4 0.4,0.8 1.6,0.4 1.4,-1 2.7,-0.8 0.4,1.9 -1.4,1.6 -1.6,3.1 1.9,0 1.7,-1.9 2.9,-2.5 0.8,1.2 1.7,2.5 3.5,2.7 -0.8,-1 -2.7,-2.1 -1.9,-3.7 2.3,1.6 4.5,2.1 6.4,4.3 -0.4,-2 1.6,0.2 1.6,-0.6 -0.6,-0.4 -0.8,-0.6 -0.4,-1.4 -4.1,0 -5.2,-2.9 -8,-4.5 0.4,-0.8 0.4,-1.9 1.2,-2.3 -0.2,0.8 0.2,1.2 0.8,1 0.2,-1.2 -0.4,-2.9 1,-2.9 0,1.6 -0.4,3.3 0.8,3.7 0.2,-2.1 -0.2,-3.1 0.8,-4.3 0.6,1.4 0.2,3.9 1.2,4.9 0,-2.3 -0.2,-4.9 0.8,-6.2 0.8,1.9 -0.4,5.7 1,7 0,-2.5 -0.4,-5.8 0.8,-7.6 0.4,2.9 -0.4,6.6 1.2,8.6 -0.6,-3.7 0.2,-7.4 -1.2,-10.5 -3.3,-0.2 -4.7,4.3 -7.8,2.5 -0.2,-1.4 -0.2,-2.5 -1,-3.3 -1.2,-0.4 -1.4,0 -2.1,0.6 0,1.2 1.7,0.6 1.4,2.1 -2.7,3.3 -5.6,-1 -9.3,-0.6 m -3.9,27.9 v 0 c -1.4,0.4 -1.7,-0.6 -2.5,-0.8 0.4,0.8 -0.4,0.6 -0.6,1.2 1.4,-0.2 1.6,1 2.3,1.4 -0.6,-1.4 1.2,-0.5 0.8,-1.8 M 69.5,333 v 0 c -0.8,-1.6 0,-2.9 -1.2,-4.1 -1.2,0 -1.6,0.8 -2.3,1.4 1,0.4 1.6,0.8 1.6,1.9 -0.2,0.4 -0.4,0.6 -0.6,0.8 -4.3,0.8 -5.8,-3.9 -8.9,-1.6 0.2,1.2 -0.6,3.1 0.4,3.3 0.6,-0.2 0,-1.4 0.6,-1.4 1.6,0.6 -0.4,4.7 1.2,5.3 0.8,-1.2 -0.4,-4.1 0.8,-4.7 0.6,1.2 0.6,2.5 0.6,4.1 1.2,-0.4 0.8,-2.5 1.6,-3.5 1.2,0 -0.2,2.9 1,3.1 0.6,-0.8 0,-2.5 1,-2.5 0.4,0.4 0,1.6 0.8,1.9 0.2,-0.4 0,-1.2 0.8,-1 0,0.8 0.6,0.6 0.4,1.6 -2.5,0.8 -3.1,4.5 -6.4,3.5 0.2,0.8 0.2,1 0,1.8 3.1,0.8 3.7,-2.7 6.4,-3.3 0.8,2.3 -1.9,2.9 -1.6,4.1 1,-0.6 1.4,-1.6 2.5,-1.6 0.8,0.4 1.7,2.1 2.9,1.4 -1.2,-0.6 -1.9,-1.8 -2.3,-3.1 0.4,0 0.6,-0.4 1,-0.6 0.8,1.6 3.1,1.6 4.1,2.7 0,0.6 -0.8,0.4 -0.6,1.2 1,-0.2 1.4,-1 1.7,0.4 0.8,-0.4 1.9,-0.4 1.7,-1.8 -2.3,0.2 -4.7,-0.8 -4.3,-2.5 -1,-0.8 -2.7,-0.8 -3.1,-2.1 0,-0.6 0.2,-1 0.6,-1.2 0,0.6 0.4,0.8 0.8,1.2 0.2,-1 -0.4,-2.7 0.6,-2.9 0.4,1 0,2.7 1.2,2.9 0.2,-1.2 -0.4,-3.1 0.2,-3.7 1.4,0.6 0,3.9 1.6,4.1 0.2,-1.4 -0.6,-4.1 0.6,-4.7 0.6,1.6 -0.2,4.7 1,5.7 1,-1.6 -1,-5.5 0.6,-6.8 1,2.1 -0.6,6.6 1.4,7.6 -0.6,-2.7 0.2,-6.6 -0.6,-9.4 -3.6,-0.8 -5.1,2.1 -7.8,2.5 M 58.8,264 v 0 c -3.1,3.9 -6.8,-1.8 -9.5,-2.7 3.3,-3.7 7.5,0.2 9.5,2.7 m 0.6,1.2 v 0 c 2.3,-2 6,-1.2 5.8,1.4 -0.2,1.9 -4.7,3.1 -4.3,5.8 -1.9,-1.4 -1.7,-4.3 -1.5,-7.2 m -5.5,102.5 v 0 c -2.5,0.2 -3.9,-1 -5.8,-1.6 0.4,-6.9 6.2,-5.4 5.8,1.6 m -5.4,-0.9 v 0 c 0,1.2 -0.8,1.4 -0.6,2.5 -3.5,1.2 -5.6,3.7 -9.9,3.9 0,-5.3 6.2,-7 10.5,-6.4 m 3.1,-39.6 v 0 c 15.3,2.1 31.1,0.6 46.6,-0.2 1.2,9 1.4,17.9 0.6,26.9 -1.7,-1.4 -0.6,-4.9 -0.6,-6.8 0,-0.2 -0.4,-0.2 -0.4,-0.4 -1.6,-0.2 -2.3,0.4 -3.3,1 -0.8,0.8 -1.7,1.4 -3.3,1.2 -1.2,-0.8 -0.8,-3.3 -1.7,-4.5 -1.2,-0.2 -1.7,0.2 -2.5,0.6 0.2,1.2 1.6,0.8 1.7,2 0,0.8 -0.6,1.4 -0.8,1.9 -1.6,0 -2.7,-0.4 -3.9,-1 -1.4,-0.6 -2.7,-1.2 -4.7,-0.8 -0.6,2.5 0.4,5.5 0,8.6 1.2,-1.4 0.4,-4.7 1,-6.4 0.6,1.4 0.6,3.3 0.8,5.3 1.4,-1.2 0.2,-3.1 0.8,-5.1 0.8,0.8 1,2.3 1,3.9 0.8,-0.4 0.8,-1.8 0.8,-3.1 0.8,0.4 0.8,1.6 0.8,2.5 0.8,-0.4 1,-1.4 1,-2.5 0.6,0.2 0.6,1.2 0.8,1.8 0.4,-0.2 1,-0.6 0.8,-1.4 1,0.4 1,1.8 1,3.1 -1.6,0.2 -2.1,1.2 -3.5,1.6 -0.6,0.8 0.8,0.8 0,1.4 -1,0.6 -2.3,1 -2.7,2.3 0.6,0.4 1.2,-0.4 1.7,-1 0.8,-0.8 1.4,-1.6 2.5,-0.8 1,-0.6 0.8,-2.1 2.3,-2.1 -0.2,2.3 -1.2,4.3 -2.9,5.3 1.7,1 2.3,-1.8 3.9,-1.9 1.4,0.4 0.8,2.7 3.1,2.3 -0.6,-1.2 -3.1,-2.7 -2.9,-5.7 1.6,1 3.3,1.8 4.9,2.7 0,0.6 -0.6,0.4 -0.6,1 0.6,0.2 1.4,0.4 1.4,1.4 0.4,-0.4 0.2,-1.4 1.4,-1 0,-0.6 -0.6,-1 0,-1.6 -3.7,0.2 -3.7,-3.5 -6.6,-4.3 -0.2,-1.2 0,-1.9 0.6,-2.5 0.4,0.2 0.6,0.8 0.8,1.4 0.6,-0.2 0.4,-1.2 0.8,-1.6 0.8,0.4 0.2,1.8 1.2,2 0.8,-0.4 -0.2,-2.1 0.6,-2.5 0.8,0.6 0.4,2.3 0.8,3.3 0.8,-0.4 0.4,-3.5 0.8,-3.3 0.2,1.4 0.2,2.7 0.6,3.9 1,-1.2 0.2,-4.1 1,-5.7 0.8,2 -0.4,6.8 1.4,6.8 -1.6,8.8 -6,14.6 -11.8,19.1 -0.8,-0.4 -1.9,-0.6 -1.4,-1.8 -1.2,0.2 -1.4,0.4 -2.5,0 -0.4,-2.1 -4.1,-1.6 -3.1,-4.5 1,1 1.6,-0.2 1.2,-1.4 0.6,0 0.6,0.4 0.6,1 0,0.6 0,1 0.6,1 0.6,-0.2 0,-2 0.6,-2.3 1.2,0.2 -0.2,2.9 1.2,2.9 0.6,-0.4 -0.2,-2.3 0.4,-2.9 1.2,0.4 0.2,2.7 1,3.5 1.4,-0.4 -0.4,-3.9 1.4,-3.9 0.2,1.6 -0.4,3.9 0.6,4.7 0.8,-1.2 -0.2,-4.3 0.6,-5.7 0.6,2.1 -0.4,5.1 1,6.8 -0.2,-2.3 1.2,-6.2 -0.4,-8.4 -1.7,-0.2 -2.7,0.4 -3.9,0.8 -1.2,0.6 -2.3,1.2 -4.7,0.8 -0.8,-2.1 0.2,-5.7 -3.3,-3.9 0.4,1.2 1.6,1.2 1.2,3.1 -1.9,1 -4.1,0.4 -5.8,-0.2 -1.9,-0.8 -3.9,-1.4 -5.4,-0.4 0,2.5 0.6,4.7 0.4,7.4 1.4,-1 1,-3.7 1.2,-5.7 1,0.8 0.8,2.9 1,4.7 1.6,-0.4 0.8,-3.1 1,-4.7 0.6,1 0.6,2.9 1,4.1 1,-0.4 0.6,-2.1 1,-3.3 1,-0.2 0.4,1.4 0.6,1.9 1.2,0 0.4,-1.9 1.6,-1.9 -0.2,1 0.4,1.4 0.4,2.3 1,0 0.6,-1.4 1,-1.8 0.6,0.4 0.4,1.8 1.2,2 -1.7,1.6 -3.5,4.7 -6,4.5 0.6,1.2 -0.6,0.8 -0.6,1.9 0,0.2 0.2,0.2 0.4,0.2 0.4,-0.2 1,-0.2 0.6,0.6 1.2,0 0.6,-1.8 2.3,-1.4 -1.4,-2 3.1,-2 3.9,-3.5 0.2,2.3 -1,3.5 -1.9,4.7 1.6,0.6 1.9,-2.1 3.3,-2.5 0.6,1.6 1,3.1 3.1,3.1 -1,-1.2 -2.3,-2.1 -2.1,-4.5 2.5,0.6 3.7,3.1 6.6,2.5 -2.5,2.9 -8.9,3.7 -13.2,2.7 -10.3,-2.1 -14.9,-12.1 -17.9,-21.3 1,-1.6 2.7,-2.1 3.5,-3.9 0.6,1 0.6,2.7 0.4,4.5 1.2,-0.6 2.1,-5.3 0.4,-5.7 0.4,-0.8 0.2,-1.9 1.2,-1.9 0.4,1.8 0.2,4.3 0.6,6 1.6,-0.6 0.2,-4.1 1,-5.5 1.2,0.6 0.4,3.1 0.6,4.7 1.7,0 0.2,-3.3 1.4,-3.9 1,0.6 -0.4,3.1 1,3.3 0.6,-1 0,-1.8 0.6,-2.7 1.2,-0.2 0,1.8 0.8,2 0.6,-0.4 0.2,-2 1.4,-1.8 0.4,1.2 0.4,1.9 0,3.1 -2.9,0.6 -3.5,4.7 -7.2,3.3 -0.6,0.2 -0.2,1.6 -1.2,1.2 0.2,0.8 1.7,0.2 1.4,1.4 0.6,-0.4 1.6,-1.8 2.9,-0.8 0,-1 -0.6,-0.8 0,-1.4 1.4,-0.4 2.9,-1 4.1,-1.8 0.4,1.9 -0.8,2.1 -1.2,3.3 1.2,-0.2 1.4,-1.6 2.3,-1.9 1.6,0.4 1.4,2.5 3.1,2.5 -0.6,-1.8 -2.5,-1.9 -1.9,-4.7 0.8,0.8 1.4,1.8 2.7,2 1.4,-1.6 -1.6,-2.5 -2.5,-3.3 -0.2,-1.2 0.2,-1.8 0.6,-2.3 0.4,0.2 0.4,1 0.6,1.4 0.6,0.2 0.6,-0.4 0.6,-1 -0.2,-0.6 -0.2,-1 0.6,-1 0.2,0.8 0,1.8 0.4,2.3 0.6,-0.6 0.4,-1.8 0.6,-2.5 0.8,0.6 0.4,2.5 1,3.3 0.8,-0.4 0.4,-2.3 0.6,-3.7 1.2,0.8 0.2,3.5 1,4.5 1.2,-0.2 0.4,-7.2 1,-3.5 0.4,0.8 0.2,2.1 0.2,3.3 0.2,0.4 0.2,1 0.8,1.2 0.4,-2.9 0.8,-6.6 -0.6,-9 -2.3,0.4 -4.1,2.5 -6.8,1.6 0.2,-2.5 -1.6,-4.9 -3.5,-2.7 0.4,0.8 1.4,0.6 1.7,1.4 -0.8,2.9 -2.7,1.9 -4.7,0.8 -1.4,-0.8 -2.9,-1.6 -3.7,-0.6 -0.6,-9.3 -5.2,-15.1 -9.9,-19.8 m 4.5,-70.4 v 0 c -0.2,-1.2 1,-1.2 0.8,-2.3 -3.1,1.2 -6.4,2.1 -9.3,3.7 0.4,2.3 0.8,4.7 0.6,7.6 1.9,-0.2 3.3,0.8 4.9,1.8 1.7,1.2 3.5,2.3 5.4,1.8 0.8,2.7 1.7,4.9 3.7,6.2 0.6,-2.5 1.6,-4.9 3.9,-5.7 -11.1,15.2 -20.2,38.2 -18.1,65.3 1,12.9 4.5,23.4 9.1,33.1 -2.3,-0.6 -1.7,-3.3 -2.5,-4.9 -0.8,-1.9 -3.1,-3.7 -5.4,-3.7 -3.5,0.2 -2.7,3.7 -5.6,4.5 -1.2,0 -0.4,-1.8 -1.7,-1.6 -0.2,1.8 -1.2,2.7 -2.7,3.1 -0.8,-0.6 -0.8,-1.6 -1.7,-1.8 0,3.9 -1.7,6 -2.1,9.6 3.3,0.4 5.6,1.6 8.9,2 1.2,-2.3 4.1,-3.1 7,-3.9 0.2,-1.2 -0.6,-3.1 0.6,-3.3 0.8,-0.2 1.6,0 2.3,0.2 1.2,0.2 2.3,0.6 3.5,0 12.6,23.8 31.6,41.1 60.6,48.5 -1.4,-1.8 -3.7,-1.6 -5.6,-2.1 -21.2,-6.8 -38.4,-21.3 -49.3,-38.8 -2.3,-3.7 -4.7,-7.6 -6.8,-11.5 -5.4,-10.3 -8,-23.6 -7.2,-36.9 8.7,2.9 12.8,20.5 4.5,26.9 3.9,12.1 8.9,25.2 24.9,24 21,-1.6 25,-32 21,-53.6 -16.5,1.4 -34,3.1 -50.9,0.2 0.8,-24.4 8,-41.3 18.6,-55.4 4.1,-5.3 8.7,-10.5 14,-14.6 5.4,-4.1 11.5,-7.2 17.3,-11.5 -6,2.1 -12,6.8 -17.3,10.7 -5.4,4.1 -9.7,9.4 -14.2,14.2 -1.9,-2.3 0.2,-7.2 -3.1,-8 -0.6,-0.4 -1.2,-0.2 -1.7,0 -0.6,0.2 -1.4,0.4 -1.9,-0.4 -0.4,-1.4 1,-1.2 0.8,-2.5 -2.4,0.5 -4.6,0.5 -5.3,-0.9 m -16,11.5 v 0 c -1.9,-2.1 1,-3.9 1.4,-6.2 -0.6,0 -0.2,-1 -1,-0.8 -0.4,2.1 -2.1,2.9 -2.7,5.1 1,1 1.6,2.1 2.3,3.5 5.6,1.2 9.7,3.9 13.6,6.8 1.6,-0.6 2.7,-1.4 4.7,-1.2 -0.4,-1.6 -1.2,-2.7 -2.1,-3.9 -5,1.8 -9.3,-3.3 -13.4,-5.3 -1,0.6 -1.6,1.6 -2.8,2 m -5,12.1 v 0 c 0.2,1.4 1.2,1.9 1.4,3.5 -1,0.8 -2.3,1.4 -3.7,1.8 0.6,1.6 1.4,2.7 2.3,3.9 2.5,-3.5 8.7,0.8 12,1.9 1.2,-1 2.5,-1.9 4.5,-2.1 -0.8,-2 -1.9,-3.1 -3.1,-4.5 0.2,1 -0.8,1.8 -1.4,2.1 -2.5,1.2 -9.1,-2.1 -10.1,-3.9 0.2,-1 1.7,-0.8 1.9,-1.9 0.1,-3 -2.6,-2.8 -3.8,-0.8 m 5.8,-6.8 v 0 c -1,0.6 -2.1,1 -3.3,1.2 0,2 1.4,2.9 1.9,4.5 4.7,-1.6 7.8,2.5 11.1,4.1 1,-1 2.7,-1 4.3,-1.4 -0.4,-1.8 -1.2,-2.9 -2.3,-3.9 -0.2,0.8 -0.6,1.4 -1.6,1.4 -4.1,-1.5 -7.4,-3.4 -10.1,-5.9 m -10.7,71.5 v 0 c 2.1,-2.3 8.7,-3.3 12.6,-2.1 -0.2,-2.1 1.7,-2.1 1.9,-3.7 -1.2,-0.4 -2.1,-1.4 -3.7,-1.4 -1.4,2.7 -7.2,2.1 -10.9,2 -1.4,1.2 -2.3,3.1 -3.3,4.9 1.4,0.8 3.1,1.4 3.9,2.7 -0.4,1.9 -2.3,2.5 -2.7,4.5 1.2,0.6 1.9,1.4 3.5,1.4 1,-4.1 9.1,-4.5 12.4,-3.3 0.2,-1.9 1.7,-2.5 2.1,-4.3 -1.2,-0.4 -2.9,-0.6 -3.7,-1.6 -0.8,3.3 -10.9,4.6 -12.1,0.9 m 11.5,-22 v 0 c -2.5,-1.9 -6.2,-2.3 -7,-6 1.9,-1.2 4.5,0.2 7,-0.2 -1,1.9 0,4.8 0,6.2 m -8.9,-3.7 v 0 c -0.6,1.4 -3.1,0.6 -4.5,0.2 0.4,-1.8 -0.6,-3.3 0,-4.5 1.8,1.2 3.7,2.1 4.5,4.3 m 11.4,5.1 v 0 c -1,-2.1 -0.4,-4.9 0,-7 -1.7,-0.8 -2.3,-3.1 -4.5,-3.7 -2.1,-0.6 -4.7,0.4 -6.4,-0.8 -0.6,1.2 -0.6,2.9 -2.3,3.3 -1.7,-0.8 -2.7,-2.3 -4.9,-2.7 0.6,1.6 -0.2,3.9 -0.6,5.3 1,1.9 2.7,3.1 4.1,4.5 0.8,-1.2 3.3,-1 4.9,-0.6 0.2,-1 0.6,-2 1.4,-2.5 2.9,1 4.8,3.6 8.3,4.2 m -2.7,-15.4 v 0 c 0.2,-2 -1.4,-2.5 -2.3,-2.3 -5.3,0.7 1.5,6.9 2.3,2.3 m -9.9,-2.2 v 0 c -0.6,-2.3 -5.4,-2.1 -4.1,2.3 2.6,1 4.7,-0.3 4.1,-2.3 M 28.3,325 v 0 c -0.8,1.4 -2.1,1.9 -2.7,3.5 1,0.8 1.6,1.9 3.1,1.9 1.7,-2.5 9.5,-1.9 12.2,-0.4 0.2,-1.9 2.1,-2.1 2.7,-3.7 -1.7,-1.6 -3.7,-2.5 -5.2,-0.4 -3.7,0.1 -8,0.7 -10.1,-0.9 m 15.9,7.8 v 0 c -0.8,-1 -1.7,-1.6 -3.1,-1.9 -3.1,3.3 -10.3,3.1 -14.9,2.5 -0.8,0.8 -0.6,2.5 -1.7,3.1 -2.9,0 0,-7.4 -3.3,-6 0,1 0.2,3.7 0.6,5.1 1.4,1 2.7,1.8 3.5,3.1 3.5,-2.3 10.9,-3.7 16.3,-2.5 0.7,-1.2 2,-1.8 2.6,-3.4 m -19.8,-7.6 v 0 c -0.8,-0.8 -1.6,-1.6 -2.5,-1.9 -0.2,0.6 -0.6,0.8 -0.8,1.4 0.8,0.6 1.4,1.6 2.7,1.8 0,-0.7 0.8,-0.5 0.6,-1.3 m 14.8,31.2 v 0 c 1.2,0.2 2.7,-0.8 1.9,-1.4 -0.2,0.8 -1.5,0.7 -1.9,1.4 m 8.7,-2.7 v 0 c -1.2,-0.8 -1.7,-1.6 -3.3,-1.8 0.4,1.6 1.6,3.1 -0.6,4.5 -2.3,1.6 -9.3,2.9 -10.7,3.1 0.2,-2.1 1.4,-3.1 2.5,-4.3 -1.2,-0.4 -1.9,-1.4 -3.1,-1.6 -0.4,2.3 -2.1,3.1 -2.7,5.3 1.7,1.6 3.9,2.7 6.4,3.7 1.9,-2.9 6.4,-3.3 10.3,-4.3 -0.1,-2.1 1.2,-2.6 1.2,-4.6 m -9.5,26.7 v 0 c 1.2,0.4 3.3,-0.2 4.1,0.8 -0.2,1.6 -1,2.7 -1.4,4.1 1.4,0.6 3.3,0.4 4.9,0.6 0.6,-0.6 -0.8,-0.8 -0.6,-2 3.1,-2.1 6.2,-4.3 10.3,-5.7 0,-1.8 1,-3.5 0.6,-5.1 -1.6,0.2 -2.5,-0.4 -4.3,-0.2 0.2,0.8 1,1 0.6,2.3 -2.7,1.9 -6,5.3 -10.9,4.5 0.4,-0.8 0.4,-1.8 0.4,-2.9 -1,-0.2 -1.9,-0.4 -2.9,-0.6 -0.4,1.3 -1,2.3 -0.8,4.2 m 21.7,5.9 v 0 c -1.2,4.5 -5,6.4 -9.5,7.8 0.4,2 -0.6,2.9 -0.6,4.5 h 4.9 c 0.8,-0.8 -1.2,-0.8 -1,-2 2.9,-2.5 5.8,-4.9 9.5,-6.4 0,-1.8 0,-3.7 0.4,-5.1 -1.7,0 -3.9,0.2 -4.5,-0.8 0.2,-1.6 0.6,-2.7 0.8,-4.3 -1.4,0 -2.7,0 -3.9,0.4 0,0.2 0.4,1.2 0,2.3 -3.5,1.8 -6.2,5.5 -10.7,5.5 0,1.4 -0.4,2.3 -0.6,3.7 1.2,0.4 2.9,0.2 4.3,0.4 1.6,-2.7 8.8,-8.4 10.9,-6 m 12.3,14 v 0 c 0,1 0.8,1 0.6,1.9 -2.3,2.7 -4.1,6 -7.8,7.6 0.2,1.8 -0.4,2.5 -0.2,4.1 1.4,0 3.3,0.2 4.5,-0.2 0,-1 -1,-0.6 -0.6,-1.8 2.1,-2.9 4.9,-5.5 7.8,-7.6 -0.8,-1.8 0.4,-2.9 0.2,-4.7 -1.8,-0.1 -3,0.5 -4.5,0.7 m -6,16 v 0 c -1.4,-0.2 -2.3,0 -3.3,0.2 v 1.8 c 1.4,0.2 1.9,-0.4 3.3,-0.2 z m 17.4,10.9 v 0 c 0.2,-1.2 -0.6,-1.4 -0.4,-2.5 2.3,-4.3 4.9,-8.4 8,-12.1 -1,-1.2 -1.7,-2.3 -2.1,-4.1 -1.7,0.2 -2.5,1.2 -3.9,1.6 4.7,4.1 -2.9,8.6 -4.3,12.5 -1.4,-0.6 -3.1,-1 -3.7,0.6 1.4,0.8 4.1,1.9 3.1,4.1 -2.7,0.2 -4.7,-3.7 -7,-1.4 2.3,0.6 3.9,3.1 6.2,3.1 1.4,0 2.4,-1.8 4.1,-1.8 m 6,-1.9 v 0 c 0.2,-1 -0.6,-1 -0.6,-1.9 -5.2,-2 -2.1,5.8 0.6,1.9 m 5.5,5.2 v 0 c -1.7,-3.5 1,-6.8 3.7,-7.4 0.8,2.7 0.2,6.2 -1.2,8 1,0.8 1.2,2.3 1.7,3.5 1.7,-0.2 1.9,-1.9 3.3,-2.3 -2.9,-2.1 0.2,-9.4 -1,-12.7 -3.5,2.7 -6.2,6 -11.1,7.4 0.8,1 0.4,3.1 1,4.5 1.1,0.4 2.4,-0.6 3.6,-1 m 4.3,-16.2 v 0 c 0.8,-2.9 4.5,-0.6 4.5,1.4 0.4,-3.7 -6,-4.7 -5.2,0 1,0.8 2.7,1 2.5,-1.2 -0.7,-0.2 -1.8,0.4 -1.8,-0.2 m -5.9,5.7 v 0 c 1,-1.2 0.8,-2.1 0,-3.5 -3.9,-1 -4,4.5 0,3.5 m -23.5,-1.8 v 0 c 1.6,0 2.5,-1.4 3.9,-0.8 0.4,1.4 0.4,2.9 0.8,4.1 1.6,-0.8 3.7,-1 4.3,-2.7 -1.2,0.2 -1.2,-0.6 -1.4,-1.2 1.7,-2.7 4.5,-6.2 6.6,-9.2 -1.4,-0.8 -0.8,-3.5 -2.1,-4.3 -0.8,0.8 -2.3,1.2 -3.7,1.4 3.5,3.9 -2.3,8 -4.5,10.5 -0.6,-0.6 -1,-1.4 -1.2,-2.3 -1.6,0 -2.3,0.6 -3.3,1.2 0.3,1.2 0.3,2.4 0.6,3.3 m 41,16.6 v 0 c -4.7,-1.9 -0.6,-7.8 -0.4,-12.3 1.7,-2 3.1,0.8 4.1,2.1 -1.4,3.2 -0.6,8.7 -3.7,10.2 m 0,0.8 v 0 c 1.2,-1.4 3.5,-1.6 5.4,-2.1 -0.8,-3.7 1.2,-7 1.4,-10.7 -2.3,-0.4 -3.1,-2.3 -4.7,-3.3 -1.6,1.2 -3.5,2.1 -6,2.5 0.4,4.7 -1.2,7.6 -1.9,11.1 3.3,3.1 5,7.4 8.2,10.5 0.2,-1.6 1.7,-1.8 1.9,-3.5 -1.8,-1.2 -3.1,-2.6 -4.3,-4.5 M 100.1,396 v 0 c 13.6,0.6 26.2,0.6 39.4,1 12.2,0.2 27.2,-0.4 40.4,0 0.6,-1.2 0.2,-3.3 0.4,-4.9 -26.6,-0.2 -53,-0.4 -80,-0.6 -0.2,0.2 -0.6,0.4 -0.6,0.8 0.2,1.4 -0.1,2.9 0.4,3.7 m 17.3,2 v 0 c 0.2,1.8 1.2,2.5 1.9,3.7 h 5.4 c 0,-1.6 -1,-2.3 -1.6,-3.3 -2,0.1 -3.4,-0.6 -5.7,-0.4 m 13.8,0.4 v 0 h -5.6 c -0.4,1 1,2.1 1.4,3.3 2.7,0 3.7,0.4 5.6,0 0,-1.6 -0.8,-2.6 -1.4,-3.3 m 8.5,0.1 v 0 c -1.7,-0.4 -4.5,-0.4 -6.4,0 -0.4,3.5 3.3,4.1 6.2,3.1 0.4,-0.5 0.2,-2.1 0.2,-3.1 m 1.4,0 v 0 c -0.4,0.8 0.2,2.3 0.4,3.3 h 5.2 c 0,-1.2 0.8,-1.6 0.6,-2.9 -1.7,-0.5 -4.6,-0.4 -6.2,-0.4 m 7.4,3.2 v 0 c 1.4,0.6 3.7,0.2 5.6,0.2 0.2,-1 0.8,-1.6 0.6,-2.9 -2.5,-0.6 -7.2,-1.2 -6.2,2.7 m 7.5,0.2 v 0 c 1,0.6 3.7,0.6 4.7,0 0.6,-1 1.4,-1.6 1.2,-3.3 -3.1,-0.1 -7,-0.8 -5.9,3.3 m 39.5,-4.9 v 0 c -0.2,-1.6 0.2,-3.7 -0.4,-4.9 h -13.4 c 0,2.1 -0.2,2.9 0,4.9 3.9,0.4 8.9,0.2 13.8,0 m -24.5,8.6 v 0 c 4.1,-2.1 7.8,-4.7 12.4,-6.4 -3.1,-0.6 -7,-0.2 -10.5,-0.2 -4.9,4.1 -9.3,8.8 -11.6,15.6 1.7,-1.2 3.1,-2.9 4.9,-4.5 1.5,-1.6 3.4,-2.8 4.8,-4.5 m -5.2,-2.6 v 0 c 0,1 -1.4,1.9 -0.8,2.5 1.2,-2.7 3.7,-4.3 5.2,-6.6 -4.1,0 -7.8,-1.2 -7.6,3.3 1.4,0.1 3,-0.3 3.2,0.8 m 13.7,-47.2 v 0 c -0.2,-9.6 -1,-19.1 -0.4,-31.4 0.2,-3.1 -0.2,-9.2 0.8,-11.5 1.9,-3.9 11.3,-1.4 13.8,0.2 -1,1.6 -1.2,3.9 -2.5,5.1 -0.4,-1.8 0.2,-4.7 -0.8,-5.8 0.6,3.5 -0.8,5.8 0.6,8.8 1.6,-1.6 1.6,-4.7 2.9,-6.2 1.6,1.8 2.1,4.3 3.7,6.2 2.1,-2.5 3.1,-6.2 5.8,-8.2 1.4,2.1 2.7,4.1 3.5,6.6 -1.9,-1.2 -1.9,-4.3 -4.1,-5.3 -2.9,3.9 -5.4,8.6 -8,12.9 3.7,-2.5 4.7,-8.2 8,-11.1 3.9,3.1 5,9 9.5,11.5 0,-2.3 -3.5,-3.7 -4.5,-6.2 2.7,-1.4 1.6,-6.2 4.9,-7 0.8,2.7 1,5.8 3.7,6.8 -0.2,-9.2 0.2,-19.7 -0.6,-28.7 0.8,-0.6 2.5,-0.2 2.1,-1.8 -8.5,-1.2 -20.2,-0.6 -29.3,-0.4 v 1.8 h 26.2 c 0.2,6.6 0.8,17 0,25 -1.6,-1.6 -2.1,-4.3 -2.1,-7.6 1.4,0.2 1.9,0 2.1,-1 -0.4,-1 -2.5,-0.6 -2.5,-1.9 0.4,-1.2 1.9,-1.2 2.3,-2.1 0,-1.4 -2.1,-1.6 -0.6,-2.7 -1.7,0 -1.6,-2.3 -1.4,-3.3 0.6,0 1.4,0 1.6,-0.4 0.4,-1.9 -1.9,-2.3 0,-3.3 -1.4,-0.8 -2.7,0.2 -4.5,0 1.6,1.4 0,1.2 -0.2,2.7 0.4,1 2.1,0.6 2.3,1.8 0.2,1.8 -0.6,2.3 -1.7,2.5 1.7,1.8 -0.8,1.2 -0.6,3.3 0.4,0.8 2.1,0.2 2.3,1.6 0.2,1.8 -2.3,0.8 -2.3,2.1 -0.2,1.2 1.4,0.6 1.7,1.2 -0.2,3.7 -1.7,6.6 -2.3,9 -1,-9.9 1,-18.5 -0.8,-26.1 -0.6,7.6 0.2,17 -0.6,26.1 -1.2,-2.7 -0.4,-6 -2.5,-7.6 -1.4,0.6 0.8,1.8 0,2.3 -0.6,-1.4 -1.4,-2.3 -1.4,-4.3 0.6,-0.2 2.3,0.6 2.1,-0.6 0.2,-1.9 -2.7,0 -2.5,-2.5 -0.2,-1.2 1.4,-0.6 1.7,-1.2 -1.4,-1.8 -0.4,-2.9 -1.7,-4.7 0,-1 0.4,-1.4 0.6,-1.9 1.6,0 3.1,-0.2 3.1,-1.8 -0.2,-1.2 -3.1,0.2 -3.3,-1.2 0.2,-0.4 1.6,0.2 1.4,-0.8 -1.2,0 -3.1,-0.6 -4.3,0.2 0.4,0.4 1.2,0.2 1,1 -1.4,0 -3.1,-0.2 -3.1,1.2 0.2,1.6 1.9,1.4 3.3,1 1.6,2.1 -0.2,5.3 -0.8,7 0.4,0.8 1.7,0.6 1.4,1.9 0,1.6 -2.9,0.2 -2.7,1.8 0,1.8 2.1,-0.2 2.7,1.2 -0.2,1.4 -0.4,2.7 -1.7,3.1 0,-0.6 1,-1.6 -0.2,-1.4 -1.9,1 -0.4,5.1 -2.7,6 -0.4,-8 0.6,-17.5 -0.6,-24.8 -0.6,6.8 0.6,18.1 -0.6,25.3 -0.6,-2.5 -2.3,-4.1 -3.3,-6.2 -7,-4.5 -13.2,-9.8 -20.2,-14.2 -0.4,32 -0.6,61 -0.6,93 1.7,0.4 5,0.6 6.4,-0.4 -0.2,-10.4 0.5,-23.4 0.5,-34.6 m -38.8,-91.2 v 0 c 1.7,7.2 16.3,6 14.4,15.2 3.9,-5.1 11.6,-1.8 13,3.5 0.8,-5.7 -7.8,-9 -12,-6 0,-1 -0.6,-1.8 -0.6,-2.5 -4.5,-4 -10.9,-5.9 -14.8,-10.2 m -14,-5.1 v 0 c 0.8,1.4 0.4,3.3 -1,3.9 -1.2,0.2 -1.4,-0.6 -2.5,-0.6 -1,0.8 0.8,1 0.4,1.9 -0.6,1.8 -3.9,2.1 -5.8,1.6 3.5,-1.5 3.7,-8.9 8.9,-6.8 m -10.6,6.8 v 0 c 4.1,2.5 10.3,0.4 12,-2.9 1.2,-5.3 -3.7,-6.8 -6.4,-4.3 -0.8,3.7 -3.3,5.3 -5.6,7.2 m -2.6,-15 v 0 c 0.6,3.3 4.3,6 2.5,10.1 -1.9,1 -3.9,-0.4 -3.7,-2.5 0.2,-0.8 0.6,-1.4 1.7,-1.4 -1.6,-1.3 -2.8,-4.4 -0.5,-6.2 m 2,-2.5 v 0 c -5.6,0.8 -7.2,14.4 -0.8,14.4 7.4,-0.2 -1.2,-10.9 0.8,-14.4 m 14.7,7.4 v 0 c -1.6,0 -1,-1 -2.5,-1.8 -2.9,-1.6 -9.1,0.2 -8.5,-3.9 0.2,-2 2.9,-2.9 4.7,-1.4 0.4,1 0,1.9 0.4,2.5 3,-2.2 5.7,1.3 5.9,4.6 m 0.6,2.5 v 0 c 0.8,-6.6 -3.7,-12.5 -9.1,-11.5 -2.3,0.2 -4.5,2.7 -3.5,5.3 1.2,2.5 3.7,1.6 7,2.1 3.1,0.6 3.9,2.8 5.6,4.1 m 25.8,-0.9 v 0 c 1.9,1.8 1.6,5.8 2.9,8.2 -1.7,0 -2.9,-0.8 -3.9,-1.8 -0.2,-1 0.4,-1.6 0.4,-2.5 -0.4,-0.6 -1,0.8 -1.9,0.4 -2.1,-1.6 -1.2,-5.3 2.5,-4.3 m -4.8,1.1 v 0 c -1.4,4.9 4.9,8.8 10.1,7.8 -2.5,-1.6 -2.1,-4.5 -2.7,-7.6 -0.8,-3.1 -6.6,-3.1 -7.4,-0.2 m 9.3,-5.6 v 0 c -2.5,0.6 -6.6,-1.9 -8.2,0.4 -0.6,-1.9 1.6,-3.3 3.1,-3.9 1.2,-0.2 1.6,0.8 2.5,1 1.2,-6.9 8.4,1.1 2.6,2.5 m 3.3,-1.4 v 0 c 0.6,-2.3 -0.8,-3.9 -1.9,-5.1 -7.2,-1.2 -10.9,3.1 -11.8,9.4 2.2,-4.3 12.3,0.4 13.7,-4.3 m 4.5,7.6 v 0 c -1,0.2 -1.2,-0.4 -1.9,-0.4 5.6,3.7 -5.6,7.8 -3.7,0.6 0.6,-2.1 5.8,-3.9 5,-7 1.7,1.2 2.3,5.5 0.6,6.8 m -1.2,-9.7 v 0 c 0,-0.2 0,-0.4 -0.2,-0.4 1.9,7.2 -9.1,9.2 -3.9,15.2 8.6,2.5 8.9,-11.9 4.1,-14.8 m -0.8,15.6 v 0 c -3.5,1.2 -5.8,-2.1 -5.6,-5.7 2.5,-2.5 7.8,-6.6 4.5,-11.5 6.4,0.6 7.5,15.2 1.1,17.2 M 161.3,255 v 0 c -1.9,0.4 -4.5,-1.2 -7,-0.6 -2.1,0.6 -2.1,1.9 -4.3,3.3 -0.8,-5.7 4.7,-11.9 10.1,-11.7 5.1,0.3 7,7.9 1.2,9 m -8.2,-8.9 v 0 c -1.6,2 -3.7,3.3 -4.5,6 0.2,-2.7 -2.7,-2.5 -3.5,-4.1 2,-1.9 4.2,-2.1 8,-1.9 m -2.1,14 v 0 c 0.2,-2.7 2.5,-4.9 5.8,-3.9 3.5,0.8 2.1,5.8 4.3,8.6 1,1.2 1.4,1 2.5,2.3 -6.6,1.4 -13,-2.1 -12.6,-7 m -20.4,1.6 v 0 c -1.6,-2.7 -0.8,-4.7 -3.7,-6 -3.9,-1.8 -9.1,0.6 -9.5,-4.3 -0.2,-1.6 1.4,-3.9 3.1,-4.5 7.8,-2.2 13.2,8.3 10.1,14.8 m -14,-14.5 v 0 c -4.9,5.1 5.4,11.3 0.6,15.6 -3.7,3.1 -7.4,-2.1 -7.4,-5.7 0,-5 3.9,-8.7 6.8,-9.9 m -2.5,-1.1 v 0 c -2.3,2.7 -5.4,4.9 -5.8,9.6 -1.2,-2.1 -0.6,-7 -0.4,-9.6 z m 0,19.7 v 0 c 6.8,-0.2 4.9,-9.2 12.2,-8.6 8,7.6 -6.4,14.4 -12.2,8.6 m 48.4,61.8 v 0 c -2.3,-6.8 -1,-17.4 -4.9,-22.6 5.6,3.7 3.1,15.2 4.9,22.6 m 3.1,-23.6 v 0 c -0.8,2.5 -1.6,7.4 -1.7,11.5 -1.6,-3.9 -0.1,-9.4 1.7,-11.5 m -1.6,24.4 v 0 c 2.1,-1 6.6,2.7 5.4,5.1 -1.2,-1.2 -1.4,-2.9 -3.1,-3.3 -1,1.6 1.4,3.7 0.8,5.1 -1.9,-1.5 -0.8,-6 -3.1,-6.9 m 8.9,-82.9 v 0 c 0.2,2.5 0.2,6.6 -0.2,8.4 -0.8,-3.1 -3.3,-5.8 -4.5,-7.6 1.4,-0.2 3.9,0.8 4.3,-0.6 -8.7,-1.8 -22.1,-0.2 -28.5,-1 -0.4,1 1.2,1.6 0.2,2.1 0,-3.7 -3.9,-0.4 -5.8,-2.1 -1,-0.2 -1.4,1.8 -1.9,1 -1,0 -1.2,-1.6 -3.3,-1 0,0.6 -0.6,0.8 -0.4,1.6 3.5,0.2 5.8,1.6 10.7,1.8 -2.5,1.6 -4.1,0 -6.8,-0.4 -1,1.8 -4.3,2.3 -3.9,4.5 -0.8,-2.1 -3.5,-4.3 -4.1,-5.8 1.4,-0.4 4.1,0.4 3.9,-1.6 -8.5,-1 -18.6,0.2 -26.6,0 -7.8,5.7 -15.7,11.5 -23.1,17.5 4.5,-2.3 11.8,-5.7 16.7,-1.9 2.7,1.9 2.1,9.2 2.3,14 0.2,8.2 -0.6,17.2 0.2,23.6 2.3,-0.8 3.7,-2.7 5.8,-3.9 0.2,-2.5 -0.4,-5.7 0.4,-7.8 2.5,-0.6 4.9,0.6 6,-1.2 -1.2,-1.4 -5.6,0.2 -6.6,0 -1.2,-7.2 1.9,-11.7 5.8,-14.6 -3.1,-2.1 -7.4,-5.5 -5.2,-10.9 2.1,5.7 6,9.4 12.4,10.7 -5.6,2.7 -12.4,5.8 -12.2,13.6 h 1.9 c 3.9,-14 25,-10.9 29.3,-24.4 h -2.5 c -1.6,3.1 -3.7,5.7 -7.2,7 2.5,-3.3 4.9,-8.4 3.1,-13.8 0.2,1.2 2.1,0.8 3.5,1 1,0.4 0.8,1.9 1.9,1.9 1.4,-1 2.3,0.8 2.9,-1.2 0,1 0.6,1.4 1.7,1.2 0.6,-0.8 0.2,-1.9 -0.6,-1.9 1.2,0.2 1.2,-0.8 2.1,-1 0,2.1 3.7,0.2 3.7,0.4 -0.4,1.4 -0.8,2.9 -0.6,4.7 -4.3,0.4 -9.5,-1.2 -13.8,0.6 4.1,0.8 10.5,0 14,0.4 0.2,2.9 3.1,6.6 4.3,8.4 -4.1,-1.2 -6.6,-3.9 -8.3,-7.4 -1,0 -1.9,-0.4 -3.1,-0.2 0.2,10.3 -13.8,9 -16.1,17.7 -5.4,-3.7 -11.6,1.4 -12.4,6.6 2.5,-2.9 5.2,-8.4 10.3,-7 1.2,0.4 1.9,2.1 3.5,1.4 0.4,-0.8 0.2,-2.5 0.6,-3.5 3.9,-4.1 10.7,-5.5 14,-10.1 0.4,-0.6 0.8,-1.2 1,-1.9 6.6,9.8 24.5,8.2 28.3,20.7 h 2.1 c -1,-7.6 -6.8,-10.5 -12.2,-13.6 6.4,-0.8 11.3,-3.3 12.8,-9 1.4,4.9 -3.3,8.2 -6.6,10.1 2.3,1.9 5.6,3.3 6.6,6.6 1.2,4.1 -0.4,8.8 0,13.3 -1.7,0 -2.7,2.3 -4.5,1.4 1.6,-0.6 3.3,-0.8 3.7,-2.5 -1.9,0 0.2,-0.2 0,-1.2 h -13.4 c -2.3,-6.4 -7.4,-12.1 -14,-13.5 -11.1,-2.1 -22.5,5.7 -22.9,16.4 -0.4,6.4 1.9,12.7 6.6,14.8 -2.1,-3.5 -4.7,-6 -5.2,-10.7 -1.2,-8.4 3.9,-15 9.7,-18.1 14.9,-4.9 27.6,6.4 24.1,19.9 -0.4,-1.8 -2.5,-1.6 -4.3,-1.9 0,3.5 -2.9,4.3 -5.2,5.7 2.3,0.2 2.1,3.1 3.7,4.1 3.5,-0.8 4.3,-4.7 5.8,-7.6 0,4.5 -3.1,5.5 -4.3,8.8 4.7,-1.8 6.6,-9.6 6.2,-16.2 2.7,0.2 5,-0.8 7,0.2 -0.2,3.9 -6.6,1.6 -6.4,5.8 3.1,-0.8 4.9,-2.9 7.6,-4.1 -0.8,2.7 -8.2,3.5 -8.2,6.6 0,1.4 2.1,2.7 3.7,2.5 -1,2.1 -3.1,-0.4 -4.3,-0.8 -1.2,2.5 -2.5,4.7 -4.1,6.6 1.2,2.7 4.5,4.7 3.5,8.6 2.5,4.7 3.3,12.7 3.5,19.1 1.9,0.6 4.9,0.4 6.4,1.6 0.8,-1.2 2.3,-1.8 3.3,-3.1 0.2,-12.1 0.6,-26.1 0.8,-39.2 -2.5,0.6 -1.9,4.1 -2.1,6 -1.6,9.6 -2.7,20.1 -5.6,27.3 0.8,-10.1 4.9,-22.4 4.5,-32.4 -2.1,2.5 -4.1,11.5 -8.2,8.6 h 2.3 c 1.7,-3.1 4.3,-5.3 5,-9.4 -1.7,0.4 -2.9,3.1 -4.3,2.9 1.2,-1.4 2.7,-2.5 3.9,-3.7 1.6,2 3.9,-0.2 5.6,-0.6 0.4,0.8 0.4,1.8 0.2,2.7 7.8,6.4 15.7,12.5 23.9,18.3 0.6,-2.7 -1.9,-2.1 -2.3,-3.9 0.4,-0.8 2.3,-0.2 1.9,-1.8 -0.4,-0.8 -2.1,-0.4 -1.9,-1.9 0.8,-0.8 2.5,-0.6 2.3,-2.5 -1.4,-0.2 -1.7,-0.8 -0.8,-1.9 h -3.5 c -0.8,0.4 1.2,0.6 0.6,1.8 -1,-0.2 -1.6,0 -1.4,1 -0.2,1.6 2.3,0.6 1.9,2.3 0,1.4 -1.9,0.6 -1.9,1.8 -1.4,-4.3 0.4,-11.1 -1.2,-16 -0.8,4.7 0.2,11.5 -0.2,14.4 -5.4,-4.3 -11.3,-8.2 -16.5,-12.9 1.9,1.2 3.5,2.7 5.6,3.7 -0.2,-7 0,-19.5 0.2,-27.3 0.2,-2.9 -0.4,-5.7 0.2,-7.6 1.7,-4.1 11.3,-1.6 14.6,-0.8 -3.5,-2.5 -7,-5.8 -10.5,-8.8 -3.5,-3 -7.2,-6 -10.9,-7.9 M 147.1,234 v 0 c -0.8,0.8 -1.6,1.4 -1.7,2.7 0.8,0.6 2.7,0.4 3.7,0 0.6,-2.1 0.4,-5.5 -1.2,-6.4 -1.2,-0.2 -1.4,2 -2.3,1.2 0,-1.9 1.9,-1.6 2.3,-3.1 -3.5,-1.9 -4.1,3.7 -7.6,3.7 0.2,1 0.6,2.1 1.7,2.1 0.2,-1.2 1.9,-2.3 3.3,-1.6 -2.7,0 -3.5,4.5 -0.8,4.1 0.5,-1.2 1.5,-4.1 2.6,-2.7 m -7.9,-17.8 v 0 c 0.2,1 0.8,1.2 0.6,2.3 -2.9,1 -6.6,1.2 -7.2,4.7 0.8,0 2.3,1.4 2.5,0 0.2,-0.8 -1.4,0.2 -1.2,-0.6 3.1,-2.3 11.1,-2.1 14.2,0 -0.8,0.4 -1.9,-0.4 -2.1,1.2 1.2,0.8 2.7,0 3.3,-0.8 -0.4,-4.5 -8,-2.7 -7.6,-7 -0.8,0 -2,-0.2 -2.5,0.2 m -4.5,18 v 0 c 1,0.4 1.2,1.6 1.7,2.3 0.8,0 1.7,0.2 2.1,-0.4 0.2,-3.1 -2.5,-3.3 -2.9,-5.8 -2.3,0.6 -3.7,3.1 -2.9,5.8 0.8,0.2 1.2,0.6 1.9,0.4 0.9,-0.8 0.1,-1.3 0.1,-2.3 m 8.7,-10.4 v 0 c -0.4,0.4 -1.2,0.4 -1.7,0.8 1,0.8 1,2.9 -0.8,3.1 1.2,-0.6 0.2,-3.1 0.8,-4.1 0.8,-0.1 1.3,-0.1 1.7,0.2 m -3.3,4.7 v 0 c 1,0.2 1,0.4 1.9,0 0.5,1 -2.3,1 -1.9,0 m -1.9,-4.7 v 0 c 0.2,-0.2 1.6,-0.6 1.6,0 0.3,0.8 -2,0.8 -1.6,0 m 6,1.2 v 0 c 0.6,-0.8 1.9,-0.6 1.4,-2.3 -1.2,-0.6 -0.2,1.2 -1.4,1 -0.2,-3.1 -5.4,-1.4 -7.2,-1 -0.8,0.4 0.4,2.5 -1.2,1.9 1.6,2.9 1.9,6.6 6.8,6.2 1,-1.5 2,-3.1 1.6,-5.8 m -10.1,4.1 v 0 c 3.1,1 3.5,4.3 5.6,6 0.6,-2.9 -3.1,-9.7 -5.6,-6 m 6,7 v 0 c 0.6,0.6 1.2,1.2 2.1,1.6 1.4,-1.8 -1.7,-3.7 -2.1,-1.6 m 3.1,2.6 v 0 c -1.4,-0.4 -2.5,-1.2 -4.1,-1.6 0.2,0.4 -0.2,0.6 -0.2,1 0.6,1 3.9,3.1 4.3,0.6 m 0.2,2.3 v 0 c -1.4,-0.6 -3.5,-1.6 -4.9,-1.4 0,2.7 2.7,2.5 4.9,2.9 z m 0,2.7 v 0 c -1,-1.4 -3.9,-1.2 -5.6,-1.9 -1.2,3.1 3.9,3.7 5.6,1.9 m -75.9,72.4 v 0 c 0,-4.7 -0.8,-9.4 0.2,-14.4 0.4,0.4 1.4,0.2 1.4,0.8 -0.4,0.8 -1.6,1 -1.2,2.5 0.8,0.4 1.4,0.8 1.7,1.6 0.2,-0.8 0.8,-1 1.4,-1.2 0.4,-2.1 -1,-2.7 0,-4.3 -1.2,0 -3.1,0.4 -3.9,-0.2 v -7.6 c 1.2,-0.4 3.7,0.6 3.9,-0.6 0.4,-1.6 -1.7,-0.4 -2.1,-1.2 1,0.2 2.7,-0.4 3.3,0.4 -0.6,9.2 0,19.9 0.2,28.7 1.9,-7.4 -0.2,-19.1 1,-28.7 0.6,0.8 1.4,1.8 3.3,1.4 0.4,-0.8 -0.6,-1.8 0,-1.8 2.5,0.4 5.6,-0.2 8.3,-0.2 2.3,0 8.3,1.4 7.8,-1.9 -5,-0.2 -10.3,0 -15.5,0.2 -3.3,0.2 -10.7,-1 -13.2,1.2 0,1.2 1.6,0.6 1.9,1.4 0.2,9.6 0,19.1 0.4,28.5 1.1,-1.1 1.1,-3.7 1.1,-4.6 m 15.6,-24.2 v 0 0.8 c -0.2,6.2 0,15.8 0,22.8 0,1.6 -0.6,3.9 0.8,4.7 1,-8.6 0.4,-18.7 0,-28.3 z m 1.7,33.7 v 0 c -2.3,-4.1 -3.9,-9 -6.4,-12.7 -2.5,4.7 -5,9 -8,13.1 4.5,-2 4.7,-8.2 8.2,-10.9 2.3,3.3 2.9,8.2 6.2,10.5 m -9.3,-21.2 v 0 c -0.2,-0.8 0.4,-0.6 0.4,-1.4 0.9,-0.2 0.4,1.6 -0.4,1.4 m 7,14.4 v 0 c -0.4,-1.8 -1.7,-3.5 -0.2,-5.1 -0.8,-0.2 -1.4,-0.8 -1.2,-1.9 -0.6,-0.2 -0.6,0.6 -1.4,0.2 -0.2,-0.6 -0.4,-1.2 -0.4,-2.1 1,-0.2 1.9,0 1.9,-0.8 0.2,-1.6 -1.9,-0.8 -2.3,-1.8 0,-0.6 -0.4,-1.8 0.2,-1.8 1.2,0 2.3,0.2 3.1,-0.2 0.4,-1.8 -0.6,-2.1 -1.4,-2.9 -0.2,-0.8 1,-0.8 0.2,-1.6 -1.9,1 0,2.5 -0.8,4.1 0.2,-1.8 -1.2,-2.1 -0.4,-3.9 -0.2,-0.4 -1.4,0 -1.4,-0.6 v -1.9 c 1,-0.8 3.5,-0.2 3.7,-1.6 -0.2,-1.4 -2.3,-0.6 -2.9,-1.6 0,-1 1.2,-0.6 1.6,-1.4 -1.7,-0.4 -4.3,-0.6 -5.6,-0.2 0,1 1.4,0.6 1.6,1.4 -0.6,1 -2.9,0.4 -2.9,1.9 1,1.6 5.2,0 4.1,3.7 -1.2,0 -1.6,0.4 -2.7,0 -0.8,0.8 0.6,0.8 0.2,1.9 -0.8,-0.2 -1,0.4 -1.6,0.6 v 2 c 1.2,1.2 2.7,-0.4 3.9,0.2 -0.2,1 0.4,2.5 -0.6,2.5 h -1.7 c 0.2,0.6 -0.2,0.6 -0.2,1.2 0.2,0 0.4,0.2 0.2,0.6 1,0 2.1,-0.4 2.3,0.6 0,1 -0.8,1.6 -1.2,2.1 -0.6,0 -0.4,-0.8 -1.2,-0.6 0,1.2 -0.6,1.4 -0.8,2.3 1.9,1 -1.7,2.7 -0.2,4.3 1.6,-2.1 1.9,-5.5 4.5,-6.8 1,2.5 1.8,5.4 3.6,7.2 m -0.2,-25.9 v 0 c 0,-0.4 -0.4,-0.6 -0.4,-1 -0.6,0 -1.6,-0.2 -1.9,0.2 v 0.8 c 0.3,0.6 1.9,0.6 2.3,0 m -5.1,0 v 0 c 0.4,0.6 1.7,0.6 2.1,0 0.2,-0.4 -0.2,-0.6 -0.2,-1 -1.1,-0.2 -2.1,0 -1.9,1 m -7.5,20.8 v 0 c 1.2,0.8 0.6,3.3 1.7,4.3 0.2,-3.1 -2.5,-6.2 -0.4,-8.6 0.4,-1.8 -1.4,-1.6 -1.6,-2.7 v 0.6 c 0,1.2 -1.7,0.4 -1.6,1.8 2.5,2.5 -1.2,6.4 0,8.6 1.3,-0.9 0.5,-3.4 1.9,-4 M 70.4,294 v 0 c -0.8,0.2 -2.1,-0.4 -2.5,0.4 1.7,1 -0.8,1.6 -0.2,2.9 1.7,0 1.2,2.3 2.3,2.9 -1,-2.3 1,-2.1 1.4,-3.9 -0.8,-0.7 -1.4,-0.9 -1,-2.3 m 17.7,18.9 v 0 c 0.4,-0.2 1.4,0.2 1.4,-0.4 1,0.8 0,3.9 0.4,6 -0.2,-1.1 -1.6,-3.4 -1.8,-5.6 m -1.9,1.4 v 0 c 0,1.6 -1.7,2.9 -0.8,4.5 l 5,1.8 c 1.2,-2.3 0,-5.7 1,-8 7.6,-1 9.7,4.7 10.1,10.9 1.6,20.5 -1.2,45.8 0,66.7 1.6,0.4 4.7,0.6 6.2,0 0.2,-10.3 -0.2,-23 0.2,-33.5 0.6,-11.7 -0.6,-26.5 0,-36.5 0.4,-4.7 -3.1,-6.6 -4.7,-10.1 1,-2.3 3.1,-3.3 4.7,-5.1 v -6.4 c -7.6,3.3 -14.6,9.9 -22.3,14 5.6,-4.3 11.7,-8.4 17.3,-12.7 1.7,-1.2 4.9,-2.1 5,-5.1 -6,3.5 -10.9,8.2 -17.1,11.7 -0.2,-4.7 1,-8.8 0.4,-12.7 -0.2,-0.6 0,-1.9 -1.2,-1.9 -1.6,4.7 2.1,15 -2.5,16.8 0.2,-1 -0.4,-1 -0.2,-1.9 0.4,-0.8 1.7,-0.6 2.1,-1.4 0.2,-1.6 -1.2,-1.6 -1.4,-2.5 0.2,-0.8 1.6,-0.2 1.2,-1.4 0,-0.8 -1.7,0.2 -1.7,-0.6 0.2,-1.2 -0.4,-1.6 -0.2,-2.5 0.2,-1 2.1,-0.4 1.9,-1.8 0,-1.2 -1.6,-0.6 -1.4,-1.9 0.4,0 0.8,-0.2 1,-0.6 -0.8,-0.6 -2.3,-0.2 -3.5,-0.2 1.4,1.6 -0.4,1.2 -0.4,3.3 0.4,0.6 1.7,0.4 1.7,1.4 0.2,1.8 -0.4,2.7 -1.7,2.9 -0.2,1.2 1.4,0.4 1.2,1.6 -0.6,0.6 -1.4,0.8 -1.2,2.3 0,1 1.7,0.4 1.7,1.4 0.3,3.6 -3.7,5.2 -0.4,7.5 m 85.8,22.8 v 0 c -4.7,0.6 -13.8,-2.1 -12.4,3.5 3.5,0 7.8,-0.4 12,-0.2 0.6,-0.7 0.2,-2.3 0.4,-3.3 m -28,-39.4 v 0 c -0.6,-0.2 -1,-0.6 -1.4,-0.8 0.6,-0.4 1.9,-0.8 2.5,-0.4 -0.3,0.7 -1.1,0.7 -1.1,1.2 m 1.4,-3.1 v 0 c -0.8,0.4 -2.7,-0.4 -3.3,0.8 -1.2,-1.6 2.9,-2.3 3.3,-0.8 m -3.7,6.5 v 0 h -1.9 c 0.4,-0.8 2.1,-0.4 1.7,-2 0.6,0.2 0,1.4 0.2,2 m -2.7,-6.5 v 0 c -1,-0.4 -2.5,-0.4 -3.3,0 0.2,-1 1.2,-1.4 2.7,-1.2 -0.4,1 1,0.2 0.6,1.2 m -3.1,2 v 0 c 0.2,-1 1.4,0.2 2.5,-0.2 0,0.6 -0.4,1 -1.2,1 -1,0.3 -0.4,-1 -1.3,-0.8 m 2.7,6.2 v 0 c 0.6,-0.4 3.7,-0.8 3.7,0.2 -1,-0.6 -2.9,0.2 -3.7,-0.2 m 4.6,2.2 v 0 c 0.4,-0.4 0.8,-1 1.2,-1.4 1.9,-2.7 2.7,-7.2 2.7,-10.3 -3.9,-1.9 -9.3,-2.7 -13.2,-0.4 -0.8,6.4 1.4,12.5 5.6,13.3 1.6,0.3 2.8,-0.3 3.7,-1.2 m -0.5,4.1 v 0 c 1.2,-2.9 3.9,-4.1 5.4,-6.6 -1.4,-0.2 -2.5,0.2 -3.7,1.2 -0.4,0.6 -0.8,1 -1.2,1.4 -1.2,1.9 -2.1,4.5 -2.3,6.2 1,0.2 0.6,-1 1.4,-1.2 0,1.8 1.7,1.6 1.4,3.7 -1.4,0 -2.1,0.6 -2.9,0.6 -1,2.3 0.6,4.5 3.3,3.7 0.8,-5.5 3.5,-8.8 6.6,-11.9 -0.4,-1 -1.7,-1.2 -2.5,-1.9 -2.6,0.5 -4,4 -5.5,4.8 m 5.4,-17.2 v 0 c -1.6,-0.4 -3.3,-0.4 -3.9,-1.8 1,0.4 1.9,0.8 2.9,1.2 0.6,0 0,-1 0.2,-1.4 0.4,0.4 0.8,1 0.8,2 m 2.5,3.3 v 0 c 0,0.8 0,1.6 1,1.4 0.2,-2.7 -1.6,-3.5 -2.9,-4.7 1.6,-9.6 -17.7,-11.1 -16.7,0 -1.4,0.8 -2.7,1.6 -2.7,3.5 1,0.2 0.4,2 1.4,2 -0.2,-2 2.1,-2.7 1.6,-4.1 -0.4,0.4 -1.6,1.8 -1.9,1.4 1.9,-2.3 5.8,-2.7 8,-4.7 0,1.2 2.1,2 2.9,0.8 -0.4,-0.2 -1.4,0.4 -1.4,-0.4 1.7,0.2 0.6,-2.5 2.3,-2.5 1.2,0.8 1.4,1.8 1.4,3.1 2,1.7 5.7,1.9 7,4.2 m -0.6,-3.9 v 0 c 2.3,-0.4 5,-0.4 6.6,-1.8 -2.1,-6 -5.2,-10.9 -12.4,-12.1 -0.8,1.8 -1.7,3.1 -1.6,5.8 4.3,1.1 6.1,4.4 7.4,8.1 m -23.3,28.3 v 0 c -0.8,-1.6 -1.4,-3.3 -2.5,-4.5 1.6,0.8 2.7,1.7 2.5,4.5 m 2.7,-10.9 v 0 c -2.5,0.4 -3.5,2.5 -4.5,4.5 -0.2,0.8 1.9,0.6 1.2,1.2 -0.8,-0.4 -1.9,-0.4 -2.9,0 0.4,0.8 -0.4,1.4 -0.2,1.9 -0.6,-1 -0.8,-2.1 -2.5,-1.9 -1.4,-2.7 -2.9,-5.5 -6.8,-5.8 1.4,2.1 3.5,3.7 3.7,7.2 -0.8,-0.6 -2.9,-1 -3.3,0.4 1.2,1.6 5,2.9 7.6,4.1 0.4,-1.2 -0.6,-3.3 -1,-4.7 2.1,2.1 2.1,5.5 2.3,9.2 1.4,0.4 2.9,0.8 4.5,1 0.8,-4.7 0,-11.1 2.1,-14.4 0,2.1 -0.6,4.3 -0.8,6.4 -0.2,3.5 -1,9 1.7,9.6 0.2,-4.9 0,-9.9 1.6,-13.5 0,0.6 -0.4,0.8 -0.2,1.8 1.6,0.6 1.9,0.4 3.9,0.6 -0.4,-3.5 -3.7,-5.7 -5,-7.4 3.5,1.2 4.9,4.5 6.4,7.6 1.7,-0.2 2.1,0.2 2.9,0 0,-1 -0.2,-1.8 -1,-1.9 0,0.4 0.2,1 -0.2,1.2 0.6,-1.8 -1.9,-0.6 -1.9,-1.8 v -1.9 c 0.6,-0.2 1.2,-0.2 1.2,-0.8 -1,-3.7 -8,-8.8 -9.9,-3.1 0.2,0.1 1,0.1 1.1,0.5 m -16.1,-16 v 0 c -0.2,1.6 1.9,2.5 1.6,3.3 -1,-0.8 -2.1,-1.6 -2.5,-3.1 0.6,0 0.6,-0.6 1.2,-0.8 2.1,1.8 4.5,3.5 7.6,4.5 0.2,-1.4 -0.4,-1.8 -0.4,-3.1 -3.5,-0.6 -7.2,-1 -7.8,-4.5 -1.2,0.2 -2.9,-0.2 -3.7,0.4 0,1 2.1,1.2 1.6,1.9 -0.8,-0.4 -1.6,-0.8 -2.5,-1 2.1,3.1 1.2,9.2 1.4,14 1,0.2 1.4,0 1.9,-0.2 1,-3.3 -1.4,-8.2 0,-11.3 1.7,2.1 1.9,5.7 4.1,7 2.1,-1.6 5.8,-1.2 6.8,1.2 -0.9,-5 -6.7,-5 -9.3,-8.3 m 7.8,-3.7 v 0 c -1.4,-1 -5.8,-0.6 -7.6,-0.2 v 0.8 c 1.8,0.1 6.6,1.1 7.6,-0.6 m -8.2,-1.6 v 0 c -0.6,-1.2 -3.5,-0.6 -4.7,-0.4 -0.5,2.6 4.4,1.4 4.7,0.4 m 5.1,12.5 v 0 c -2.3,1.4 -4.5,2.9 -5.8,5.1 0.8,3.3 4.5,3.5 7.2,4.9 1.4,-0.8 2.1,-1.8 3.7,-2.3 -1.2,-3 -3,-5.6 -5.1,-7.7 m -5.1,2.1 v 0 c 1,-0.2 1.6,-0.8 1.7,-1.6 -0.6,-1.2 -1.2,-2.1 -2.3,-2.7 0.3,1.4 0.3,3 0.6,4.3 m 12.3,5.9 v 0 c -1,-2.3 -3.1,-6 -5.4,-8 0.8,2.9 3.1,4.7 4.1,7.4 -1,1.8 -4.7,1.9 -3.9,4.5 1.5,-1.6 3.8,-2.2 5.2,-3.9 m -1.6,-4.5 v 0 c 0.6,1.8 2.5,2.5 2.1,5.3 -1.7,1.4 -5,1.4 -5,4.5 3.5,0.4 5.8,-3.7 6.6,-5.8 -1,-1.5 -3.1,-4.4 -3.7,-4 m -4.8,49.1 v 0 c -0.4,-3.5 0.8,-8.4 -0.6,-10.9 0.2,2.4 -1.2,8.6 0.6,10.9 m 1.5,-12.6 v 0 c 0,-1.6 -0.8,-2.3 -1.2,-3.3 -3.9,0.4 -11.8,-2 -9.5,3.5 3.7,-0.4 7,0 10.7,-0.2 m 0,12.6 v 0 c 0,-5.1 -0.4,-7 0,-10.7 -0.4,0 -0.4,-0.4 -1,-0.2 0.4,3.7 -0.1,7.6 1,10.9 m -6,-18.9 v 0 c 0.2,-1.2 1.2,-1.6 1.2,-3.1 0.9,0.4 0.4,3.5 -1.2,3.1 m 0.4,-15.4 v 0 c 0.6,2.9 0.8,6.4 1.4,9.4 -1.2,2 -3.5,2.5 -4.5,4.7 -0.4,1 1.6,1.2 0.6,1.8 -0.4,-0.8 -1.4,-0.8 -1.4,-1.8 0.4,-2.9 3.7,-2.7 4.1,-5.3 0.6,-2.7 -1.9,-5.8 -1.2,-9.9 -7,-0.6 -2.3,10.1 -4.1,15.6 1.4,2.9 5.8,2.5 8.5,1 -0.6,-1.8 0,-3.5 0.6,-5.1 -1.9,-1.6 -1,-6.6 -1.6,-9.8 -1,0 -1.8,-1.2 -2.4,-0.6 m -0.4,33.2 v 0 c -0.8,-0.4 -1.4,0.2 -1.9,-0.2 0.2,-0.4 2.3,-0.8 1.9,0.2 m -2.7,-3.7 v 0 c -0.4,-1.4 1.2,-1.6 1.7,-0.8 0,1 -0.9,0.8 -1.7,0.8 m 1.7,-2 v 0 c -0.8,0.2 -2.3,-0.4 -2.5,0.4 -1.2,-1.4 2.3,-2 2.5,-0.4 m 0,3.9 v 0 c 1.7,0.4 0.8,-2.3 0.8,-3.3 0.6,-1 1.2,-1.6 2.5,-1.2 0,-1.6 0,-2.9 -0.6,-3.9 -1.7,0.6 -4.7,0 -6.4,0.6 -1.4,3.7 -0.4,9 1.9,10.7 h 3.1 c 0.8,-1.6 2.3,-2.3 1.9,-5.1 -2.6,-0.5 -0.4,3.8 -3.2,2.2 m -4.2,-32.2 v 0 c 2.1,-0.2 6,-2.1 7.2,-3.9 -3.5,0.2 -5.7,1.8 -7.2,3.9 m 27.1,1.4 v 0 c -0.4,1 -1.4,1.6 -1.2,3.1 0.6,0.8 1.4,1.6 2.1,2.1 2.3,-1.6 4.9,0 8,0.4 -0.2,-1.6 -0.4,-2.7 -0.6,-3.9 -3.7,-1.8 -6.8,-4.1 -12,-4.1 0.1,2 3.2,0.8 3.7,2.4 m -1.5,5.1 v 0 5.7 h 1.7 v -5.1 c -0.9,0 -0.5,-1 -1.7,-0.6 m 2.5,5.8 v 0 h 1.9 c 0,-1.6 0.4,-3.9 -0.2,-5.1 -2.5,-0.3 -1.3,3.2 -1.7,5.1 m 2.9,-0.8 v 0 c 0.6,0.6 1.4,-0.2 1.9,-0.4 V 325 c -0.6,-0.2 -0.8,-0.6 -1.4,-0.6 -0.5,1.6 0.1,3 -0.5,4.5 m 3.5,-3.7 v 0 h -0.8 c 0.6,2 -0.2,5.3 1.7,5.8 0.3,-1.3 -0.7,-3.8 -0.9,-5.8 m -0.2,-5.6 v 0 c 4.1,0.4 2.1,7.6 3.3,9.9 1,-1.2 2.5,-1.8 3.1,-3.1 1.6,-5.7 -3.1,-8.8 -6.4,-6.8 m -10.8,-25 v 0 c -1,0.6 -1.9,2.3 -0.8,3.3 0.8,0 1.7,0.2 1.6,-0.8 -1.8,-0.3 0.5,-1.5 -0.8,-2.5 m 0.2,8.2 v 0 c 0,0.4 -0.2,0.6 -0.6,0.8 2.5,2.5 5.2,4.7 7,7.6 -1,-3.9 -2.8,-7.2 -6.4,-8.4 m 6.4,4.5 v 0 c -0.2,1.6 1.4,1.8 1.6,0.2 -0.9,0.4 -0.9,-0.4 -1.6,-0.2 m -2,5.6 v 0 c 0.8,0.8 5,1 6,0 -0.5,-1.5 -5.2,-1.1 -6,0 m -3.9,15.6 v 0 c 1.2,-2.7 0.2,-7 1.2,-9.6 -0.8,-0.4 -1.4,-0.8 -2.5,-0.8 -0.4,3.5 -0.6,7.2 0,10.3 h 1.3 z M 129.4,305 v 0 c 1.7,-0.8 2.5,-2.5 3.7,-3.9 0.2,-1 -0.6,-1 -0.6,-2 -2.1,-0.4 -3.7,-1.4 -4.3,-3.3 -1.9,-0.2 -3.1,0.4 -3.9,1.4 0.9,3.5 2.2,6.4 5.1,7.8 m -5.6,-14.9 v 0 c 1.6,1 4.5,1.9 6.8,1.2 1.2,-4.3 3.5,-7 7.8,-8.2 -0.2,-2.5 -1,-7 -3.3,-5.8 -4.5,1.9 -11.3,6.6 -11.3,12.8 m 18.9,-1.7 v 0 c -0.8,0 -0.6,-0.4 -1.2,0 0.2,0.8 0.6,1.2 0.8,1.8 0.4,-0.5 0.4,-1 0.4,-1.8 m 5.8,6.4 v 0 h -0.8 c 0.2,0.8 0.4,1.8 1,2.1 0.7,-0.9 -0.6,-0.9 -0.2,-2.1 m -0.4,-0.8 v 0 c 1,1 1.9,3.5 0,4.3 0,-0.4 0.2,-1 -0.4,-1 -1,0.4 0,1.4 0,1.8 2.9,0.4 3.3,-4.9 0.4,-5.1 m 3.1,12.9 v 0 c -1.4,1 -3.3,2.7 -4.5,4.7 -1,1.8 -2.3,4.9 -0.8,6.4 2.3,-2.3 1.7,-7.6 4.7,-9.4 -1.4,2.3 -3.5,6.6 -1.9,10.1 1.7,-0.2 0.8,-3.3 2.3,-3.7 -0.6,1.4 -0.8,3.1 -0.4,4.5 1.6,0.2 1.7,-1 3.1,-1 -0.8,1 -1.2,2 0,2.9 -1,-0.2 -2.5,-1.2 -3.7,-0.4 0.6,1.4 1.2,2.7 1,4.7 1.7,0.2 4.5,-0.6 6.4,0.2 1,0.4 1.4,2.1 1.9,1.2 -0.7,-8.5 -2.1,-16.7 -8.1,-20.2 m 3.1,41.3 v 0 c -0.2,-1.2 0.4,-1.4 0.4,-2.5 0.6,-0.4 0.4,2.7 -0.4,2.5 M 148.5,333 v 0 c -0.8,2.5 -8.5,19.7 -12.2,10.7 1.2,0.4 1.6,1.4 2.7,1.8 4.4,-2.9 6.6,-8 9.5,-12.5 m -4.5,3.7 v 0 c -0.8,1.6 -2.5,5.3 -4.9,5.7 -4.1,0.6 -7.2,-5.8 -9.5,-8.4 3.1,2.3 5.4,5.5 8.9,7.2 2.2,-1.1 3.6,-3.1 5.5,-4.5 m -15.3,-1.1 v 0 c 3.7,4.1 5.8,9.8 9.9,13.3 1.7,-0.6 2.1,-2.1 3.7,-2.7 -0.8,2 -1.9,3.7 -3.9,4.5 -4.5,-3.8 -6.8,-9.9 -9.7,-15.1 m 30.6,-6.7 v 0 c -8.5,-8 -14.4,7.2 -21.2,7.2 -2.3,0 -4.7,-2.3 -5.4,-3.5 2.7,1.9 7.2,2.5 9.5,0 -1.6,-0.2 -5,1.2 -5.6,-0.6 2.5,0 4.5,-0.6 5.6,-1.8 -1.2,-0.4 -2.1,0.4 -3.1,0.6 -7.8,0.8 -12.2,-7.8 -19.2,-3.7 -0.2,-1.6 0.6,-6.4 -1.4,-7.2 -0.6,2.3 -0.2,6.2 1.4,7.6 -2.9,5.1 1.7,11.1 3.3,15.6 0.6,1.6 0.2,3.1 1.7,3.5 0.8,0.2 -0.2,-1.4 0.6,-1.2 1.2,3.3 -1.6,4.9 -2.3,7.2 h 3.1 c 1.4,-1.2 1.6,-3.5 1.9,-5.7 1.4,1.6 0,3.5 0,5.5 0.8,0.4 1.6,0.4 2.3,0 0.4,-1.6 -0.4,-2.1 0.2,-3.3 0.6,1.4 0,3.7 2.3,3.3 -1,-6.8 -5,-11.7 -6.4,-17 3.1,5.5 6.2,11.1 8.9,17 1.9,0.2 3.1,0.4 5.2,0 4.1,-5.5 7.4,-11.7 10.9,-17.7 -2.5,6.4 -6,11.9 -9.1,17.7 1.7,-0.2 2.9,0.2 4.1,0 1.4,-6.2 4.5,-10.5 7,-15.4 -0.8,5.3 -5.8,10.3 -4.7,15.4 1.4,-0.8 0.2,-3.9 1.6,-4.5 0.2,1.6 -0.2,3.7 0.4,4.7 h 1.4 c 0.6,-1.2 -0.6,-4.1 0.2,-5.7 0.4,2 0.8,4.1 1.7,5.5 0.8,-0.2 2.1,0.4 2.5,-0.4 -4.3,-5.3 6.3,-15.3 2.6,-23.1 m 0.8,23.6 v 0 c 1.4,-1.6 0,-6.4 0.6,-7.8 0.8,2.1 0,6 1.2,7.8 0,-3.9 -0.4,-7.4 -0.4,-10.3 -1.2,-0.4 0,1.8 -1,1.6 -0.2,-0.6 0.4,-1.9 -0.6,-1.6 -0.2,4.1 0.4,6 0.2,10.3 m 9.9,-6.8 v 0 c -1.2,0 -1.9,0.2 -2.5,0.4 -0.2,-1.4 2.3,-1.6 2.5,-0.4 m -3.1,3.7 v 0 c -1.9,2.1 -1,-3.1 -3.1,-2.5 0,-0.8 1,-0.4 1.4,-0.8 0.2,-1 -1.6,0 -1.4,-1.2 0.8,0 1.6,-0.2 1.9,0.2 0.6,1.8 -0.9,4.1 1.2,4.3 m 0.8,1.8 v 0 c -1.2,-0.2 -0.8,-0.2 -1.9,0 -0.4,-1 2.3,-1 1.9,0 m 0.4,-3.5 v 0 c -0.2,-0.2 -0.4,-0.4 -0.4,-0.8 0.4,-0.4 1,-0.4 1.7,-0.2 0,0.8 -0.5,1.2 -1.3,1 m 3.9,-5.5 v 0 c -3.5,-0.2 -6.4,-1.2 -8.7,0 0,4.1 -0.4,8.4 1.7,10.3 6.8,2.2 7.4,-5 7,-10.3 m 0,12.3 v 0 c -19.4,-1 -44.3,-0.8 -62.9,-0.2 -0.6,0.2 -0.2,1.8 -0.2,2.3 16.9,0.8 40.6,0.4 56.1,0.4 2.1,0 8.5,2 7,-2.5 m -55.4,27.3 v 0 c -0.6,-2.7 -2.3,-5.7 -1.4,-8.8 2.1,0.8 3.3,2.7 6,3.1 1.7,-1.6 3.3,-3.5 4.3,-5.8 -0.6,-1 -1.9,-1.6 -3.1,-1 -0.4,1.4 1.7,1.2 1.2,1.8 -1.6,-1.2 -2.3,0.4 -3.7,0.8 -2.5,-0.8 -2.9,-3.5 -6.2,-3.5 -1.7,3.5 -0.4,9.7 0.4,13.5 1.2,-0.5 2,0.5 2.5,-0.1 m -0.4,-6.5 v 0 c 0,1.9 0.8,5.1 1.7,6.6 h 1.9 c -0.8,-2.3 -0.8,-5.8 -3.6,-6.6 m 17.9,7.1 v 0 c -0.2,-1.8 0.4,-2.5 0.4,-4.1 -2.5,-1.2 -3.7,1.6 -3.7,3.7 0.8,0.6 2.3,0.2 3.3,0.4 m -3.9,-15.8 v 0 c 1.6,2.7 3.1,5.7 4.5,8.8 0.4,-2.1 0.8,-4.3 1,-6.6 -0.8,-0.6 -1.6,-0.4 -2.5,-0.2 1,-0.8 1.2,-3.7 0,-4.3 -0.3,1.7 -0.8,2.7 -3,2.3 m 7.4,15.8 v 0 c -0.2,-5.7 0.8,-8.8 0.6,-13.8 -3.7,1.8 -2.5,10.1 -2.5,13.8 z m 3.3,0 v 0 c -0.4,-5.7 0.4,-9.2 -0.2,-14.4 h -1 c -1.9,3.1 -1.7,10.3 -0.8,14.4 z m -3.3,-15 v 0 c 2.1,-0.2 4.5,-0.4 6.6,0 -0.6,-2 -6,-2 -6.6,0 m 4.1,1.7 v 0 c 0.2,3.9 -1.4,12.7 1.9,13.5 1,-3.3 0.4,-9.9 0,-14 -0.6,0.2 -0.6,-0.6 -1.4,-0.2 0.1,0.3 -0.3,0.3 -0.5,0.7 m 10.5,-2.5 v 0 c 0.4,-0.8 0,-2.1 1.4,-1.9 0.6,-0.2 0.8,1.2 0.2,1.4 -0.6,0.2 0.2,-1.4 -0.8,-0.8 -0.4,0.6 -0.2,1.8 -0.8,2.1 -1.2,0.2 -1.2,0.4 -2.5,0.4 0.4,1.4 1.4,2.1 2.7,2.5 1.4,-0.4 0.8,-2.7 1.7,-3.5 1.6,0.8 3.9,0.6 6,0.6 0.6,-1.8 0.4,-2.9 1.4,-4.5 -5.2,0 -10.1,-0.8 -15.9,-0.6 -0.2,1.6 -0.8,2.7 -1,3.9 1.5,1.7 5,0.6 7.6,0.4 m -3.5,15.8 v 0 c -0.2,-0.8 0,-2 -0.8,-2 0,0.8 -0.2,2 0.8,2 m 5,-1.8 v 0 c 1.7,3.5 6.4,1.6 6.2,-2.3 -2.1,-1 -4.9,-1.6 -8.2,-1.4 -0.8,1.8 -1.6,3.3 -1.7,5.5 0.8,0.4 2.3,0.2 3.5,0.2 0,-1.2 -0.6,-1.4 0.2,-2 m 11.9,-11.3 v 0 c 0.8,4.1 -1.4,9.4 -1.6,13.1 1.2,0 1.9,-0.2 2.5,-0.4 0.8,-3.1 2.3,-9.6 0.4,-12.7 -0.2,-0.8 -0.8,0.4 -1.3,0 m -3.1,13.1 v 0 c 1.4,-3.5 2.3,-7.6 2.5,-12.5 -0.4,-0.8 -1.6,-0.2 -1.7,-0.6 1.6,-1.2 4.7,-1.4 7,-0.8 0.4,-1.2 -1,-0.8 -1.2,-1.4 -5.8,-0.6 -7,3.7 -10.9,5.3 -0.6,-1.6 -3.3,-1.8 -3.9,-1.2 0,-0.8 1.6,-1.2 0.8,-1.9 -1.4,-0.6 -2.3,0.8 -2.7,1.9 1.4,3.5 6.6,6.8 9.5,2.5 0.2,-1 -0.2,-3.1 0.8,-2.7 -0.2,4.5 -1.6,7.8 -3.1,10.9 0.7,0.7 1.9,0.9 2.9,0.5 m 0.7,-19.5 v 0 c 0.4,0.2 1.2,0.2 0.8,1.2 h -1 c -0.2,-0.6 0.2,-0.8 0.2,-1.2 m -1.3,3.1 v 0 c 0,0.8 -1,1.6 0,2.3 1.9,0 2.3,-1.4 4.3,-1.6 -0.8,-1.4 -0.6,-2.3 0,-3.9 -0.6,-1 -1.6,-1.4 -2.9,-1.6 0.4,1.6 -1.6,2.3 -1.9,3.9 -0.1,0.5 0.5,0.5 0.5,0.9 m -0.4,2.3 v 0 c -0.2,-0.2 -0.2,-0.4 -0.8,-0.4 -0.4,0.4 -0.6,1.2 -0.8,1.8 0.4,0.4 1.8,-0.4 1.6,-1.4 m 4.6,-2.3 v 0 c 1,0.2 2.3,1.2 3.5,0.2 -0.2,-2.4 -4.6,-3.9 -3.5,-0.2 m -4.2,-7.6 v 0 c 2.7,3.3 6.4,5.5 9.7,7.8 -2,-3.9 -5.7,-5.9 -9.7,-7.8 m 9.7,13.4 v 0 c 0.2,-1 -0.2,-1.6 -0.8,-1.9 0.4,0.6 0,1.9 0.8,1.9 m -2.7,-2.5 v 0 h -0.6 c 1,4.3 -0.2,9.2 0,13.1 3.9,-0.4 3.1,-12.3 0.6,-13.1 M 161.1,359 v 0 c -1.6,-1.6 -4.7,-0.8 -7.4,-0.8 h -8.5 c 0,1 0.2,0.6 0.8,0.8 4.2,0.9 11,-0.6 15.1,0 m -14.4,11.5 v 0 c 0.4,-1 0.8,-1.6 1,-2.7 h -1.6 c -0.3,0.7 0,2.1 0.6,2.7 m 0,12.1 v 0 c 0.8,-1.2 -0.2,-4.1 -0.2,-6.8 -0.2,-3.1 0.4,-6.2 -1.7,-7 0,0.4 -0.4,0.4 -0.2,1 0,0.8 -0.2,1.8 0,2.7 0.2,3.2 0.2,8.7 2.1,10.1 M 143.6,364 v 0 c -0.6,-0.2 -0.2,-1.8 0,-2 1,0.5 0.4,1.5 0,2 m 0.4,1.2 v 0 c 1,-2.5 0.8,-4.9 -0.6,-6.8 -5.6,-2.3 -8.5,3.5 -5.6,7.4 1.7,-0.6 4.5,0 6.2,-0.6 m -12,0.8 v 0 c 0.6,-1 0.2,-2.9 1.9,-2.7 -0.2,1.2 0.4,1.6 0.2,2.7 0.8,0.2 1.7,0.6 2.3,0 0,-1.6 -0.6,-2.5 -0.8,-3.9 -5.8,-0.8 -10.7,0 -17.1,0.2 0.4,1.6 1.6,2.1 1.4,4.3 h 3.7 c 0.6,-0.6 0,-2.3 0.8,-2.5 1.6,-0.2 0.8,1.6 1.9,1.8 1.4,0.5 3.9,-0.1 5.7,0.1 m -18.3,-0.2 v 0 c 0.4,-1.2 0.8,-1.4 0.4,-2.5 -1.9,0 -3.3,2 -3.3,2.9 0.6,0.6 2,-0.4 2.9,-0.4 m -0.4,0.8 v 0 h -1.7 v 0.6 c 0.6,-0.2 1.9,0.3 1.7,-0.6 m 0.8,-3.7 v 0 c 1.2,1 0.6,2.3 0,3.3 2.1,0 1.6,2.9 3.9,2.9 -0.4,-1.8 0.6,-2.1 0.8,-3.1 -1.6,0 -0.4,-1.2 0,-1.8 -1.2,-0.8 -1.6,-2.5 -3.1,-2.9 -0.8,0.2 -1.4,0.8 -1.6,1.6 m 5.1,4.5 v 0 h -1 c -0.2,1.9 0.4,2.9 1.7,3.1 0,-1.4 -0.4,-2.2 -0.7,-3.1 m 17.2,-9 v 0 c -5.2,-0.4 -12.6,-0.4 -17.9,0 0,0.4 0.2,0.6 0.2,0.8 4.7,-0.8 12.9,0.5 17.7,-0.8 m -7.7,8.2 v 0 h -2.9 c -0.4,-0.8 -0.2,-2.1 -1.4,-1.9 0,2.3 -0.8,4.3 1.4,4.7 1.3,-0.7 2.3,-1.7 2.9,-2.8 m 0,15.4 v 0 c 0,-1.6 -0.4,-2.7 -1,-3.9 -1.9,-0.6 -5.8,-0.6 -7.2,0.6 0,1.4 1.2,1.6 1.2,3.1 1.7,0.8 3.3,-0.2 4.5,-1 v 1.2 c 1.1,-0.2 1.7,0.8 2.5,0 m -17.5,-0.2 v 0 h 2.1 c -1.4,-4.1 -1.4,-9.6 -1.2,-13.5 h -1 c -1.5,4.3 -1.5,9.2 0.1,13.5 m -2.3,-16.4 v 0 c 1.6,0.2 3.1,-1.8 4.5,-2.7 1.4,-1.2 3.3,-2.5 3.9,-4.3 -3.6,1.7 -6.5,4.1 -8.4,7 m 0.2,-2.5 v 0 c 1.9,-0.8 3.3,-2 4.5,-3.7 -0.4,-1.4 -3.3,-1.4 -4.7,-0.8 0,1.5 -0.4,3.5 0.2,4.5 m 62.3,0.4 v 0 c 2.7,-3.7 -3.3,-6.8 -5.2,-3.7 1.5,1.1 3.2,3.7 5.2,3.7 m 0,27.4 v 0 c 0.4,-1.8 0.2,-5.7 0.2,-7 -18.6,-0.2 -41.9,-0.6 -62.3,-1 -0.2,0.2 -0.2,0.4 -0.2,0.6 -0.6,1.8 -0.4,5.1 0,6.8 2.1,-1.8 2.3,-5.5 5.2,-5.7 3.3,-0.2 4.7,3.1 6.2,5.8 h 1.2 c 1.9,-6.2 9.5,-6.6 11.1,0 3.7,0.8 3.7,-4.5 6.8,-5.1 2.3,-0.4 4.5,1.2 5.2,2.3 1.4,1.9 0.8,3.7 2.9,3.3 1.2,-0.2 1.6,-2.7 2.7,-3.9 3.7,-3.7 7.8,0.4 8.9,3.9 3.5,-0.8 2.1,-4.9 5.6,-5.7 3.8,-0.3 4.7,3 6.5,5.7 m -61.8,-9.3 v 0 c 0.2,-1.2 -0.2,-4.3 -0.8,-5.7 0.5,1.8 -0.9,5.3 0.8,5.7 m -1.1,-64.6 v 0 c 1.6,-2.5 5.2,-3.1 7.2,-5.1 -3.1,-0.6 -1.9,-5.7 -4.9,-6.4 -2.5,1.4 -5.6,1.9 -6.4,4.7 1.2,2.4 2.5,4.9 4.1,6.8 M 88.9,293.3 v 0 c 0.2,-0.8 0.6,-1.2 -0.2,-1.4 -0.4,0.2 -0.4,1.4 0.2,1.4 m -2.5,0.2 v 0 c 1,0 1.7,-0.2 1.7,-1 -0.2,-0.2 -0.4,-0.4 -0.2,-0.6 -0.8,-0.2 -1.4,-0.2 -1.7,0.2 -0.2,0.6 0,1.2 0.2,1.4 M 86,293.3 v 0 c -0.2,-0.6 -0.2,-1.2 -1,-1.2 0,0.8 0,1.4 1,1.2 m -18.1,-5.1 v 0 c 3.5,1.6 8.3,0 12.4,0.2 2.9,0.2 5.8,0.4 8.9,-0.2 -4.3,-1.8 -10.3,-0.8 -15.1,-0.6 -2.1,0 -4.4,-0.6 -6.2,0.6 m 2.5,-1.8 v 0 c 0,-3.1 0.6,-9.2 -0.4,-12.3 -0.1,2.6 -1.3,9.8 0.4,12.3 m -1.5,-13.6 v 0 c 5.6,0.2 13.8,0.8 19,-0.4 -5.8,-0.8 -15.3,-1.2 -19,0.4 m 3.3,2.1 v 0 c 1.2,-0.2 3.1,-0.6 4.3,0 0.2,3.3 0.2,6.8 0.2,10.5 -1.2,0.2 -3.1,0.8 -4.3,0.2 0,-2.9 -0.6,-7.9 -0.2,-10.7 m -0.8,11.5 v 0 c 1.4,0.6 4.7,0.6 6,0 0,-4.1 -0.4,-8 -0.2,-12.3 -1.6,-0.6 -4.1,-0.2 -5.8,-0.4 -0.8,4.2 0.4,8.2 0,12.7 m 7.8,-12.3 v 0 c -0.4,0 -0.4,-0.4 -0.8,-0.4 -0.6,3.7 -0.6,9.4 0,13.1 2.3,-2.3 0.2,-8.2 0.8,-12.7 m 1.9,0.8 v 0 c 1,-0.2 2.7,-0.6 3.7,0 0.4,3.3 0.4,6.8 0.6,10.5 -1.2,0.2 -2.5,0.6 -4.1,0.4 -0.2,-3.3 -0.8,-7.6 -0.2,-10.9 m -1.2,-0.8 v 0 c -0.2,4.5 0.4,8.2 0.4,12.3 1.4,0.6 4.3,0.4 5.8,0 0.2,-4.3 -0.4,-8 -0.2,-12.3 -1.9,-0.5 -4,-0.5 -6,0 m 6.8,0 v 0 c 0.4,4.9 -0.6,9.2 0.8,12.3 0,-2.9 0.4,-9.3 -0.8,-12.3 m -17.8,-3.3 v 0 h 19.8 c -3.5,-3.3 -6.4,-6.8 -10.3,-9.4 -1.9,1.4 -3.5,3.3 -5.4,5.1 -1.6,1.4 -4.5,2.8 -4.1,4.3 m 32.4,-25.9 v 0 c -6.6,5.7 -14,10.3 -20,16.6 1.7,0.2 2.1,-1 2.9,-1.8 6.6,-4.5 13,-9.4 18.6,-14.8 z m 64.5,40.8 v 0 c 1.6,0.2 5.6,0.8 6.8,-0.2 -0.8,-1.9 -4.7,-0.6 -6.8,-1 z m 1.7,1.7 v 0 c 1.6,0.8 2.5,0 5,0.2 -0.5,-1.2 -4.6,-1.6 -5,-0.2 m 28,8 v 0 c 0,-0.6 1.6,0.2 1.4,-0.8 -1.7,-0.4 -3.5,-0.4 -4.9,0.6 0.8,0 1,0.4 1.2,0.8 -0.4,0.4 -1.6,0.2 -1.4,1.2 1.6,1 2.1,2.3 2.5,3.9 0.6,-0.2 0,-1.8 0.2,-2.5 1,-0.2 2.3,-0.2 2.3,-1.4 -0.2,-0.8 -1.3,-0.8 -1.3,-1.8 m 0.3,-2.9 v 0 c -0.2,0.2 -0.2,0.6 -0.2,1.4 0.6,0 1,-0.2 1.2,-0.4 0,-0.6 -0.4,-0.8 -1,-1 m -0.9,1.3 v 0 c 0.2,-1.4 -0.6,-1.6 -1.4,-1.2 -0.2,1 0.4,1.2 1.4,1.2 m -2,0 v 0 c -0.2,-0.6 -0.2,-1.2 -1,-1.2 0.1,0.9 0.1,1.4 1,1.2 m 1,-23.4 v 0 c 5.8,0.8 11.1,0 17.1,0 -2.9,-2.9 -5.2,-6.2 -8.9,-8.4 -1,1.6 -2.9,2.7 -4.5,4.3 -1.4,1.2 -3.9,3.2 -3.7,4.1 m 18.8,1.4 v 0 c -7,-0.6 -11.6,0.4 -19,0 5.3,1 14.2,1 19,0 m -18.2,1.8 v 0 c 0.4,5.1 -0.8,11.3 1,13.8 -0.6,-4.3 0.1,-9.7 -1,-13.8 m 3.1,3.9 v 0 c -0.4,1.9 0,2.1 0,4.5 v 1.8 c -0.2,0.6 0.4,1.4 0.4,0.2 -0.2,-2.1 0.2,-5 -0.4,-6.5 m 3.7,8.7 v 0 c -0.8,0.6 -2.7,0.2 -3.9,0.2 -1,-3.7 -0.4,-7.2 -0.6,-11.5 1.2,-0.2 2.9,-1 4.1,-0.2 0.8,3.3 0.2,7.8 0.4,11.5 m 0.8,-12.8 v 0 h -6 c -0.2,4.1 -0.4,9.7 0.4,14.2 2.3,-0.2 4.1,-0.2 6,-0.2 -0.1,-5.8 -0.3,-9.4 -0.4,-14 m 1.1,0.2 v 0 c -0.4,3.9 -0.8,10.3 0.2,13.8 0.4,-3.9 1,-10.5 -0.2,-13.8 m 2.2,1.3 v 0 c 1.2,-0.6 3.3,-1.2 4.5,-0.6 0.4,3.7 0.8,8.6 0.4,12.1 H 207 c 0,-4.7 -0.4,-7 -0.4,-11.5 -0.8,3.3 0.2,8.4 -0.2,11.3 -1.6,-2.7 -0.7,-7.4 -1,-11.3 m -0.8,12.5 v 0 c 1.9,0 4.7,0.2 6.8,-0.4 -0.6,-3.9 0,-9 -0.6,-13.5 -1.6,-0.6 -4.3,-0.2 -6.2,-0.2 -0.4,4 0.2,8.6 0,14.1 m 7.4,-13.3 v 0 c 0.2,4.1 -0.8,9.7 0.4,12.9 z m 3.3,14.7 v 0 c -7,-1.4 -16.1,-0.2 -23.5,-0.6 -0.4,0 -0.4,0.2 -0.6,0.2 v 1 c 7.9,-0.4 17.3,0.5 24.1,-0.6 M 200.9,303 v 0 c -0.6,0.2 -1.2,0.4 -2.1,0.4 -0.2,1.4 0.2,2.1 1.7,2 0,-1.4 1.2,-1.8 1.4,-3.1 -0.2,-0.6 -1.4,-1.4 -1.7,-0.6 0.5,0.1 0.9,0.5 0.7,1.3 M 199,292.5 v 0 c 0,0.4 -0.6,0.6 -0.6,1.4 h 2.9 v -1.2 c -0.6,-0.6 -1.6,0.6 -2.3,-0.2 m 3.1,0.8 v 0 c 0.4,0.6 2.7,1 2.3,-0.6 -1,0 -2.3,-0.4 -2.3,0.6 m 3.3,10.1 v 0 c 0,0.8 0,1.6 0.4,2 0.8,-0.2 1.6,-0.4 1.4,-1.8 -0.9,0.2 -0.9,-0.4 -1.8,-0.2 m -0.4,-1 v 0 c 0.6,0 1.2,-0.4 1.6,-0.8 -0.4,-0.4 -1,-0.4 -1.6,-0.2 z m 2.3,-9.5 v 0 c 0,-0.4 -2.1,-0.6 -1.9,0.4 0.2,0.7 1.9,0.3 1.9,-0.4 m 2.5,-0.4 v 0 c -0.4,0.4 -0.4,1.6 0.6,1.4 0.6,-0.4 0.4,-1.6 -0.6,-1.4 m 2.9,0.2 v 0 h -1.4 c -0.2,1 0.4,1.2 1.4,1.2 z m 0.6,0 v 0 c -0.2,0.8 0.4,1 1,0.8 0.4,-1 -0.6,-1.2 -1,-0.8 m -100,109.6 v 0 c 1.2,-0.2 2.3,-0.6 3.9,-0.6 -0.2,-1.8 -1.4,-2.7 -2.3,-3.7 h -6.6 c 1,1.8 2.5,3.3 3.9,5.1 1.4,1.8 2.5,3.7 3.9,4.5 -0.8,-2 -2.2,-3.2 -2.8,-5.3 m 4.5,12.2 v 0 c -1.6,-8.2 -7.4,-11.7 -12,-16.6 -1.6,0.2 -3.1,0 -4.7,0 -2.7,0 -5.2,0 -7.4,0.4 9.9,3.4 17.7,9.2 24.1,16.2 M 84.8,396 v 0 c 2.9,0.6 8.7,0.2 13,0.4 0.6,-1.2 0.8,-2.7 0.6,-4.5 -3.5,-1 -9.5,-0.8 -13.4,-0.4 -0.6,1 0,3.1 -0.2,4.5 M 63.3,251.9 v 0 c -1,0.4 -2.7,0.4 -3.7,0 -4.3,-7.6 8.5,-5.6 3.7,0 m 0.5,1.2 v 0 c 0.6,-1.4 1,-3.1 1.4,-4.5 2.1,2.3 5,3.9 5.2,8.2 -3.7,1.7 -4.8,-2.2 -6.6,-3.7 m -3.7,-9.6 v 0 c -0.8,3.3 -4.7,6 -2.1,10.1 1.2,0.6 3.1,0.6 4.7,0.2 0.2,1.2 -0.4,1.4 -0.2,2.3 3.1,1.2 4.1,5.8 8.9,3.3 0,-1.2 -0.4,-2.9 0.2,-3.7 0.6,-0.4 2.1,-0.2 3.1,-0.2 0.6,-0.8 0.2,-2.5 0,-3.5 -4.7,-0.4 -6,-4.5 -8.2,-7.4 -2.7,0.3 -4,-0.9 -6.4,-1.1 m 23.3,-15.2 v 0 c 4.3,-0.6 8,7.4 7.4,11.9 -3.5,-2.9 -5.6,-7.2 -7.4,-11.9 m -1.5,-0.6 v 0 c 0,2.1 -0.6,3.7 -0.8,5.7 2.5,2.3 4.1,5.7 6.2,8.8 2.1,-0.2 3.9,0.4 5.8,0.4 4.1,-6.4 -2.3,-11.1 -4.3,-16.6 -3.1,-0.8 -6.4,-1.6 -9.7,-2.3 -0.4,0.8 -0.6,1.8 -0.6,2.9 1.6,0 3,0.2 3.4,1.1 m 7.4,-7 v 0 c 1.6,1 2.3,-1 2.5,-2.5 -1.6,-1 -2.1,1.4 -2.5,2.5 m 3.5,0.8 v 0 c -0.6,1 -0.8,2.3 -1.4,3.5 2.9,2.9 4.1,7.6 5.6,11.7 1.7,0 2.3,1.2 3.7,1.4 0.2,-1 0.8,-1.8 0.8,-2.9 -2.7,-0.4 -3.3,-4.3 -3.9,-6 -1.7,-1.5 -1.2,-7.3 -4.8,-7.7 m 8.5,20.7 v 0 c -1,0.2 -2.1,-0.6 -1.7,1.4 10.1,1 21.4,-0.4 30.7,0 2.1,0 5.8,1.6 6.4,-1.2 -4.7,-1 -11.3,-0.6 -17.9,-0.6 -6.4,0 -13.6,-1 -17.5,0.4 m 4.7,-4.1 v 0 c 1.9,1.8 4.9,0.8 7.4,1 6,0.2 14.2,0.4 21.2,0.2 1,0 3.3,0.8 3.7,-0.8 0,-1.8 -2.1,-1.2 -2.9,-1.2 -10.1,-0.8 -19.2,0.4 -28.5,-0.2 -0.6,0.2 -0.9,0.4 -0.9,1 m 24.6,-2.8 v 0 c 1.4,-6.8 0.4,-11.1 0.8,-18.5 0,-0.2 -0.2,-0.4 -0.6,-0.4 -0.4,6.5 0.2,12.5 -0.2,18.9 m -2.3,-18.5 v 0 15.2 c 0,1.2 -0.8,4.1 1.2,4.1 1,-5.5 1,-14.8 0,-20.1 h -1.2 z m -1.4,-0.4 v 0 c 0.4,6.4 -0.8,14.2 0.6,19.5 -0.4,-7.4 0.6,-13.6 -0.6,-19.5 m -12.8,15 v 0 c 2.9,0.2 3.3,2.9 5,4.5 -0.4,-3.3 -1.9,-5.7 -4.9,-6.4 -0.3,0.4 -0.1,1.2 -0.1,1.9 m 0.2,1.4 v 0 c -0.6,1 0,2.5 0.4,3.3 1,-0.2 2.5,0.4 3.1,-0.2 -1,-1.3 -1.2,-3.3 -3.5,-3.1 m 7.4,2.5 v 0 c 0.6,-2.5 3.1,-2.9 3.9,-5.3 -2.8,0.3 -4.3,3 -3.9,5.3 m 0.8,0.6 v 0 c 0.6,0.4 2.5,0.4 3.1,0 v -3.3 c -1.8,0.4 -2.8,1.6 -3.1,3.3 m -2.6,-6.4 v 0 c 0.8,0 1.9,-0.2 2.3,0.2 -0.1,0.4 -2.5,0.8 -2.3,-0.2 m 1.8,-1.2 v 0 c 0.4,-1.6 0.2,-4.7 2.1,-3.7 0.2,1 -1.2,0.2 -1.4,1 0.2,0.6 1.7,-0.2 1.4,1 -1.3,0 -1.1,1.3 -2.1,1.7 m -1.4,-3.7 v 0 c -0.4,0.4 -2.9,0.8 -2.5,-0.2 0.6,-0.6 2.1,-0.4 2.5,0.2 m -1.7,1.4 v 0 c 0,-0.8 1.6,-0.6 1.4,0.4 -0.6,0.6 -1,0 -1.4,-0.4 m 1.9,6.6 v 0 c 3.3,-0.4 3.9,-5.8 3.9,-9.4 -2.3,-0.4 -4.7,-0.8 -7.6,-0.2 -2.7,3.4 0.2,9.8 3.7,9.6 m -4.8,-8 v 0 c 0.6,-0.4 0.6,-1.6 -0.4,-1.4 -0.6,0.4 -0.4,1.6 0.4,1.4 m 0,-2.5 v 0 c 2.5,-0.6 5.4,-0.6 8.2,-0.2 1,0 1.4,1.6 1.9,0.8 -1,-5.7 -11.1,-4.3 -12,0.6 0.7,0.5 0.9,-1.2 1.9,-1.2 m -5.9,9 v 0 c 0.2,1.8 -0.4,4.9 1.4,5.1 0.8,-7.6 0.4,-13.6 -0.2,-20.5 h -0.8 c 0,0.4 -0.4,0.4 -0.4,0.8 0.2,4.4 -0.2,10.1 0,14.6 m 1.2,-16.6 v 0 c 20.6,1 36.1,0.4 57.5,0.4 1.9,0 5,1 6.2,-1.2 -18.4,-1.2 -45.8,0.2 -67,-1.2 -0.4,0.2 -0.8,0.4 -1.2,0.6 0.4,1.8 3.3,1.4 4.5,1.4 m 39.6,22 v 0 c 1.4,-5.1 0.4,-14.4 -0.2,-20.3 0.2,6.9 0.2,13.1 0.2,20.3 m 1.6,-7 v 0 c 0,2.5 -0.8,5.8 1,7.6 0.8,-5.8 0.8,-15.6 -0.6,-21.1 h -0.4 c -0.2,0.2 -0.4,0.4 -0.4,0.8 -0.2,4.3 0.2,8.6 0.4,12.7 m 2.7,6.4 v 0 c -0.4,-6.4 0.6,-15 -0.6,-19.7 0.2,6.7 -0.6,14.7 0.6,19.7 m 4.6,-1.3 v 0 c 0,1.2 -1.4,1 -1,2.5 1.7,-0.8 2.9,-2.1 4.7,-2.9 0.2,-3.1 3.9,-2.5 4.3,-5.3 -4.7,-1.8 -3.7,4.7 -7,5.3 -1,-1.6 -2.3,-5.3 -4.5,-3.9 0.6,2.1 3,2.1 3.5,4.3 m 8,0.2 v 0 c -1,0.2 -1.4,1 -1.4,2 h 1 c 0.4,-1.1 0,-1.3 0.4,-2 m -2.5,2.3 v 0 c 0,-2.1 3.3,-3.9 1.9,-5.7 -2.1,0.4 -2.7,2.3 -3.7,3.9 -1,0.2 -2.3,0.2 -2.5,1.4 1,0.6 2.9,0.2 4.3,0.4 m -7.4,-10.7 v 0 c 0.2,-0.2 1.7,-1.2 0.4,-1.2 0.4,-0.6 0.6,-0.4 1.4,-0.2 l -0.8,3.3 c 0,-0.9 0,-1.9 -1,-1.9 m 2.9,-1.2 v 0 c 0.6,-0.8 1.7,-1 2.5,-0.2 -0.2,1 -1.3,-0.2 -2.5,0.2 m -3.5,-1.9 v 0 c 2.5,-1.4 8.5,-1.4 9.9,0.8 0.4,-6 -10.1,-6.6 -10.9,-0.4 1.9,2.3 1,7.6 4.1,8 3.5,0.6 4.3,-4.3 5.6,-7.2 -0.8,0.2 -1.2,-0.8 -2.1,-1.2 -2.1,-0.6 -4.8,0.2 -6.6,0 m -0.8,9.5 v 0 c -0.4,1 -0.6,3.9 0.6,4.3 2,-0.8 2.4,-4.3 -0.6,-4.3 m 12.3,-16.4 v 0 c 0.4,6.6 -0.6,14.4 0.6,20.1 0.3,-6.4 0.3,-15.2 -0.6,-20.1 m 1.7,12.1 v 0 c 0.2,2.9 -1,7.2 1.2,8.2 0.6,-7 0.2,-14 -0.4,-20.5 h -0.8 c 0,0.4 -0.4,0.4 -0.2,0.8 -0.2,3.7 0,7.8 0.2,11.5 m 2.7,8 v 0 c 0.2,-5.3 0.2,-14.4 -0.4,-19.7 0.2,7.6 -0.3,13.7 0.4,19.7 m 2.2,2 v 0 c -10.7,-1.2 -20,-0.6 -30.9,-0.8 -0.6,0.2 0,1.6 -0.2,2.1 7,0.6 17.3,0.4 24.9,0.4 2.1,0 5.8,0.8 6.2,-1.7 m -2.6,3.1 v 0 c 1,0 4.3,0.4 5.2,-0.4 -1.7,-0.2 -3.4,-0.4 -5.2,0.4 m 8.4,1.9 v 0 c -2.5,-1.6 -5.8,-1 -8.7,-1 -10.3,0 -18.4,-0.2 -27.6,-0.2 -0.4,0 -0.6,0.4 -0.6,0.6 0.2,0 0.2,0.2 0.2,0.6 8.9,0.8 22.1,0.8 32.4,0.8 1.4,0 3.5,0.8 4.3,-0.8 m 2.1,6.3 v 0 c -1.9,-1.9 -4.5,-4.7 -7,-4.7 3.1,3.9 7.4,6.4 10.9,9.6 3.7,3.1 7.2,7 11.8,9.2 -0.8,-2.3 -3.3,-3.3 -5,-4.9 -3.7,-3.2 -6.6,-5.9 -10.7,-9.2 M 61.9,404.2 v 0 c -1.4,-0.4 -3.3,0 -3.1,-1.8 2.7,-2.7 4.9,-6 8.3,-7.8 0.4,1 0.8,1.9 0.8,3.3 -1.9,2.2 -3.9,4.4 -6,6.3 M 32.6,295.8 v 0 c 3.9,-1.2 9.3,0.4 12.4,1.9 -1.7,3.9 -12.2,3 -12.4,-1.9 m 68.7,-83.3 v 0 c -6.2,0 -9.1,2.3 -13.4,4.5 -3.3,1.8 -6.6,3.1 -9.3,4.5 -17.7,9.7 -30.1,25.3 -41.3,40.2 -11.5,20.7 -22.3,50.5 -17.1,84.4 1.4,7.6 3.5,15.6 6.2,22.4 7,18.1 17.3,34.7 30.5,46.6 18.1,16.2 40.6,29.2 69.9,32 -26.6,-4.3 -48.9,-14.4 -65.2,-28.9 -2.1,-1.9 -5.2,-3.7 -6,-6.8 1.9,-0.2 3.3,0.4 4.5,1 2.5,-6 7.4,-9.6 12,-13.5 -0.6,-1.9 -1.4,-3.7 -1.6,-6 -1.6,0 -4.5,0.2 -6.6,-0.2 -2.7,3.5 -4.7,5.8 -8.7,7.8 0.4,1.2 0.4,2.7 0.4,4.3 1.6,0.2 4.3,-0.6 5,0.6 -1.6,2.5 -3.9,4.3 -6.2,5.8 -20,-21.5 -37.3,-51.5 -34.2,-94.8 0.4,-3.1 1,-6.4 1.6,-9.7 0.4,-3.1 0.8,-6.6 2.5,-9 1.7,0.4 2.1,2.1 2.7,3.9 5.6,-0.2 11.3,0.8 15.5,2.5 1.9,-1.2 3.7,-2.5 5.4,-3.9 -1.4,-1.9 -2.3,-4.3 -2.3,-6.8 -3.9,0.4 -8.7,-0.6 -11.7,-2.1 -1.4,0.8 -2.7,1.6 -3.9,2.5 0.4,1.9 2.1,2.5 2.5,4.7 -3.3,-0.4 -6.4,-0.8 -8.3,-2.1 1.7,-8.4 4.3,-16.2 8.3,-22.6 1.4,0.2 0.4,2.5 1.6,2.9 1.7,-0.2 1,-2 1,-3.3 -0.6,-1 -1.9,0.4 -2.3,-0.4 14.3,-28.7 36.7,-49.2 68.5,-60.5 m 5.8,8.8 v 0 c -1.6,-1.4 -3.1,-2.9 -5.6,-3.3 -0.8,1.8 -1.7,3.5 -2.7,5.3 1,3.5 3.3,7.2 2.7,11.3 1.4,0.4 2.5,1 3.7,1.6 0.4,-1.2 1.2,-1.8 1.4,-3.3 -1,0.2 -1.4,-0.2 -1.9,-0.2 -1.2,-3.7 -3.1,-8.2 -3.1,-12.1 1.4,0.6 2.9,1.2 3.7,2.5 -0.8,0.6 -1,1.8 -1.2,2.9 0.9,-1.6 1.7,-3.3 3,-4.7 m -0.8,9 v 0 c 0,-0.4 0.4,-0.8 0.4,-1.2 -0.6,-0.6 -0.6,0.6 -1.6,0.4 -0.8,-0.8 -0.2,-2.7 -1.2,-3.1 -0.5,1.7 0.7,3.7 2.4,3.9 m 73.2,-18.5 v 0 c -22.3,-8.2 -54.9,-8.8 -77.5,-0.2 26.9,0 52.7,1.5 77.5,0.2 m 9.9,10.9 v 0 c -1.7,3.7 -8,-2.5 -8.3,-5.7 4.3,-0.6 7,2.6 8.3,5.7 m -3.8,12.6 v 0 c 1.7,-2 0.4,-5.1 -1.4,-5.8 2.5,-2.7 5.4,3.3 4.5,6.6 -1,1 -2.3,1.6 -3.7,1.9 -1.4,-1.6 -2.5,-3.5 -3.9,-5.3 0.4,-0.2 0.6,-0.4 0.6,-0.8 2.1,0.3 2.3,2.7 3.9,3.4 m -7,-0.5 v 0 c -0.2,0.8 -0.8,1.4 -1.4,2 -1.6,-0.4 -3.3,-2.3 -1.9,-3.9 1.5,0.1 2.3,1.1 3.3,1.9 m 0.9,-18 v 0 c -4.3,5.8 6.4,8.2 3.9,11.5 -2.5,-1.8 -4.5,-4.1 -6.4,-6.4 -2.7,4.5 2.7,6.6 4.1,9.8 -0.4,0.2 -0.4,0.6 -0.8,0.6 -1.4,-1.2 -3.7,-2.1 -5.8,-1.2 -1.4,3.7 1,5.8 3.3,6.8 0.8,-0.4 1,-2.3 1.9,-1.8 1.2,1.2 1.4,3.3 2.7,4.1 4.3,-2.3 10.5,-2.5 9.5,-9.9 -0.8,-1.9 -2.1,-3.3 -2.9,-5.3 1,-1.9 2.9,-2.7 4.7,-3.9 -3.9,-2.3 -8.3,-7.6 -14.2,-4.3 m 59.4,180.4 v 0 c 13.6,-19.1 24.3,-45.4 22.3,-76.6 -2.5,-40.2 -21.4,-70.2 -46.4,-89.5 -5.4,-4.1 -11.1,-8.6 -17.3,-11.7 -5,-2.5 -10.5,-5.7 -17.1,-5.8 17.1,4.9 29.5,14.2 40.8,25 -0.2,0.6 -1,0.4 -1.6,0.4 -0.8,0 -1.6,0 -1.2,1.6 0,0.8 1,0.6 1.7,0.6 0.6,0 1,-0.2 1.4,0 0.8,0 -0.2,-1.9 0.6,-1.9 20.8,18.7 36.7,48.2 38.2,84 1,23.8 -6.4,48 -15.7,64 -7.4,13.1 -18.1,25 -28.9,33.7 -9.7,7.8 -20.8,14.4 -32.8,18.5 -0.2,-2.5 1,-3.7 1.4,-5.7 -2.7,-4.5 -4.9,-9.6 -5.8,-16 -1.7,0 -3.3,-0.4 -4.5,-1.2 0.2,1.4 -0.2,1.9 -0.2,3.1 3.9,2.1 4.1,7.8 5.6,12.1 -0.4,1.6 -2.5,1.2 -1.9,3.5 0.4,0.2 1,0 1.6,-0.2 0.6,-0.2 1,-0.4 1.7,-0.2 0.8,1.4 1.2,3.3 1.6,5.1 -7,2.5 -15.1,5.1 -23.3,6.4 -2.9,0.4 -6,0.2 -8.2,1.9 11.1,-1 20.4,-2.9 29.5,-6.4 9.5,-3.5 17.1,-7.6 24.7,-12.7 3.3,-2.1 7,-4.1 10.1,-6.4 9.4,-7.7 16.6,-15.5 23.7,-25.6 m 16.3,-64.6 v 0 c 1,0.4 1.4,1.8 2.7,1.9 0,-0.8 1,-0.6 0.8,-1.6 -0.7,-0.6 -3.1,-3.2 -3.5,-0.3 m -11.4,61.9 v 0 c -3.9,6 -8.5,11.7 -13.8,17 -20.6,21.1 -45.4,37 -84.4,39.2 -38.8,2.1 -68.9,-14.2 -89.3,-33.1 -26.6,-24.8 -45,-63 -37.7,-112.7 0.6,-4.1 1.7,-8.4 3.1,-12.3 1.2,-4.1 2.1,-8.2 3.5,-11.9 5.8,-14.6 14.4,-27.1 24.1,-37.6 19.8,-21.4 45,-37 84.4,-39.6 40.2,-2.5 69.3,13.5 90.7,32.6 5.6,4.9 10.1,10.7 14.6,16.6 4.7,5.8 8.2,12.3 11.5,19.3 7,14.8 11.8,30.4 12.6,49.3 1.3,30.3 -7.3,53.8 -19.3,73.2 m 20.8,-73.4 v 0 c -2.1,-38 -18.1,-65.5 -39,-85.8 -20.4,-19.9 -51.6,-35.3 -90.5,-33.7 -9.9,0.4 -19.2,1.4 -27.8,3.9 -24.7,7.4 -43.9,19.3 -58.6,35.5 -19.6,21.4 -34.4,51.1 -33.2,91.3 0.6,19.3 5.8,35.9 12.8,49.7 7.4,14.2 15.7,25.9 26.6,36.3 21,20.3 52,35.3 90.5,33.7 38.8,-1.6 65,-17.7 85.8,-39.4 10.1,-10.3 18.1,-23.4 24.3,-38.4 6.2,-15 10.4,-33 9.1,-53.1"
   id="path9962" />
</g>
<g
   id="g9968"
   transform="translate(-15.431897,-201.48572)">
	<polygon
   class="st1"
   points="639.1,404.4 639.1,423.3 576.7,423.3 576.7,404.4 "
   id="polygon9966" />
</g>
<g
   id="g9972"
   transform="translate(-15.431897,-201.48572)">
	<polygon
   class="st1"
   points="171.4,404.4 171.4,423.3 108.9,423.3 108.9,404.4 "
   id="polygon9970" />
</g>
<g
   id="g9976"
   transform="translate(-15.431897,-201.48572)">
	<path
   class="st1"
   d="m 440.5,408.1 v 0 h 6.6 v -3.7 h -11.3 v 18.9 h 4.7 v -7.6 h 6.2 v -3.5 h -6.2 z m 18.8,2.3 v 0 c 0,1.6 -1.2,2.5 -2.9,2.5 h -1.6 V 408 h 1.4 c 1.9,0.1 3.1,0.9 3.1,2.4 m 1.8,6.9 v 0 c -0.4,-0.8 -1,-1.6 -1.4,-2 2.7,-0.8 4.5,-2.5 4.5,-5.5 0,-3.7 -2.7,-5.5 -7.2,-5.5 -2.5,0 -5.2,0.2 -6.8,0.2 v 18.7 h 4.7 V 416 h 0.2 l 4.7,7.2 h 5.6 z m 6.8,6 v 0 h 11.5 v -3.7 h -6.8 v -4.3 h 6.4 v -3.5 h -6.4 v -3.7 h 6.8 v -3.7 h -11.5 z m 15.1,0 v 0 h 4.7 V 404.4 H 483 Z m 18.8,-5.8 v 0 c 0,1.6 -1,2.5 -3.3,2.5 -0.8,0 -1.6,0 -1.9,-0.2 v -4.7 h 1.6 c 2.3,0 3.6,0.6 3.6,2.4 m -0.4,-7.8 v 0 c 0,1.8 -1.4,2.5 -3.5,2.5 h -1.4 v -4.5 c 0.6,0 1.4,-0.2 1.9,-0.2 2.5,0 3,1 3,2.2 m 2.2,3.5 v 0 c 1.9,-0.8 2.9,-2.3 2.9,-4.1 0,-2.9 -2.1,-4.7 -7.2,-4.7 h -7.4 v 18.9 h 6.6 c 6.2,0 8.2,-3.1 8.2,-5.9 0,-2.1 -1,-3.6 -3.1,-4.2 m 23.5,2.7 v 0 -11.5 h -4.5 v 10.9 c 0,2.7 -1.2,4.5 -3.9,4.5 -2.7,0 -4.1,-1.4 -4.1,-4.3 V 404.4 H 510 v 12.3 c 0,4.3 2.7,6.8 8.3,6.8 6.2,0 8.8,-3.3 8.8,-7.6 m 13.2,-5.5 v 0 c 0,1.6 -1.2,2.5 -2.9,2.5 h -1.6 V 408 h 1.4 c 1.9,0.1 3.1,0.9 3.1,2.4 m 1.7,6.9 v 0 c -0.6,-0.8 -1,-1.6 -1.4,-2 2.7,-0.8 4.5,-2.5 4.5,-5.5 0,-3.7 -2.7,-5.5 -7.4,-5.5 -2.3,0 -5.2,0.2 -6.6,0.2 v 18.7 h 4.7 V 416 l 4.7,7.2 h 5.6 z m 18.1,-4.1 v 0 6.1 c -0.6,0.2 -1.4,0.2 -2.1,0.2 -3.1,0 -5.2,-2 -5.2,-5.5 0,-3.9 2.5,-5.9 5.6,-5.9 1.9,0 3.5,0.4 5.2,1 l 0.8,-3.9 c -1.9,-0.8 -4.1,-1 -6,-1 -6.6,0 -10.5,4.5 -10.5,10 0,6.2 4.1,9.4 9.7,9.4 2.5,0 5,-0.4 7.2,-1.4 v -9 z"
   id="path9974" />
</g>
<g
   id="g9980"
   transform="translate(-15.431897,-201.48572)">
	<path
   class="st2"
   d="m 214.5,375.4 v 0 -22.8 h -9.1 v 21.7 c 0,5.3 -2.1,8.4 -7.8,8.4 -5,0 -7.8,-2.3 -7.8,-8.2 v -21.9 h -9.1 v 24 c 0,8.4 5.2,13.7 16.5,13.7 12,-0.1 17.3,-6.7 17.3,-14.9 m 31.2,14.2 v 0 H 258 v -37.1 h -8.9 v 15.6 c 0,3.9 0.2,6.8 0.4,9.2 h -0.2 c -1.2,-2.5 -2.3,-4.9 -3.9,-7 l -10.7,-17.8 h -12.2 v 37.1 h 8.9 v -18.4 c 0,-2.9 -0.2,-4.7 -0.4,-6.4 h 0.2 c 1,2 2.1,4.7 3.5,6.6 z m 21.6,0 v 0 h 9.3 v -37.1 h -9.3 z m 38.4,0 v 0 l 13.6,-37.1 H 310 l -6.4,17.2 c -1,2.9 -2.1,6.4 -2.9,10 h -0.2 c -0.8,-3.7 -1.9,-7 -2.9,-10 l -6.2,-17.2 h -10.1 l 13.8,37.1 z m 18.5,0 v 0 h 22.7 v -7.4 h -13.6 v -8 h 12.8 v -7 h -12.8 v -7.4 h 13.6 v -7.2 H 324.2 Z M 373.1,364 v 0 c 0,2.9 -2.3,5.1 -5.8,5.1 -1,0 -2.1,0 -3.1,-0.2 v -9.4 c 1,-0.2 1.9,-0.2 2.9,-0.2 3.7,0 6,1.8 6,4.7 m 3.5,13.7 v 0 c -1,-1.6 -1.9,-3.1 -2.7,-4.1 5.2,-1.4 8.9,-4.9 8.9,-10.5 0,-7.2 -5.4,-10.7 -14.4,-10.7 -4.7,0 -10.3,0 -13.4,0.2 v 37.1 h 9.1 v -14.4 h 0.4 l 9.1,14.4 h 11.1 z m 37.1,-0.4 v 0 c 0,-11.3 -15.1,-9.2 -15.1,-14.4 0,-2.1 1.6,-3.7 5.4,-3.7 2.1,0 4.9,0.4 6.8,1 l 0.4,-7.8 c -2.1,-0.2 -4.9,-0.6 -6.8,-0.6 -10.1,0 -15.5,4.9 -15.5,12.3 0,12.1 14.8,8.8 14.8,14.4 0,2.9 -2.5,4.3 -5.6,4.3 -2.9,0 -5.6,-0.6 -7.8,-1.4 l -0.4,8 c 2.1,0.6 5,1 7.4,1 10.2,0 16.4,-5.3 16.4,-13.1 m 7.4,12.3 v 0 h 9.1 v -37.1 h -9.1 z m 33.8,-29.3 v 0 h 9.7 v -7.8 H 436 v 7.8 h 9.7 v 29.3 h 9.1 v -29.3 z m 22.7,-3.5 v 0 c 0,-2.7 -2.3,-5.1 -4.9,-5.1 -2.7,0 -5,2.3 -5,5.1 0,2.7 2.3,4.9 5,4.9 2.5,0 4.9,-2.2 4.9,-4.9 m 14.1,19.7 v 0 h -9.9 l 3.3,-9 c 0.6,-1.8 1.2,-3.7 1.6,-5.3 0.6,1.6 1.2,3.7 1.9,5.5 z m 14.6,13.1 v 0 L 492.7,352.5 H 481.8 L 468,389.6 h 9.3 l 2.3,-6.4 h 14.2 l 2.3,6.4 z m 0.4,-32.8 v 0 c 0,-2.7 -2.1,-5.1 -4.9,-5.1 -2.7,0 -4.9,2.3 -4.9,5.1 0,2.7 2.1,4.9 4.9,4.9 2.8,0 4.9,-2.2 4.9,-4.9 m 22.1,3.5 v 0 h 9.7 v -7.8 H 510 v 7.8 h 9.7 v 29.3 h 9.1 z m 23.5,2.6 v 0 c 0,-2.1 1.6,-3.7 5.4,-3.7 2.1,0 4.9,0.4 6.8,1 l 0.4,-7.8 c -2.1,-0.2 -4.9,-0.6 -6.8,-0.6 -10.1,0 -15.5,4.9 -15.5,12.3 0,12.1 14.8,8.8 14.8,14.4 0,2.9 -2.5,4.3 -5.6,4.3 -2.9,0 -5.6,-0.6 -7.8,-1.4 l -0.4,8 c 2.1,0.6 5,1 7.4,1 10.3,0 16.5,-5.3 16.5,-13.1 0,-11.3 -15.2,-9.2 -15.2,-14.4"
   id="path9978" />
</g>
<g
   id="g9984"
   transform="translate(-15.431897,-201.48572)">
	<path
   class="st2"
   d="m 213.9,441.4 v 0 l -15,-19.1 14.2,-17.9 h -11.3 l -12,16 v -16 h -9.1 v 37 h 9.1 v -16.8 l 12,16.8 z m 2.5,0 v 0 h 21.2 v -8.2 h -12 v -28.9 h -9.1 v 37.1 z m 24.7,0 v 0 h 9.3 v -37 h -9.3 z m 36.9,0 v 0 h 12.2 v -37 h -8.9 l 0.2,15.6 c 0,3.9 0,7 0.2,9.2 h -0.2 c -1.2,-2.5 -2.3,-4.9 -3.7,-7 l -10.7,-17.7 h -12.4 v 37 h 8.9 v -18.3 c 0,-2.9 -0.2,-4.7 -0.2,-6.4 1,1.9 2.1,4.7 3.5,6.6 z m 17.3,0 v 0 h 9.1 v -37 h -9.1 z m 47.3,0 v 0 l -15.1,-19.1 14.2,-17.9 h -11.1 l -12.2,16 v -16 h -9.1 v 37 h 9.1 v -16.8 l 12.2,16.8 z m 35,-14.2 v 0 -22.8 h -9.1 V 426 c 0,5.3 -2.1,8.4 -7.8,8.4 -5,0 -7.8,-2.3 -7.8,-8 v -22 h -9.1 v 24 c 0,8.4 5.2,13.6 16.5,13.6 12.1,0 17.3,-6.6 17.3,-14.8 m 52.4,14.2 v 0 l -5.6,-37 h -11.7 l -6.2,18.9 c -0.8,2.3 -1.4,4.3 -1.7,6.8 h -0.2 c -0.4,-2.3 -1,-4.9 -1.7,-6.8 l -6,-18.9 h -11.5 l -5.6,37 h 9.1 L 391,424 c 0.4,-2.9 0.8,-5.7 0.8,-8.4 h 0.2 c 0.6,2.7 1.4,6 2.1,8.6 l 5.4,17.2 h 9.5 l 5.8,-18.5 c 0.8,-2.5 1.4,-5.1 1.9,-7.4 0.2,2.1 0.6,5.1 1,8.2 l 2.5,17.7 z"
   id="path9982" />
</g>
</svg>
